<?xml version="1.0" encoding="utf-8"?>
<!-- Generator: Adobe Illustrator 15.1.0, SVG Export Plug-In . SVG Version: 6.00 Build 0)  -->
<!DOCTYPE svg PUBLIC "-//W3C//DTD SVG 1.1//EN" "http://www.w3.org/Graphics/SVG/1.1/DTD/svg11.dtd">
<svg version="1.1" id="Layer_1" xmlns="http://www.w3.org/2000/svg" xmlns:xlink="http://www.w3.org/1999/xlink" x="0px" y="0px"
	 width="52px" height="54.5px" viewBox="0 0 52 54.5" enable-background="new 0 0 52 54.5" xml:space="preserve">
<g>
	<path fill="#F58025" d="M50.994,10.94v-0.232h-0.057c-0.422-1.553-1.908-2.704-3.68-2.704v2.704H47.25l0.094,39.098
		c0,0-5.51-1.777-10.488-3.945c-5.752-2.504-10.352,0.221-10.771,0.484v0.025c0,0-0.016-0.01-0.021-0.014
		c-0.004,0.004-0.021,0.014-0.021,0.014v-0.025c-0.42-0.264-5.02-2.988-10.771-0.484c-4.979,2.168-10.488,3.945-10.488,3.945
		l0.092-39.098h-0.02V7.801c-1.752,0-3.208,1.25-3.533,2.907H1.256v0.623c0,0.025-0.004,0.049-0.004,0.072s0.004,0.045,0.004,0.07
		v42.075h49.738V12.272c0.043-0.217,0.068-0.438,0.068-0.666C51.062,11.379,51.037,11.155,50.994,10.94z"/>
	<g>
		<path fill="#F58025" d="M13.768,32.808c1.148,2.057,2.473,4.021,3.943,5.881l8.434-8.205l8.463,8.225
			c1.459-1.838,2.773-3.797,3.938-5.865l-12.4-11.932L13.768,32.808z"/>
		<path fill="#F58025" d="M44.033,7.586c-1.451,0.441-2.996,0.684-4.598,0.684c-5.662,0-10.609-2.977-13.273-7.404
			C23.49,5.293,18.545,8.27,12.887,8.27c-1.602,0-3.148-0.242-4.598-0.682c-0.377,4.319-0.105,8.585,0.754,12.686h34.211
			C44.145,15.997,44.393,11.733,44.033,7.586"/>
	</g>
</g>
</svg>
