<?xml version="1.0" encoding="utf-8"?>
<!-- Generator: Adobe Illustrator 15.1.0, SVG Export Plug-In . SVG Version: 6.00 Build 0)  -->
<!DOCTYPE svg PUBLIC "-//W3C//DTD SVG 1.1//EN" "http://www.w3.org/Graphics/SVG/1.1/DTD/svg11.dtd">
<svg version="1.1" id="Layer_1" xmlns="http://www.w3.org/2000/svg" xmlns:xlink="http://www.w3.org/1999/xlink" x="0px" y="0px"
	 width="700px" height="700px" viewBox="0 0 700 700" enable-background="new 0 0 700 700" xml:space="preserve">
<g transform="translate(0.000000,700.000000) scale(0.100000,-0.100000)">
	<path d="M3468.799,6785.903c-51.992-90.986-193.667-258.657-302.847-361.343c-256.064-239.165-599.209-417.236-943.657-486.128
		c-283.359-58.491-660.303-48.091-911.167,25.996c-35.093,9.097-66.289,15.596-68.892,12.998
		c-14.292-12.998-22.095-430.234-15.596-683.696c9.097-275.562,41.592-577.114,87.085-805.879l22.1-110.483H3500h2164.179
		l22.09,116.982c67.598,353.55,80.596,526.421,81.895,1009.951c0,254.756-3.906,466.626-7.793,470.527
		c-3.916,3.901-36.416-1.304-71.494-10.4c-175.469-51.992-451.045-76.685-661.602-59.79
		c-361.357,29.893-662.9,135.181-968.359,339.248c-153.379,102.686-384.736,330.151-480.928,475.732
		c-38.994,58.491-74.087,106.582-77.988,107.881C3496.098,6827.5,3481.797,6808.002,3468.799,6785.903z"/>
	<path d="M691.123,5938.432c-137.783-36.396-262.559-148.174-310.654-275.557c-25.996-70.19-25.996-88.389-25.996-2780.278V172.5
		H3500h3145.527v2703.594v2704.892l-38.994,77.988c-45.498,88.389-123.486,170.278-201.475,209.272
		c-57.197,29.893-166.377,62.388-210.557,62.388h-27.305l6.494-2645.097l7.812-2646.396l-258.662,90.986
		c-352.246,122.178-423.74,149.473-850.078,319.746c-204.062,81.885-415.938,161.182-473.135,175.469
		c-230.049,58.496-506.924,58.496-736.972,0c-110.488-28.594-279.463-90.986-339.258-127.383
		c-33.799-19.502-38.994-19.502-87.095,7.803c-207.969,116.982-555.01,183.281-824.067,158.574
		c-198.872-19.492-298.955-49.395-743.491-227.461c-415.938-165.078-620.01-241.758-908.564-339.248L792.51,640.43l9.097,2658.105
		l9.097,2658.095l-29.897-1.299C763.911,5955.332,723.618,5947.529,691.123,5938.432z"/>
	<path d="M2863.095,3687.173c-347.051-334.048-696.694-670.698-778.584-749.995l-148.174-142.979l36.392-71.484
		c76.69-145.576,432.832-665.498,457.534-665.498c9.097,0,254.756,235.254,697.998,666.806l370.444,362.646l535.503-521.24
		l534.228-519.922l72.793,93.604c133.867,172.861,418.535,612.207,418.535,645.996c0,9.092-1541.562,1498.672-1558.471,1503.877
		C3497.402,4291.582,3210.141,4019.922,2863.095,3687.173z"/>
</g>
</svg>
