<?xml version="1.0" encoding="utf-8"?>
<!-- Generator: Adobe Illustrator 15.1.0, SVG Export Plug-In . SVG Version: 6.00 Build 0)  -->
<!DOCTYPE svg PUBLIC "-//W3C//DTD SVG 1.1//EN" "http://www.w3.org/Graphics/SVG/1.1/DTD/svg11.dtd">
<svg version="1.1" id="Layer_1" xmlns="http://www.w3.org/2000/svg" xmlns:xlink="http://www.w3.org/1999/xlink" x="0px" y="0px"
	 width="62.125px" height="62.125px" viewBox="0 0 62.125 62.125" enable-background="new 0 0 62.125 62.125" xml:space="preserve">
<rect fill="#F58025" width="62.125" height="62.125"/>
<g>
	<path d="M52.519,17.009v-0.2H52.47c-0.364-1.342-1.647-2.336-3.179-2.336v2.336h-0.006l0.08,33.777c0,0-4.76-1.536-9.061-3.409
		c-4.969-2.163-8.942,0.191-9.307,0.419v0.021c0,0-0.013-0.008-0.018-0.012c-0.004,0.004-0.018,0.012-0.018,0.012v-0.021
		c-0.364-0.228-4.338-2.582-9.306-0.419c-4.301,1.873-9.061,3.409-9.061,3.409l0.079-33.777h-0.017v-2.512
		c-1.513,0-2.771,1.08-3.051,2.512H9.551v0.538c-0.001,0.021-0.003,0.042-0.003,0.062c0,0.021,0.002,0.04,0.003,0.061v36.349h42.967
		V18.161c0.037-0.188,0.059-0.379,0.059-0.577C52.577,17.389,52.556,17.195,52.519,17.009z"/>
	<g>
		<path d="M20.358,35.9c0.992,1.777,2.136,3.475,3.407,5.081l7.287-7.089l7.311,7.105c1.26-1.588,2.396-3.28,3.401-5.066
			L31.052,25.623L20.358,35.9z"/>
		<path d="M46.505,14.112c-1.254,0.381-2.588,0.59-3.972,0.59c-4.892,0-9.166-2.571-11.467-6.396
			c-2.308,3.824-6.581,6.396-11.469,6.396c-1.384,0-2.719-0.209-3.971-0.588c-0.326,3.73-0.091,7.415,0.651,10.958h29.554
			C46.602,21.377,46.815,17.695,46.505,14.112"/>
	</g>
</g>
</svg>
