<svg xmlns="http://www.w3.org/2000/svg" width="115.702" height="31.1" viewBox="0 0 115.702 31.1">
  <path d="M.5 27.1c0 1.9 1.602 3.5 3.5 3.5h107.702c1.9 0 3.5-1.6 3.5-3.5V4c0-1.9-1.6-3.5-3.5-3.5H4.102C2.202.5.602 2.1.602 4v23.1H.5z"/>
  <path fill="none" stroke="#000" stroke-miterlimit="10" d="M.5 27.1c0 1.9 1.602 3.5 3.5 3.5h107.702c1.9 0 3.5-1.6 3.5-3.5V4c0-1.9-1.6-3.5-3.5-3.5H4.102C2.202.5.602 2.1.602 4v23.1H.5z"/>
  <g fill="#FFF">
    <path d="M24.3 9.3c-.198-.7-.698-1.1-1.4-1.1v15.3s-2-.6-3.798-1.4c-2.102-.9-3.8.1-3.9.2-.202-.1-1.802-1.1-3.9-.2C9.5 22.9 7.5 23.5 7.5 23.5V8.1c-.6 0-1.2.5-1.3 1.1v15.5h18.1V9.3z"/>
    <path d="M10.7 17.3c.4.8.9 1.5 1.4 2.1l3.1-3 3.1 3c.5-.7 1-1.4 1.4-2.1L15.2 13l-4.5 4.3zm11.1-9.2c-.5.2-1.1.2-1.698.2-2.102 0-3.9-1.1-4.8-2.7-1 1.6-2.802 2.7-4.802 2.7-.6 0-1.1-.1-1.7-.2-.1 1.6 0 3.1.302 4.6h12.5c.2-1.5.298-3.1.2-4.6"/>
  </g>
  <path d="M40.823 12.85c-.02.02-.074.03-.158.03h-.137c-.05 0-.094-.007-.136-.02-.224-.463-.445-.858-.662-1.188-.217-.33-.423-.605-.62-.83-.196-.224-.38-.41-.556-.556-.175-.147-.34-.276-.494-.39-.168-.125-.406-.188-.714-.188l-3.59-.02c-.197 0-.313.02-.347.06-.04.043-.06.142-.06.295v5.985c.17.014.31.02.42.02h.54c.17 0 .35-.01.55-.03.2-.02.4-.06.6-.115.19-.056.38-.133.55-.23.17-.1.31-.225.43-.38.09-.125.18-.275.24-.45s.11-.35.14-.525c.03-.175.05-.343.07-.504.02-.16.04-.29.05-.39.04-.013.08-.026.11-.04.03-.015.09-.022.16-.022s.13.007.17.02c.05.016.09.036.13.064 0 .238-.01.504-.01.798s-.02.58-.03.86c-.02.28-.03.54-.04.777-.01.24-.01.42-.01.55 0 .13 0 .29.01.5l.02.64.02.66c0 .22.01.4.01.54v.74c-.06.06-.16.09-.32.09h-.13c-.01 0-.06-.01-.13-.04-.01-.07-.03-.19-.06-.38-.03-.18-.06-.39-.09-.63-.03-.25-.13-.51-.29-.77-.16-.26-.38-.5-.66-.72-.11-.09-.32-.18-.62-.25s-.68-.1-1.15-.1c-.21 0-.42.02-.63.06l-.04.2c-.02.08-.03.2-.04.36-.02.16-.03.38-.03.65l-.04 1.11c0 .27 0 .56-.01.86-.01.31-.01.61-.01.9v1.27c.1.41.23.72.41.94.17.22.34.37.51.45.05.02.16.03.31.05.16.02.32.03.5.05.17.02.34.04.5.05.16.02.28.02.37.02.04.1.06.2.06.3 0 .04 0 .08-.01.13 0 .05-.02.1-.05.15H34.7c-.26 0-.54 0-.82-.01-.28-.01-.55-.01-.81-.01h-.69c-.43 0-.904.01-1.414.03-.51.02-1.08.03-1.69.03h-.86c-.07-.1-.11-.19-.11-.27 0-.09.027-.18.08-.27.325-.03.68-.07 1.07-.14.396-.07.697-.12.907-.15.152-.21.274-.47.37-.77.09-.3.16-.74.22-1.31V13.3c0-.57-.01-1.03-.02-1.364s-.04-.58-.068-.73c-.04-.25-.125-.47-.24-.66-.12-.19-.28-.38-.476-.58-.1-.08-.32-.14-.67-.164-.35-.024-.68-.06-.99-.1-.04-.07-.07-.166-.07-.29 0-.07.01-.12.03-.147.02-.03.04-.07.07-.13.28 0 .59.006.95.01s.72.014 1.08.014c.36 0 .72 0 1.06.01.34 0 .63.01.87.01h1.05s1.6-.01 2.86-.02c.47 0 .87-.01 1.18-.01s.59-.02.82-.02h1.14c.2 0 .4 0 .6.01s.35.02.45.03l.07.14c.01.03.03.11.04.24l.19 3.27c-.06.03-.1.05-.12.07zm12.484 11.076c0 .07-.014.16-.043.273l-3.045-.03c-.19 0-.31-.06-.38-.18s-.12-.27-.15-.46c-.05-.25-.1-.52-.16-.81-.06-.29-.14-.57-.22-.85s-.18-.54-.29-.79c-.11-.25-.22-.45-.35-.62-.16-.2-.35-.42-.57-.67-.23-.25-.48-.42-.76-.52-.21-.07-.44-.11-.7-.11h-1v2.85c0 .52.09.89.27 1.11.12.16.29.28.5.35s.49.12.84.14c.08.12.12.22.12.29 0 .06-.01.09-.04.12-.02.02-.05.06-.07.14-.44 0-.82-.01-1.15-.03-.33-.02-.74-.02-1.23-.02-.22 0-.5 0-.83.01-.33.01-.65.01-.97.01-.32 0-.6 0-.84.01s-.4.01-.45.01c-.03-.07-.05-.13-.06-.17-.01-.04-.01-.08-.01-.13s0-.07.01-.1c0-.03.02-.08.05-.15l.37-.04c.14-.02.28-.04.43-.07s.28-.06.4-.1.2-.08.24-.13c.1-.1.17-.23.22-.38.05-.16.08-.31.11-.47.01-.06.02-.15.03-.28.01-.13.01-.26.02-.41.01-.15.01-.29.01-.43V17.6c0-.63-.01-1.14-.04-1.52-.03-.387-.06-.656-.09-.81-.06-.32-.21-.56-.47-.726-.26-.16-.71-.26-1.34-.3-.03-.07-.04-.17-.04-.3 0-.06 0-.09.02-.11.01-.015.03-.06.06-.126h.79s.58 0 .86.01.54.01.77.01h.51c.39 0 .83 0 1.3-.01.47-.01 1.01-.01 1.59-.01.41 0 .79.01 1.14.04.35.03.64.072.88.142.67.18 1.16.51 1.48.97s.47.99.47 1.577c0 .62-.22 1.16-.66 1.62-.44.46-1.19.75-2.26.86v.104c.41.07.73.17.98.31s.44.29.6.44c.18.18.35.4.5.65s.31.57.46.95c.11.27.22.54.32.81.11.28.21.57.33.9.03.06.07.12.12.19.06.07.12.12.19.14.03.02.09.03.19.05.1.01.2.03.32.05.11.02.22.04.32.05s.17.02.21.02c.044.08.065.17.065.25zm-3.885-7.496c0-.253-.03-.48-.084-.683-.057-.203-.162-.396-.314-.578-.127-.17-.268-.31-.42-.41-.155-.11-.334-.19-.537-.24s-.438-.1-.703-.11c-.266-.02-.582-.02-.945-.02-.35 0-.57.02-.65.07-.08.05-.12.15-.12.3v3.78l.29.03s.17.01.27.01c.35 0 .69-.01 1.03-.02.33-.02.6-.04.79-.09.21-.06.4-.15.58-.29.17-.14.32-.3.43-.49s.2-.4.26-.62c.06-.22.09-.45.09-.67zm10.858 7.496c0 .084-.028.176-.084.273h-5.523c-.028-.06-.045-.11-.053-.14-.007-.04-.01-.07-.01-.1 0-.1.02-.2.062-.3.504-.07.88-.15 1.124-.22.244-.08.423-.24.535-.48.03-.06.06-.24.08-.55.02-.31.04-.65.04-1.02l.02-1.05c.01-.33.01-.54.01-.64v-2.8c0-.24 0-.49-.01-.75s-.02-.55-.05-.85c-.04-.38-.19-.62-.46-.71-.26-.09-.68-.16-1.24-.2-.04-.11-.06-.21-.06-.29 0-.06.01-.1.03-.13.02-.03.05-.07.08-.13h5.29c.09.09.13.18.13.25s-.02.16-.06.29c-.32.04-.63.09-.93.14-.3.05-.5.19-.6.43-.03.06-.05.16-.06.3l-.03.47s-.01.34-.01.52v5.34c0 .44.03.85.09 1.21s.25.6.57.71c.09.03.25.05.5.06l.6.04c.03.05.04.09.05.12s.01.08.01.15zm12.39.284c-.085.034-.225.053-.42.053-1.583 0-2.808-.015-3.676-.042-.868-.02-1.407-.04-1.617-.04-.168 0-.413 0-.735-.01-.32 0-.58-.01-.776-.01-.21 0-.55.01-1.02.03-.47.02-.976.03-1.52.03l-.63-.02c-.043-.08-.064-.16-.064-.23v-.14s.014-.1.042-.14c.42-.02.77-.07 1.05-.13s.455-.13.525-.2c.09-.11.17-.28.22-.52.05-.24.08-.59.11-1.07l.03-.75s.01-.53.01-.81c0-.4-.01-.85-.01-1.33-.01-.48-.01-1.02-.01-1.6 0-.4-.01-.73-.01-.99-.01-.25-.01-.46-.01-.63 0-.29-.04-.51-.12-.67-.08-.15-.19-.27-.33-.35-.14-.08-.32-.14-.54-.16s-.48-.06-.77-.09c-.04-.11-.06-.2-.06-.27 0-.02.01-.07.03-.13.02-.06.04-.1.07-.13h.57c.19 0 .56.01 1.1.01.54.01 1.3.01 2.3.01.46 0 .91.01 1.34.01.43.01.83.01 1.18.01s.66 0 .91.01.42.01.52.01h.24c.1 0 .21.01.32.01s.22.01.32.01h.19c.13 0 .22.01.27.04.05.02.08.09.08.2l.12 2.37c-.07.03-.12.05-.15.06-.03.01-.08.02-.15.02-.1 0-.17-.01-.23-.02-.17-.3-.32-.54-.46-.73-.14-.19-.27-.34-.39-.47s-.23-.23-.35-.32c-.12-.09-.24-.19-.38-.28-.18-.14-.48-.23-.9-.27-.07 0-.21 0-.42-.01s-.54-.01-.99-.01c-.37 0-.64.01-.83.01-.19.01-.31.02-.35.03-.07 0-.11.02-.11.04 0 .03-.02.15-.04.36 0 .06 0 .13-.01.23s-.02.23-.02.39-.01.36-.01.6v2.23h.35c.24 0 .46-.01.67-.03.21-.02.38-.05.5-.09.21-.06.42-.15.61-.28.2-.13.35-.28.46-.45.05-.07.09-.21.13-.42s.08-.36.11-.46c.08-.04.19-.06.33-.06.13 0 .22.03.27.08l-.06.9c-.03.39-.04.83-.04 1.33 0 .13 0 .29.01.47l.02.58.02.58c.01.19.01.34.01.45-.06.03-.11.05-.14.07s-.09.02-.16.02c-.09 0-.19-.02-.3-.04-.06-.45-.14-.83-.26-1.13s-.35-.53-.73-.69c-.21-.08-.41-.14-.59-.16s-.37-.04-.57-.04c-.11 0-.23.01-.35.01l-.35.03v2.73c0 .61.04 1.01.12 1.22.04.1.12.22.23.35.11.14.24.22.4.24.07.02.18.03.32.05.15.02.36.02.64.02h1.52c.2 0 .41-.01.63-.03.23-.02.39-.06.49-.13.1-.06.22-.16.38-.32s.31-.33.48-.53c.17-.2.32-.42.47-.66.14-.24.26-.48.34-.71.07-.03.12-.05.162-.05.05-.01.09-.01.15-.01.1 0 .2.02.296.08V24c0 .12-.04.2-.12.234zM87.244 14.1c0 .026-.004.065-.01.114-.01.05-.025.095-.054.137-.266.02-.518.07-.756.15s-.448.22-.63.39c-.183.18-.325.41-.43.7s-.158.65-.158 1.07l-.02 5.36c0 .06.003.18.01.37s.018.4.03.64.025.48.032.72c.008.24.01.44.01.59-.07.06-.145.1-.23.13s-.146.05-.188.05-.133-.05-.272-.16l-7.35-7.92.083 1.62.03 2.92c0 .11.01.29.02.53.02.24.04.46.07.65.03.33.09.56.18.72.09.16.21.29.35.4.2.16.43.27.7.33.27.07.51.11.72.14.05.08.07.16.07.23 0 .03 0 .07-.02.12s-.03.1-.06.16h-.8c-.33 0-.64 0-.93-.01-.28-.01-.61-.01-.97-.01-.24 0-.49.01-.77.02s-.54.02-.78.02h-.33c-.03-.09-.04-.16-.04-.23 0-.03 0-.07.01-.11s.03-.09.05-.16c.13-.01.27-.03.43-.07.16-.03.32-.08.47-.14.16-.06.3-.13.43-.22s.25-.17.33-.27c.07-.14.12-.32.14-.54.02-.23.03-.46.03-.72v-3.75c0-.3 0-.56-.01-.75-.01-.19-.02-.44-.03-.73-.01-.48-.13-.86-.36-1.14-.03-.03-.09-.1-.19-.21-.1-.11-.21-.22-.33-.34-.11-.11-.29-.21-.54-.29s-.46-.16-.64-.23c-.02-.04-.04-.08-.05-.13s-.01-.08-.01-.09c0-.1.02-.19.06-.28h.27c.06 0 .16.01.32.01.15.01.34.02.55.02l.68.02c.24 0 .46.01.67.01h.51c.14.05.25.12.34.21l5.44 5.94.67.76c.23.27.42.5.58.69v-4.3c0-.29-.01-.54-.02-.73-.02-.19-.03-.35-.04-.46-.04-.45-.15-.82-.32-1.11-.04-.07-.13-.13-.26-.19s-.28-.1-.45-.14-.34-.08-.52-.1-.34-.06-.46-.09c-.04-.11-.06-.21-.06-.31 0-.09.02-.16.04-.23h.31c.25 0 .56.01.92.04s.66.04.91.04c.31 0 .57 0 .79-.01.22-.01.41-.01.58-.01s.32 0 .46-.01.29-.01.45-.01h.39c.05.08.07.17.07.25zm13.292 5.123c0 .49-.073.994-.22 1.512-.147.518-.368.994-.662 1.428-.294.393-.6.725-.913.998-.31.28-.67.49-1.07.64-.39.16-.84.27-1.33.34-.49.07-1.05.11-1.68.11-.25 0-.59 0-1.01-.02-.42-.01-.89-.02-1.4-.02-.56 0-1.02.01-1.37.01-.35.01-.64.02-.87.02-.22 0-.4.01-.54.01s-.27.01-.39.01h-.26c-.04-.08-.06-.16-.06-.25 0-.03.01-.06.01-.1s.03-.1.06-.17c.53-.02.92-.08 1.16-.18s.42-.23.53-.43c.03-.04.07-.18.14-.41.06-.23.1-.59.1-1.08v-2.42c0-1.12-.01-1.93-.04-2.44l-.06-1c-.01-.15-.03-.31-.06-.47-.03-.16-.1-.3-.21-.43-.11-.12-.28-.23-.51-.31-.23-.08-.56-.12-.98-.12l-.04-.15c-.01-.05-.02-.09-.02-.13 0-.07.03-.15.08-.25h.76c.2 0 .41.01.64.01.23.01.44.01.62.01.13 0 .33 0 .62-.02s.61-.03.97-.04l1.09-.04s.71-.02 1-.02c.72 0 1.36.07 1.92.22.57.15 1.06.33 1.46.56.45.22.84.51 1.16.86.32.35.59.73.81 1.15.22.41.38.85.48 1.31.11.46.16.92.16 1.37zm-2.268-.105c0-.854-.13-1.586-.39-2.194-.258-.61-.682-1.13-1.27-1.564-.406-.308-.857-.543-1.354-.704-.497-.16-1.074-.24-1.732-.24-.196 0-.343.007-.44.02-.1.014-.218.035-.357.062l-.02.147v7.266c0 .59.104 1 .314 1.22.15.17.31.3.47.38.16.09.36.13.6.13.67 0 1.25-.1 1.74-.29.49-.19.91-.52 1.28-.96.38-.43.66-.91.86-1.45.19-.53.29-1.13.29-1.8zm12.537 2.225c0 .477-.102.91-.305 1.303s-.473.725-.81.997c-.335.273-.724.483-1.164.63-.44.147-.907.22-1.396.22-.435 0-.872-.065-1.312-.198-.44-.133-.81-.276-1.103-.43-.042-.03-.105-.05-.19-.064-.083-.01-.145-.02-.187-.02-.07 0-.176.04-.315.11-.14.07-.294.17-.462.3-.12 0-.24-.02-.36-.08-.12-.05-.2-.13-.24-.23 0-.11.03-.3.1-.56.07-.26.1-.5.1-.71 0-.05 0-.16-.01-.32l-.02-.5c0-.18-.02-.34-.03-.5s-.02-.27-.02-.34c.11-.16.27-.23.46-.23.07 0 .13.01.17.02.06.1.12.24.2.42l.24.57c.09.2.17.39.26.58.09.19.18.34.27.45.32.38.7.66 1.14.83.44.18.83.27 1.18.27.8 0 1.36-.17 1.68-.5.24-.24.4-.44.47-.62.08-.17.12-.39.12-.64 0-.39-.09-.71-.29-.94-.12-.16-.26-.3-.41-.39-.14-.1-.37-.22-.68-.38-.11-.05-.28-.12-.51-.19l-.74-.23c-.26-.08-.52-.17-.77-.25s-.45-.17-.61-.25c-.36-.17-.64-.33-.85-.49-.2-.16-.4-.34-.6-.53-.22-.28-.37-.59-.46-.93s-.12-.66-.12-.95c0-.42.08-.81.23-1.16.16-.36.38-.66.67-.92s.63-.46 1.02-.61c.39-.14.82-.22 1.28-.22.37 0 .77.04 1.21.12.45.08.87.28 1.28.6.08-.1.18-.19.28-.29l.33-.3c.16 0 .28.03.38.1.1.07.16.13.17.18-.01.13-.04.33-.09.61s-.07.55-.07.82c0 .07.01.19.03.34l.07.48.06.45c.01.14.02.23.02.28-.05.03-.11.06-.18.09-.06.04-.13.05-.22.05-.04 0-.1-.01-.19-.04-.15-.25-.29-.55-.43-.91-.13-.35-.28-.65-.45-.89-.24-.32-.53-.55-.87-.69-.34-.14-.74-.21-1.19-.21-.52 0-.96.15-1.33.44s-.56.67-.56 1.12c0 .44.14.77.42 1 .28.23.57.41.86.53l.72.27c.26.1.54.2.85.3.81.27 1.37.48 1.66.63.6.31 1.04.69 1.31 1.14.27.45.41.99.41 1.62z" fill="#FFF" stroke="#FFF" stroke-width=".5" stroke-miterlimit="10"/>
</svg>
