<svg xmlns="http://www.w3.org/2000/svg" width="104.853" height="19.144" viewBox="0 0 104.853 19.144">
  <g fill="#FFF">
    <path d="M18.1 3.7c-.2-.7-.7-1.1-1.4-1.1v15.3s-2-.6-3.8-1.4c-2.1-.9-3.8.1-3.9.2-.2-.1-1.8-1.1-3.9-.2-1.8.802-3.8 1.4-3.8 1.4V2.5C.7 2.5.1 3 0 3.6v15.5h18.1V3.7z"/>
    <path d="M4.5 11.7c.4.8.9 1.5 1.4 2.102l3.1-3 3.1 3c.5-.7 1-1.4 1.4-2.102L9 7.4l-4.5 4.3zm11.1-9.2c-.5.2-1.1.2-1.7.2-2.1 0-3.9-1.1-4.8-2.7-1 1.6-2.8 2.7-4.8 2.7-.6 0-1.1-.1-1.7-.2-.1 1.6 0 3.1.3 4.6h12.5c.2-1.5.3-3.1.2-4.6"/>
  </g>
  <path d="M34.622 7.25c-.02.02-.074.03-.158.03h-.137c-.05 0-.094-.006-.136-.02-.22-.462-.44-.857-.66-1.187-.21-.33-.42-.605-.62-.83-.19-.224-.38-.41-.55-.556-.17-.147-.34-.276-.49-.39-.17-.125-.4-.188-.71-.188l-3.59-.03c-.19 0-.31.02-.34.06-.03.04-.05.14-.05.29v5.98c.17.01.31.02.42.02h.55c.17 0 .36-.01.56-.03.21-.02.41-.06.6-.12.2-.06.38-.14.56-.23.18-.1.32-.23.43-.38.1-.13.18-.28.24-.45s.11-.35.14-.53c.03-.18.05-.35.08-.51.02-.16.04-.29.05-.39l.12-.04c.04-.02.09-.03.16-.03s.13 0 .18.02c.05.01.1.03.14.06 0 .24 0 .5-.01.8l-.03.86-.03.77c0 .24-.01.42-.01.55 0 .12.01.29.01.49l.02.64.03.66c.01.22.01.4.01.53v.73c-.05.06-.16.08-.31.08h-.13c-.01 0-.05-.02-.12-.05-.01-.07-.03-.2-.06-.38-.03-.19-.05-.4-.08-.63-.02-.26-.12-.51-.28-.77-.16-.26-.38-.5-.66-.73-.11-.1-.32-.18-.62-.25S28.46 11 28 11c-.21 0-.42.02-.63.06-.014.06-.03.127-.04.2-.016.08-.03.2-.044.36-.012.16-.022.38-.03.65l-.04 1.106c0 .27 0 .555-.01.86-.004.31-.01.607-.01.895v1.27c.1.41.236.72.41.94.177.21.35.36.517.45.05.01.16.03.31.04l.49.05.5.06c.16.01.28.02.37.02.05.1.07.19.07.29 0 .04 0 .08-.01.12-.01.04-.03.09-.05.15h-1.2c-.265 0-.54-.01-.82-.01-.28-.01-.55-.01-.82-.01h-.69c-.43 0-.9.01-1.41.03-.51.02-1.075.03-1.69.03h-.86c-.07-.09-.11-.19-.11-.27 0-.1.03-.19.09-.27.33-.03.68-.08 1.08-.15.39-.07.69-.12.9-.14.15-.21.28-.46.37-.76.09-.3.16-.74.22-1.32v-8c0-.57-.01-1.03-.02-1.36s-.04-.58-.07-.73c-.04-.25-.12-.472-.24-.66-.12-.19-.28-.382-.47-.58-.1-.082-.33-.14-.68-.17-.35-.03-.68-.06-.99-.102-.04-.07-.06-.17-.06-.3 0-.07.01-.12.03-.15.02-.03.043-.07.07-.13.28 0 .6 0 .956.01s.71.01 1.08.01c.36 0 .72 0 1.06.01.34 0 .63.01.87.01h1.05s1.57-.01 2.83-.02c.47 0 .87-.01 1.18-.01s.59-.02.82-.02h1.14c.19 0 .39 0 .6.01s.35.02.45.03c.02.06.05.11.06.14.01.04.02.12.04.25l.19 3.27c-.06.03-.1.05-.12.07zm12.484 11.077c0 .07-.014.16-.043.273l-3.045-.02c-.182 0-.307-.06-.377-.18s-.11-.27-.14-.45c-.04-.253-.09-.522-.16-.81-.06-.286-.13-.57-.22-.85s-.18-.543-.28-.788c-.1-.244-.22-.45-.34-.62-.15-.195-.34-.416-.56-.66-.22-.245-.47-.417-.75-.515-.21-.07-.44-.105-.69-.105h-1.01v2.856c0 .518.09.89.28 1.112.13.168.3.287.51.357s.49.12.84.146c.08.126.13.225.13.294 0 .057-.01.095-.03.116-.02.02-.04.066-.07.137-.43 0-.81-.008-1.14-.02-.33-.015-.74-.022-1.23-.022-.22 0-.5.004-.83.01-.33.01-.65.012-.96.012-.32 0-.6.003-.84.01-.25.008-.4.012-.45.012-.03-.07-.04-.127-.05-.17 0-.04-.01-.083-.01-.125s.01-.076.01-.104l.06-.147c.11-.014.24-.027.38-.042.14-.014.29-.034.43-.062s.28-.063.4-.105.2-.084.24-.126c.1-.09.17-.22.22-.37.05-.15.09-.31.11-.46.02-.05.03-.14.03-.27.01-.12.02-.26.02-.41.01-.14.01-.29.01-.43v-3.7c0-.63-.01-1.13-.04-1.52-.03-.38-.05-.65-.08-.81-.05-.32-.21-.56-.47-.72-.26-.16-.7-.26-1.33-.3-.02-.07-.04-.17-.04-.29 0-.05.01-.09.02-.1.02-.01.04-.06.07-.12h.8s.58 0 .86.01.54.01.77.01h.52c.39 0 .83 0 1.3-.01.48-.01 1.01-.01 1.6-.01.41 0 .78.02 1.13.04.35.03.64.08.88.15.67.18 1.17.5 1.48.97s.47.99.47 1.58c0 .62-.22 1.16-.66 1.62-.44.46-1.19.75-2.26.86v.11c.4.07.73.18.98.32s.45.29.6.44c.19.19.35.4.51.66s.31.57.46.94l.33.81.33.89c.03.05.07.12.13.19s.12.12.19.14c.03.02.09.03.19.04.1.02.21.03.33.05l.33.06s.17.02.21.02c.04.09.068.17.068.26zM43.22 10.83c0-.252-.028-.478-.083-.682-.057-.203-.162-.396-.314-.578-.127-.168-.268-.305-.42-.41-.155-.104-.334-.185-.537-.24s-.438-.09-.703-.105c-.266-.014-.582-.02-.945-.02-.35 0-.563.023-.64.072-.078.05-.116.15-.116.305v3.78c.112.014.21.024.294.03s.175.01.273.01c.35 0 .69-.006 1.02-.02.33-.014.6-.042.8-.084.21-.056.4-.15.58-.283.17-.133.32-.294.43-.483s.2-.396.26-.62c.06-.224.09-.448.09-.67zm10.858 7.497c0 .084-.028.176-.084.273H48.47c-.028-.056-.045-.102-.053-.137-.007-.034-.01-.066-.01-.095 0-.098.02-.195.062-.294.5-.07.87-.143 1.12-.22.24-.077.42-.234.53-.473.03-.05.05-.23.07-.54.02-.31.03-.64.04-1.02l.02-1.05c0-.33.01-.54.01-.64v-2.82c0-.23-.01-.48-.01-.74-.01-.26-.03-.54-.06-.85-.04-.38-.2-.61-.46-.7-.27-.09-.68-.15-1.24-.19-.04-.11-.06-.21-.06-.29 0-.05.01-.09.03-.12.02-.03.04-.07.07-.12h5.29c.08.1.12.18.12.25s-.02.17-.06.3c-.32.04-.64.09-.94.14-.3.05-.5.2-.6.43-.03.06-.05.16-.06.31-.02.15-.03.31-.03.47s-.01.35-.01.53v5.34c0 .45.03.85.08 1.22.05.36.24.6.56.71.08.03.25.05.49.07s.44.03.6.04l.05.13s.01.08.01.15zm12.39.283c-.085.035-.225.054-.42.054-1.583 0-2.808-.015-3.676-.042-.868-.028-1.407-.043-1.617-.043-.168 0-.413-.01-.735-.01-.32-.01-.58-.02-.776-.02-.21 0-.55.01-1.02.03-.47.02-.976.03-1.52.03l-.63-.02c-.043-.09-.064-.16-.064-.23v-.15s.014-.11.042-.15c.42-.03.77-.08 1.05-.14.28-.07.455-.13.525-.2.098-.11.17-.29.22-.53.05-.24.088-.6.116-1.07.014-.24.024-.49.03-.75s.012-.53.012-.81c0-.41-.004-.85-.01-1.34-.008-.48-.01-1.02-.01-1.61 0-.4-.005-.73-.012-.98-.008-.25-.01-.46-.01-.63 0-.3-.04-.52-.116-.67-.077-.16-.186-.28-.326-.36-.14-.09-.31-.14-.53-.17s-.47-.06-.76-.09c-.04-.12-.06-.21-.06-.28 0-.03.01-.07.03-.14.03-.06.05-.11.08-.14h.57c.2 0 .56 0 1.1.01s1.31.01 2.3.01c.47 0 .91 0 1.35.01.44.01.83.01 1.19.01s.66 0 .92.01c.25.01.43.01.53.01h.24c.11 0 .22 0 .33.01s.22.01.32.01h.19c.13 0 .22.01.27.03.06.02.09.09.09.2l.13 2.37c-.07.03-.12.05-.14.06-.03.01-.07.02-.14.02-.1 0-.17-.01-.23-.02-.16-.3-.32-.54-.46-.73-.14-.19-.27-.35-.39-.48s-.23-.23-.34-.33c-.11-.09-.24-.19-.38-.29-.18-.14-.48-.23-.9-.27-.07 0-.21 0-.42-.01s-.54-.01-.98-.01c-.36 0-.64 0-.83.01-.18.01-.3.02-.34.03-.07 0-.1.01-.1.04s-.01.15-.04.36c0 .05 0 .13-.01.23l-.02.39s-.01.36-.01.59v2.24h.36c.24 0 .46-.01.67-.03.21-.02.38-.06.51-.1.21-.06.42-.15.61-.29.2-.13.35-.28.46-.45.04-.07.08-.21.13-.42s.08-.36.1-.46c.09-.04.2-.06.34-.06.13 0 .22.02.27.08l-.06.89c-.03.38-.04.83-.04 1.33 0 .12.01.28.01.47l.02.58.03.58c0 .19.01.34.01.45-.06.03-.1.05-.14.06s-.09.02-.16.02c-.08 0-.18-.02-.29-.04-.05-.45-.14-.83-.25-1.13s-.35-.53-.73-.69c-.21-.08-.4-.14-.59-.17s-.37-.04-.56-.04c-.11 0-.23.01-.34.01l-.35.03v2.73c0 .6.04 1.01.13 1.22.05.1.12.21.23.35.12.13.25.21.4.24.07.01.18.03.33.04.15.02.36.02.64.02h1.5c.19 0 .4-.01.63-.03.22-.02.38-.06.48-.14.1-.06.22-.16.38-.313s.31-.335.48-.538c.17-.2.32-.42.47-.66.15-.24.26-.48.35-.72.07-.03.12-.04.17-.05.04-.01.09-.018.15-.018.1 0 .2.03.29.08v2.75c0 .12-.04.2-.12.24zM81.04 8.5c0 .027-.004.066-.01.115-.01.05-.025.095-.054.137-.266.014-.518.062-.756.146s-.448.214-.63.39c-.183.174-.325.408-.43.702s-.158.65-.158 1.07l-.02 5.356c0 .056.003.178.01.367.007.188.018.402.03.64s.025.477.032.715c.008.238.01.434.01.588-.07.056-.145.098-.23.126s-.146.042-.188.042-.133-.056-.272-.168l-7.35-7.917.083 1.61.02 2.92c0 .11.006.28.02.52.014.23.035.45.063.65.027.32.087.56.18.71.09.15.205.28.345.4.195.15.426.26.692.32.266.06.504.11.714.13.05.08.07.16.07.23 0 .03-.01.06-.02.11s-.03.1-.06.15h-.8c-.33 0-.64 0-.93-.01-.28-.01-.61-.01-.97-.01-.23 0-.49.01-.77.02s-.54.02-.77.02h-.33c-.03-.08-.04-.16-.04-.23 0-.03.01-.06.01-.1s.03-.1.06-.17c.13-.02.27-.04.43-.08.16-.03.32-.08.47-.15.16-.07.3-.14.43-.22s.24-.18.33-.28c.07-.14.12-.32.14-.55.02-.23.03-.46.03-.72v-3.7c0-.31-.01-.56-.01-.76l-.04-.74c-.01-.48-.13-.86-.35-1.14-.03-.03-.09-.1-.19-.21-.1-.11-.21-.23-.33-.34-.11-.11-.29-.21-.53-.3s-.46-.16-.64-.23c-.03-.05-.05-.09-.05-.14s-.01-.08-.01-.1c0-.1.02-.19.06-.28h.27c.06 0 .16 0 .32.01.15.01.33.01.54.02l.68.02c.24 0 .46.01.67.01h.5c.14.05.25.12.34.21l5.44 5.94.66.75c.23.26.42.49.58.69v-4.27c0-.3 0-.54-.02-.74-.01-.2-.03-.35-.04-.46-.04-.45-.15-.82-.31-1.11-.04-.07-.13-.13-.26-.19s-.28-.11-.45-.15-.34-.08-.52-.11-.34-.05-.47-.08c-.042-.11-.062-.22-.062-.32 0-.08.02-.16.044-.23h.31c.25 0 .56.02.91.04.36.02.66.04.91.04.31 0 .57-.01.79-.01.22-.01.41-.01.58-.01s.32 0 .46-.01.29-.01.44-.01h.4c.05.08.07.17.07.25zm13.29 5.124c0 .49-.072.994-.22 1.512-.146.518-.367.994-.66 1.428-.294.393-.6.725-.913.998-.316.272-.673.486-1.07.64-.4.154-.846.267-1.335.336-.49.07-1.05.105-1.68.105-.253 0-.59-.007-1.01-.02-.42-.016-.888-.022-1.406-.022-.56 0-1.02.01-1.376.02-.357.01-.647.01-.872.01-.223 0-.405.01-.545.01s-.272.01-.398.01h-.253c-.042-.08-.063-.17-.063-.25 0-.03 0-.06.01-.1s.02-.1.05-.17c.53-.02.91-.08 1.15-.18s.41-.23.52-.43c.03-.04.07-.18.13-.41.06-.23.09-.59.09-1.08v-2.42c0-1.12-.02-1.93-.05-2.44-.03-.51-.05-.84-.07-1l-.06-.47c-.03-.16-.1-.3-.21-.43-.11-.13-.29-.23-.52-.32-.23-.08-.56-.12-.98-.12l-.04-.16c-.02-.05-.02-.1-.02-.14 0-.07.03-.15.08-.25h.75c.2 0 .41 0 .64.01.23.01.44.01.62.01.13 0 .34-.01.62-.02s.61-.03.97-.04c.36-.02.72-.03 1.09-.05s.7-.02 1-.02c.71 0 1.35.08 1.92.22.57.15 1.05.34 1.46.56.45.23.83.52 1.15.86.32.35.59.74.81 1.15.22.41.38.85.48 1.31.11.46.16.92.16 1.37zm-2.266-.106c0-.854-.13-1.586-.39-2.194-.258-.61-.682-1.13-1.27-1.564-.406-.308-.857-.544-1.354-.705-.497-.16-1.074-.24-1.732-.24-.196 0-.343.007-.44.02-.1.014-.218.035-.357.062l-.02.148v7.266c0 .59.11 1 .32 1.22.16.17.31.3.48.38.16.09.36.13.6.13.67 0 1.25-.1 1.74-.29.49-.19.92-.52 1.28-.96.38-.43.67-.91.86-1.45.2-.53.3-1.13.3-1.8zm12.537 2.226c0 .477-.1.91-.3 1.303s-.47.725-.81.997c-.33.273-.72.483-1.16.63-.44.147-.9.22-1.39.22-.43 0-.87-.065-1.31-.198-.44-.133-.81-.276-1.1-.43-.04-.03-.1-.05-.19-.064-.08-.014-.14-.02-.18-.02-.07 0-.17.034-.31.103-.14.07-.29.168-.46.294-.12 0-.25-.03-.37-.09s-.2-.14-.24-.23c0-.11.04-.3.1-.57.07-.27.1-.51.1-.72 0-.06 0-.17-.01-.33l-.02-.51-.03-.5s-.02-.28-.02-.35c.11-.15.27-.23.46-.23.07 0 .13.01.17.02.06.1.12.24.2.42l.24.57c.09.19.17.39.27.57.09.19.18.34.26.45.33.38.7.65 1.14.83.44.17.83.26 1.18.26.8 0 1.36-.17 1.68-.5.24-.24.4-.45.48-.62.07-.18.11-.39.11-.64 0-.39-.1-.71-.29-.95-.13-.17-.26-.3-.41-.4-.15-.1-.37-.23-.68-.38-.11-.06-.29-.12-.52-.19l-.74-.23c-.26-.09-.52-.17-.77-.25s-.45-.17-.61-.26c-.36-.17-.64-.34-.85-.5-.2-.16-.4-.34-.6-.54-.22-.28-.37-.59-.46-.94s-.13-.66-.13-.95c0-.42.08-.81.23-1.17.16-.36.38-.67.66-.93s.63-.46 1.02-.61c.39-.15.82-.22 1.28-.22.37 0 .77.04 1.21.11.44.08.86.28 1.27.6.08-.1.18-.2.28-.29.1-.1.21-.19.33-.29.15 0 .28.03.37.09.1.06.16.12.17.18-.01.13-.05.33-.09.61s-.07.55-.07.82c0 .07.01.18.03.33l.07.47c.03.16.04.31.06.45s.02.23.02.27l-.18.1c-.06.03-.14.05-.22.05-.04 0-.1-.02-.19-.04-.15-.26-.3-.56-.43-.92s-.28-.65-.45-.89c-.24-.32-.53-.55-.87-.69-.34-.14-.74-.21-1.19-.21-.52 0-.96.14-1.33.44s-.55.66-.55 1.11c0 .43.14.76.42.99.28.23.56.41.86.53l.72.27c.26.09.54.19.85.29.82.26 1.37.47 1.66.63.6.31 1.04.68 1.31 1.13.28.45.41.99.41 1.62z" fill="#FFF" stroke="#FFF" stroke-width=".5" stroke-miterlimit="10"/>
</svg>
