<svg width="440" height="100" xmlns="http://www.w3.org/2000/svg">
  <g fill-rule="nonzero" fill="none">
    <rect fill="#EF7622" width="95.782" height="100" rx="12.24"/>
    <g fill="#FFF">
      <path d="M10.746 86.082V20.773a20.265 20.265 0 0 0 6.575-3.144v61.65h.409c1.184 0 2.365-.13 3.522-.392a37.058 37.058 0 0 0 7.602-2.567c1.238-.557 2.445-1.165 3.662-1.763a16.92 16.92 0 0 1 5.707-1.763 11.41 11.41 0 0 1 6.146.876c.85.376 1.62.923 2.265 1.608.545.57.928 1.283 1.107 2.062 0 .062 0 .114.06.206.06.093.05-.072.05-.092.168-.831.571-1.592 1.158-2.186a7.54 7.54 0 0 1 3.162-1.959 11.612 11.612 0 0 1 4.41-.567c2.237.136 4.424.743 6.426 1.784a67.074 67.074 0 0 0 5.986 2.742 32.931 32.931 0 0 0 6.206 1.794 13.85 13.85 0 0 0 2.684.237h.33v-.103-.072-.217-61.03a.543.543 0 0 1 0-.073v-.072a20.902 20.902 0 0 0 6.594 2.887v65.463H10.746z"/>
      <path d="M24.774 33.711a74.7 74.7 0 0 1 .17-16.185l.408.206c1.52.827 3.151 1.414 4.84 1.742 3.04.578 6.18.054 8.89-1.484a19.335 19.335 0 0 0 4.988-4.052 26.127 26.127 0 0 0 3.542-4.98l.12-.195.209.36a25.06 25.06 0 0 0 5.667 6.939 15.165 15.165 0 0 0 6.336 3.299c2.429.55 4.957.408 7.313-.413 1-.335 1.971-.756 2.904-1.257l.249-.134h.12a74.69 74.69 0 0 1 .16 16.04H24.782M35.619 62.237a52.132 52.132 0 0 1-5.248-8.948l17.38-17.97 17.331 17.939a48.529 48.529 0 0 1-5.248 8.948l-6.036-6.185-6.057-6.258L35.62 62.237"/>
    </g>
    <path d="M118.43 29.134h-2.992V4.052h8.61c2.66 0 4.656.756 5.986 2.268a7.784 7.784 0 0 1 1.916 5.154 7.344 7.344 0 0 1-2.085 5.35 7.343 7.343 0 0 1-5.468 2.063h-5.886l-.08 10.247zm0-12.783h5.588a4.652 4.652 0 0 0 3.472-1.33 4.788 4.788 0 0 0 1.317-3.516 5.259 5.259 0 0 0-1.177-3.34 4.088 4.088 0 0 0-3.392-1.474h-5.807v9.66zM139.533 29.134h-2.794V10.577h2.455v4.34a9.298 9.298 0 0 1 2.604-3.979 4.638 4.638 0 0 1 2.674-.907c.366.005.733.03 1.097.072v2.753H145a4.852 4.852 0 0 0-3.84 1.783 7.364 7.364 0 0 0-1.637 4.68l.01 9.815zM152.863 4.052v3.164h-2.994V4l2.994.052zm-.09 6.525v18.557h-2.794V10.577h2.794zM173.735 29.134h-2.614V17.206a4.923 4.923 0 0 0-1.087-3.618 3.645 3.645 0 0 0-2.634-1.031 4.466 4.466 0 0 0-3.582 1.763 7.093 7.093 0 0 0-1.447 4.65v10.174h-2.794V10.588h2.594V14c1.457-2.619 3.35-3.928 5.678-3.928a5.488 5.488 0 0 1 3.422 1.031 5.673 5.673 0 0 1 1.935 2.412c.438 1.577.616 3.218.53 4.856v10.763zM191.166 22.629l2.524.464a8.41 8.41 0 0 1-2.365 4.814 6.99 6.99 0 0 1-5.34 1.693c-1.929-.208-3.692-1.217-4.887-2.796a11.917 11.917 0 0 1-1.995-6.917 11.608 11.608 0 0 1 2.055-7.031c1.301-1.835 3.397-2.886 5.598-2.804a6.28 6.28 0 0 1 4.699 1.814 8.213 8.213 0 0 1 2.195 4.68l-2.524.495c-.473-3.065-1.903-4.598-4.29-4.598-1.46-.036-2.823.755-3.553 2.062a9.97 9.97 0 0 0-1.247 5.268c-.104 1.93.325 3.85 1.237 5.536.723 1.264 2.053 2.022 3.473 1.98 2.334-.021 3.808-1.574 4.42-4.66zM210.611 23.598l2.594.546a7.538 7.538 0 0 1-2.773 3.938 7.805 7.805 0 0 1-4.86 1.557c-2.285.09-4.486-.896-5.986-2.68-3.065-4.206-3.028-10.011.09-14.175 1.497-1.794 3.695-2.797 5.987-2.732 2.159-.087 4.24.837 5.667 2.515 1.43 1.677 2.161 4.189 2.195 7.536h-13.06c0 2.804.568 4.698 1.706 5.68a5.46 5.46 0 0 0 3.611 1.475c2.288 0 3.898-1.22 4.83-3.66zm-.16-5.64a8.31 8.31 0 0 0-.498-2.772 4.722 4.722 0 0 0-1.567-2.062 4.196 4.196 0 0 0-2.654-.856 4.657 4.657 0 0 0-3.532 1.546 6.495 6.495 0 0 0-1.626 4.124l9.878.02zM226.914 27.165v2.278a19.19 19.19 0 0 1-2.564.206c-3.472 0-5.208-1.876-5.208-5.628V12.835h-3.183v-2.258h3.183l.13-4.67 2.594-.258v4.928h3.99v2.258h-3.99v11.66c0 1.91.96 2.866 2.883 2.866a13.23 13.23 0 0 0 2.165-.196zM237.091 29.65c-2.258.1-4.417-.962-5.767-2.836a11.606 11.606 0 0 1-2.075-7.02 10.34 10.34 0 0 1 2.325-7.083c1.46-1.723 3.58-2.693 5.797-2.65 2.27-.096 4.45.94 5.856 2.784a11.08 11.08 0 0 1 2.145 6.96 10.647 10.647 0 0 1-2.314 7.092c-1.481 1.806-3.677 2.819-5.967 2.752zm.21-2.392a4.391 4.391 0 0 0 3.572-1.815c.957-1.216 1.436-3.103 1.436-5.66 0-2.556-.505-4.422-1.516-5.597a4.563 4.563 0 0 0-3.542-1.732 4.398 4.398 0 0 0-3.522 1.752c-.958 1.169-1.44 3.02-1.447 5.557 0 2.68.482 4.601 1.447 5.763a4.444 4.444 0 0 0 3.582 1.732h-.01zM264.968 29.134h-2.564V17.206a4.923 4.923 0 0 0-1.088-3.618 3.645 3.645 0 0 0-2.634-1.031 4.456 4.456 0 0 0-3.582 1.763 7.093 7.093 0 0 0-1.446 4.65v10.174h-2.794V10.588h2.564V14c1.457-2.619 3.35-3.928 5.677-3.928a5.488 5.488 0 0 1 3.422 1.031 5.673 5.673 0 0 1 1.936 2.412c.437 1.577.615 3.218.529 4.856l-.02 10.763zM296.217 4.052h2.524v16.381c0 3.285-.778 5.643-2.335 7.072a8.71 8.71 0 0 1-6.126 2.144c-2.807 0-4.889-.735-6.246-2.206-1.356-1.47-2.022-3.807-1.995-7.01V4.052h2.993v16.381c-.1 1.41.126 2.822.659 4.124a3.96 3.96 0 0 0 1.995 1.763 7.022 7.022 0 0 0 2.794.567 5.624 5.624 0 0 0 4.27-1.526c.971-1.017 1.457-2.66 1.457-4.928l.01-16.381zM319.414 29.134H316.8V17.206a4.923 4.923 0 0 0-1.088-3.618 3.645 3.645 0 0 0-2.634-1.031 4.456 4.456 0 0 0-3.581 1.763 7.093 7.093 0 0 0-1.447 4.65v10.174h-2.744V10.588h2.594V14c1.457-2.619 3.35-3.928 5.677-3.928A5.488 5.488 0 0 1 317 11.103a5.673 5.673 0 0 1 1.935 2.412c.437 1.577.616 3.218.529 4.856l-.05 10.763zM329.122 4.052v3.164h-2.993V4l2.993.052zm-.09 6.525v18.557h-2.773V10.577h2.773zM348.997 10.577l-6.206 18.557h-2.874l-6.435-18.557h3.103l4.989 15.083 4.988-15.083zM364.781 23.598l2.594.546a7.538 7.538 0 0 1-2.774 3.938 7.805 7.805 0 0 1-4.859 1.557c-2.285.09-4.486-.896-5.986-2.68-3.066-4.206-3.029-10.011.09-14.175 1.497-1.794 3.695-2.797 5.986-2.732 2.16-.087 4.241.837 5.667 2.515 1.43 1.677 2.162 4.189 2.195 7.536h-13.07c0 2.804.569 4.698 1.706 5.68a5.46 5.46 0 0 0 3.612 1.475c2.288 0 3.901-1.22 4.839-3.66zm-.16-5.64a8.29 8.29 0 0 0-.499-2.772 4.732 4.732 0 0 0-1.566-2.062 4.205 4.205 0 0 0-2.654-.856 4.657 4.657 0 0 0-3.532 1.546 6.495 6.495 0 0 0-1.626 4.124l9.877.02zM375.906 29.134h-2.754V10.577h2.454v4.34a9.298 9.298 0 0 1 2.604-3.979 4.638 4.638 0 0 1 2.674-.907c.29 0 .649 0 1.108.072v2.753h-.569a4.852 4.852 0 0 0-3.841 1.783 7.364 7.364 0 0 0-1.636 4.68l-.04 9.815zM384.127 24.32l2.664-.567c.592 2.336 2.464 3.505 5.617 3.505a5.196 5.196 0 0 0 2.993-.804 2.588 2.588 0 0 0 1.208-2.279c0-1.457-1.025-2.381-3.073-2.773l-3.782-.742a6.822 6.822 0 0 1-3.542-1.732 4.543 4.543 0 0 1-1.317-3.402 4.971 4.971 0 0 1 1.796-3.907 7.076 7.076 0 0 1 4.84-1.567c3.897 0 6.302 1.573 7.213 4.721l-2.564.567c-.732-1.938-2.242-2.907-4.53-2.907a4.97 4.97 0 0 0-2.804.722 2.296 2.296 0 0 0-1.097 2.061c0 1.375.931 2.238 2.793 2.588l3.502.65c3.665.687 5.498 2.522 5.498 5.505.038 1.631-.71 3.176-1.996 4.123a8.69 8.69 0 0 1-5.447 1.578c-4.29-.007-6.948-1.787-7.972-5.34zM407.574 4.052v3.164h-2.994V4l2.994.052zm-.09 6.525v18.557h-2.794V10.577h2.794zM422.44 27.165v2.278a19.2 19.2 0 0 1-2.564.206c-3.472 0-5.208-1.876-5.208-5.628V12.835h-3.183v-2.258h3.183l.13-4.67 2.593-.258v4.928h3.991v2.258h-3.99v11.66c0 1.91.96 2.866 2.883 2.866a13.24 13.24 0 0 0 2.165-.196zM439.062 10.577L431.86 31.31c-1.045 2.99-2.708 4.485-4.99 4.485a8.588 8.588 0 0 1-2.404-.382v-2.257c.611.156 1.237.243 1.866.257a3.256 3.256 0 0 0 2.235-.793c.599-.53 1.194-1.815 1.786-3.856l-6.216-18.175h2.834l4.819 13.948 4.909-13.948 2.364-.01zM115.737 44.443h7.403v42.361h21.95v6.711h-29.353zM161.244 44.443h7.373v49.072h-7.334zM187.434 44.443h17.25c8.87 0 13.41 5.557 13.41 12.371.25 4.313-2.414 8.233-6.425 9.454 6.355 1.516 9.708 6.186 9.708 12.485 0 8.443-5.448 14.793-15.435 14.793h-18.508V44.443zm16.902 19.124c4.4 0 6.495-2.526 6.495-6.186s-1.996-6.185-6.635-6.185h-9.359v12.371h9.499zm1.197 23.237c5.727 0 8.45-3.464 8.45-8.371s-2.933-8.371-8.8-8.371h-10.346v16.742h10.696zM270.066 93.515h-8.52l-8.521-12.917a37.003 37.003 0 0 1-3.991.289h-4.47v12.628h-7.403V44.443h11.873c13.13 0 20.464 7.072 20.464 18.33 0 7.578-3.283 12.773-9.499 15.588l10.067 15.154zM248.765 74.32c9.428 0 13.2-4.258 13.2-11.547 0-7.288-3.911-11.618-13.2-11.618h-4.19V74.32h4.19zM302.882 43.938h.838l20.812 49.577h-7.682l-2.714-6.917h-21.73l-2.724 6.928h-7.124l20.324-49.588zm8.59 36.227l-5.986-15.299a75.732 75.732 0 0 1-2.375-7.289 67.695 67.695 0 0 1-2.305 7.289l-5.986 15.299h16.652zM372.374 93.515h-8.52l-8.522-12.917a37.003 37.003 0 0 1-3.99.289h-4.47v12.628h-7.404V44.443h11.873c13.13 0 20.464 7.072 20.464 18.33 0 7.578-3.283 12.773-9.498 15.588l10.067 15.154zM351.072 74.32c9.429 0 13.2-4.258 13.2-11.547 0-7.288-3.911-11.618-13.2-11.618h-4.19V74.32h4.19zM401.498 78l-18.02-33.557h8.172l10.755 20.206a53.22 53.22 0 0 1 2.864 7.073 66.495 66.495 0 0 1 2.863-7.073l10.407-20.206h7.612l-17.25 33.124v15.948h-7.403V78z" fill="#FFF"/>
  </g>
</svg>
