<svg xmlns="http://www.w3.org/2000/svg" width="250.353" height="52.835" viewBox="0 0 250.353 52.835">
  <g fill="#F58025">
    <path d="M49.74 10.073V9.84h-.057c-.422-1.552-1.907-2.702-3.68-2.702V9.84h-.007l.093 39.1s-5.51-1.78-10.49-3.946c-5.75-2.503-10.35.22-10.77.484v.024l-.02-.013-.03.01v-.03c-.42-.27-5.02-2.99-10.77-.49-4.98 2.17-10.49 3.94-10.49 3.94l.09-39.1H3.6v-2.9C1.85 6.93.393 8.18.07 9.84H.004v.624c0 .023-.004.046-.004.07s.004.046.004.07V52.68H49.74V11.408c.042-.216.068-.44.068-.667s-.026-.45-.068-.66z"/>
    <path d="M12.514 31.94c1.148 2.057 2.473 4.022 3.943 5.882l8.436-8.205 8.46 8.225c1.46-1.84 2.776-3.8 3.94-5.865l-12.4-11.933-12.38 11.897zM42.78 6.72c-1.452.44-2.998.683-4.6.683-5.66 0-10.608-2.977-13.272-7.403-2.672 4.426-7.617 7.403-13.276 7.403-1.6 0-3.146-.242-4.596-.68-.378 4.318-.105 8.583.755 12.685H42c.892-4.278 1.14-8.54.78-12.688"/>
  </g>
  <path d="M85.082 51.398c-.076 1.088-.153 1.203-.84 1.203-.803 0-5.808.12-11.004.12-2.98 0-5.31-.04-7.717-.04-1.64 0-3.2.12-4.54.12h-.76c-.07-.15-.11-.31-.11-.46 0-.19.08-.35.12-.5.92-.27 2.56-.66 3.52-1.12.31-.54.5-1.71.54-3.1 0-.66.04-2.52.04-5.6 0-1.24-.07-4.89-.19-10.06-.04-1.98-.11-3.81-.23-4.19-.19-.58-.49-1.24-1.26-1.59-.61-.15-1.49-.12-2.41-.35-.07-.15-.11-.39-.11-.58 0-.27.08-.27.19-.43l12.08-.04c.12.08.16.28.16.47 0 .19-.04.39-.15.5-1.75.08-3.93.04-3.93 2.96v4.74l.27 14.92c0 .74.69 1.83 1.22 2.3.77.66 1.99.97 3.63.97 2.22 0 4.17-.43 5.89-1.32 2.14-1.13 3.43-3.58 4.54-6.3.19-.08.38-.12.58-.12.31 0 .38.04.61.19.04 1.48.04 3.34.04 3.81 0 1.13-.04 2.33-.11 3.54zm16.16 1.282h-1.26c-1.26 0-4.09-.117-4.66-.117-1.986 0-4.66.194-6.188.194h-.65c0-.194-.075-.194-.075-.504 0-.156.03-.43.11-.584 2.79-.2 3.24-.9 3.7-1.29.27-.51.46-1.4.53-2.33.04-1.36.11-4.28.11-5.41 0-2.26-.04-4.9-.08-6.84-.04-3.58-.08-5.56-.12-6.3-.15-2.1-.81-2.96-1.26-3.31-.27-.2-1.11-.39-2.98-.55-.04-.2-.08-.35-.08-.51 0-.35.07-.35.19-.51h.84c1.68.04 4.28.15 5.08.15 1.3 0 3.9-.2 5.5-.2h1.1c.08.07.19.23.19.46 0 .15-.04.35-.11.5-1.22.15-2.68.31-3.4 1.01-.27.23-.69 1.05-.69 2.1v9.87c0 3.61.04 7.85.08 9.72.26 1.39.68 2.25 1.3 2.99.68.15 2.25.31 2.82.35.08.15.11.35.11.54 0 .15-.04.31-.15.5zm28.005-1.788c-1.604 1.633-3.477 1.904-6.036 1.865l-10.85-.156c-1.03 0-3.2.08-4.27.08-.72 0-1.41 0-1.56-.04-.07-.15-.11-.34-.11-.5s.04-.31.19-.58c2.22 0 3.9-.42 4.05-1.01.23-.81.46-2.17.58-3.42.04-1.05.12-4.58.12-8.2 0-3.26-.19-9.01-.23-9.4-.03-.58-.11-1.24-.22-1.75-.19-.73-.72-1.59-1.79-1.74-.92-.11-2.14-.27-2.71-.35-.07-.23-.11-.35-.11-.5 0-.23.04-.23.15-.43.19-.04.61-.04.92-.04h7.91c2.33 0 4.51-.11 5.96-.11 1.99 0 3.48.27 4.55.82 2.37 1.21 3.48 3.31 3.48 6.3 0 2.45-.88 4.24-2.37 4.98-.49.24-1.72.62-2.37.82-.19.04-.65.16-.65.31 0 .24.62.28 1.04.36.58.12 2.26.47 2.68.66.65.27 2.14 1.32 2.83 2.72.61 1.17.92 2.49.92 3.97 0 2.21-.69 4.04-2.02 5.4zm-3.323-8.937c-1.375-2.137-2.79-2.603-5.578-3.147-.688-.116-1.758-.27-3.21-.27-.992 0-1.603.038-1.72.193-.037.08-.075.59-.075 1.4v7.15c0 1.17.08 1.48.16 1.95.46.9 1.26 1.67 2.26 2.26.38.08 1.38.12 1.91.12 2.83 0 3.78-.46 5.2-1.63 1.23-1.13 1.87-2.8 1.87-5.17 0-1.08-.26-2.06-.8-2.83zM123.86 28.2c-.764-1.244-1.91-1.904-3.477-2.215-.688-.156-1.604-.234-2.75-.234-.65 0-1.338.04-2.062.04-.07 1.29-.15 6.3-.15 6.3-.04 1.44-.04 2.49-.04 3.23 0 1.17.08 1.95.16 2.02.08.08.54.08 1.26.08 2.07 0 5.31-.46 5.89-.85.23-.15.5-.43.81-.85.92-1.24 1.41-2.6 1.41-4 0-1.28-.38-2.48-1.03-3.49zm36.945 24.518h-4.28c-1.45 0-2.215-.078-2.52-.117-.726-.07-1.03-.77-1.146-1.59-.39-2.83-1.19-6.56-2.41-8.51-.92-1.44-2.22-2.48-3.67-3.14-1-.46-2.03-.54-3.06-.54-.31 0-.69 0-1 .04l.04 9.75c0 1.36.68 2.3 1.64 2.76.42.08 1.37.31 2.14.39.07.16.15.31.15.58 0 .16-.08.27-.15.43-2.18 0-3.1-.11-5.54-.11-1.23 0-5.92.12-6.46.12-.08-.19-.16-.35-.16-.46 0-.19.07-.35.19-.54.76-.04 1.68-.19 2.18-.27 1.1-.46 1.45-1.63 1.56-2.6.19-1.48.15-6.45.15-10.42 0-5.48-.04-8.97-.23-10.22-.38-.85-.69-1.4-1.61-2.1-.61-.11-1.8-.27-2.45-.35-.04-.15-.08-.38-.08-.54 0-.15.07-.23.19-.5.23 0 1.68.08 2.25.08 1.34 0 3.52.08 4.09.08 1.91 0 4.24-.27 7.11-.27 2.02 0 3.66.15 4.58.43 2.79.9 4.77 3.89 4.77 7.04 0 2.1-.84 3.85-2.37 5.02-.73.58-1.38 1.05-4.21 1.4-.73.08-.99.12-1.57.24.46.2.95.39 1.57.63 1.34.46 2.33.97 2.67 1.28.91.85 2.02 2.72 2.82 4.66.58 1.48 1.11 3.07 1.61 4.86.15.27.46.74.65.97.57.43 2.14.5 2.52.5.11.16.19.39.19.59 0 .2-.08.35-.23.51zm-9.4-24.713c-1.298-1.904-2.94-2.254-6.532-2.254-.954 0-1.795.12-1.947.24-.153.12-.27.39-.27.9v7.35l.04 3.38c.572.08 1.145.08 1.603.08 1.72 0 3.05-.11 3.97-.31 2.25-.5 4.2-3.26 4.2-5.75 0-1.36-.35-2.56-1.07-3.61zM192.4 52.718c-2.483 0-4.28-.117-6.647-.117-1.452 0-3.133.08-3.782.08h-1.72c-.19-.15-.26-.35-.26-.5 0-.15.04-.27.23-.5 1.49-.08 2.41-.23 2.94-.5.35-.39.58-1.12.58-1.9-.15-.58-.57-1.86-1.1-3.45-.3-.93-.69-1.94-.95-2.6-.15-.27-.45-.89-.76-1.12-3.51 0-6.49 0-9.17.12-.23.43-.27.66-.53 1.44l-1.56 5.13c.15 1.29.76 2.14 1.3 2.65.34.16 1.33.31 2.29.39.11.19.19.31.19.47 0 .15-.04.27-.15.5h-1.04c-1.37 0-2.83-.16-4.28-.16-1.33 0-3.28.08-4.08.08-.12-.19-.15-.23-.15-.42 0-.15.08-.35.12-.54 1.64-.46 3.25-.89 3.82-2.29 1.11-2.84.99-2.49 2.75-7.42 1.8-5.05 3.1-8.51 3.9-10.53 1.03-2.48 1.61-3.88 1.72-4.16.46-1.28.84-2.1 1.19-2.41.23-.27.61-.39.91-.39.38 0 .69.16.92.47.08.12.23.59.34.9l1.68 4.24 5.54 14.45c.69 1.79 1.23 2.99 1.84 4.55.31.78.73 1.67.96 1.86.19.15 2.03.7 3.02.85.08.16.19.31.19.47 0 .16-.07.31-.19.43zm-12.493-14.105c-.61-1.71-1.87-5.13-2.56-6.878-.267-.66-.61-1.437-.917-2.06-.65 1.438-1.185 2.682-2.14 5.246-1.03 2.76-1.947 5.48-2.1 6.03h5.31c1.07 0 2.33-.04 3.094-.15-.228-.81-.38-1.32-.687-2.17zm41.72 14.105h-4.278c-1.46 0-2.22-.078-2.53-.117-.73-.07-1.03-.77-1.15-1.59-.38-2.83-1.19-6.56-2.41-8.51-.92-1.44-2.22-2.48-3.67-3.14-1-.46-2.03-.54-3.06-.54-.31 0-.69 0-1 .04l.04 9.75c0 1.36.69 2.3 1.64 2.76.42.08 1.37.31 2.14.39.07.16.15.31.15.58 0 .16-.08.27-.16.43-2.18 0-3.1-.11-5.54-.11-1.22 0-5.92.12-6.46.12-.08-.19-.15-.35-.15-.46 0-.19.07-.35.19-.54.76-.04 1.68-.19 2.18-.27 1.1-.46 1.45-1.63 1.56-2.6.19-1.48.15-6.45.15-10.42 0-5.48-.04-8.97-.23-10.22-.38-.85-.69-1.4-1.6-2.1-.61-.11-1.8-.27-2.45-.35-.04-.15-.07-.38-.07-.54 0-.15.07-.23.19-.5.23 0 1.68.08 2.25.08 1.34 0 3.51.08 4.09.08 1.91 0 4.24-.27 7.1-.27 2.02 0 3.66.15 4.58.43 2.79.9 4.77 3.89 4.77 7.04 0 2.1-.84 3.85-2.37 5.02-.72.58-1.37 1.05-4.2 1.4-.73.08-.99.12-1.57.24.45.2.95.39 1.56.63 1.34.46 2.33.97 2.67 1.28.91.85 2.02 2.72 2.82 4.66.57 1.48 1.11 3.07 1.6 4.86.15.27.46.74.65.97.57.43 2.14.5 2.52.5.12.16.19.39.19.59 0 .2-.07.35-.23.51zm-9.398-24.713c-1.3-1.904-2.95-2.254-6.54-2.254-.96 0-1.8.12-1.95.24-.16.12-.27.39-.27.9v7.35l.03 3.38c.57.08 1.14.08 1.6.08 1.72 0 3.05-.11 3.97-.31 2.25-.5 4.2-3.26 4.2-5.75 0-1.36-.34-2.56-1.07-3.61zm37.2-2.525c-.77.194-1.95.426-2.49.777-.77.465-1.91 1.592-2.45 2.603l-5.85 11.85c-.16.313-.27.663-.27 1.05 0 .04-.04.507 0 .973l.34 5.83c.07 1.515.38 1.825.99 2.486.38.38 2.1.62 3.32.77.11.19.15.31.15.5s-.12.35-.19.5c-.69 0-1.68-.04-2.98-.08-2.25-.04-3.78-.08-4.59-.08-1.15 0-3.48.04-5.43.04-.04-.16-.12-.27-.12-.47s.04-.28.19-.55c.88-.08 2.79-.35 3.06-.51.65-.43 1.22-1.32 1.22-3 0-1.98-.08-3.58-.34-4.67-.19-.7-.58-1.68-1.23-2.92l-6.68-13.32c-.27-.51-1.03-.97-3.59-1.6-.12-.2-.15-.31-.15-.47 0-.28.07-.31.23-.59.3 0 2.86.11 4.73.11 4.39 0 3.97-.12 6.53-.12h.69c.11.19.23.12.23.39 0 .16-.04.39-.12.58-1.61.2-2.79.27-3.14.97-.07.16-.15.51-.15 1.01 0 .35.08.89.15 1.05l2.14 4.74c.54 1.16 2.56 5.36 3.56 7.07.61-.86 1.52-2.84 3.28-6.45 1.03-2.14 1.76-3.65 2.1-4.63.19-.51.23-.97.23-1.44 0-.62-.08-1.01-.35-1.52-.31-.54-1.91-.82-3.02-1.05-.04-.12-.08-.27-.08-.47s.04-.24.15-.47c1.03 0 3.4.15 5.35.15.8 0 2.86-.12 4.43-.12.08.15.23.23.23.46 0 .15-.08.31-.15.5zM153.15 7.906c0-.048-.014-.136-.038-.174h-.288c-.625 0-1.025.025-2.147.025-.39 0-.963-.025-1.1-.025h-.325c-.038.025-.05.163-.05.213 0 .063.012.162.06.212.2.062.963.148 1.287.362.22.26.32.78.36 1.27.01.19.02.37.02.89v2.61c0 .3-.01.4-.03.53-.21-.24-.51-.69-1.01-1.25l-4.18-4.63c-.04-.05-.11-.11-.19-.17-.1 0-.28-.02-.38-.02-.8 0-2.25-.04-2.47-.04-.03.05-.05.12-.05.17 0 .02.02.2.04.24.19.05.6.11.94.47.2.22.55.54.66.79.04.08.05.22.05.4 0 .65-.04 1.56-.04 2.43v2.53c0 .41-.04.74-.08.95-.26.27-.66.47-1.31.63-.03.06-.05.16-.05.22 0 .04.01.16.03.18h.24c.24 0 .82-.04 1.19-.04.55 0 .93.03 1.44.03h.75c.05-.01.06-.16.06-.21s-.01-.15-.03-.2c-.44-.12-1.07-.22-1.5-.78-.09-.19-.16-1.12-.16-1.55 0-.4-.02-.95-.02-1.69 0-.99.01-1.85.03-2.29.07.09.16.2.22.27l5.77 6.49c.06.07.29.08.35.08s.1 0 .15-.03c.02-.06.11-.26.11-.56 0-.36-.02-.74-.02-.92v-5.21c0-1.56.73-2 1.6-2.04.04-.06.05-.17.05-.24m-14.32 3.98c0 1.88-.52 3.55-1.24 4.13-.36.3-.81.45-1.33.45-.7 0-1.31-.28-1.66-.84-.48-.73-.74-2.08-.74-3.25 0-1.74.45-3.1 1.25-3.77.43-.35.86-.49 1.3-.49.67 0 1.32.32 1.7.86.47.65.71 1.59.71 2.89m2.26.24c0-1.75-.77-3.09-2.22-3.89-.78-.43-1.55-.64-2.38-.64-1.83 0-3.48 1.09-4.21 2.32-.48.77-.73 1.62-.73 2.52 0 1.44.7 2.85 1.79 3.67.82.6 1.76.9 2.85.9.66 0 1.29-.12 1.9-.36.69-.26 1.27-.67 1.73-1.19.82-.89 1.27-2.03 1.27-3.34m-10.98-1.57v-2.5c0-.19-.08-.24-.27-.24-.38 0-2.35.05-4.35.05-1.55 0-2.84-.03-3.54-.03h-.9c-.16 0-.21.03-.21.21v2.39c.05.03.13.05.2.05.05 0 .22 0 .27-.03.56-1.14 1.08-1.75 1.75-2.09.37-.04 1.11-.06 1.31-.06.01.14.02.57.04 1.1.01.9.01 1.28.01 3.41 0 1.84-.01 2.66-.04 2.86-.05.35.01.61-1.49.67-.04.08-.04.18-.04.28 0 .05 0 .15.01.2h.49c.47 0 1.55-.05 2-.05.36 0 1.53.03 2.29.03h.35c.04-.07.04-.2.04-.27 0-.08-.01-.17-.05-.23-.14 0-.94.02-1.29-.24-.04-.14-.12-.5-.12-.94-.01-1.35-.02-1.86-.02-2.77 0-1.16.01-1.95.01-4.11.17 0 .57-.02.95 0 .77.21 1.15.5 1.48.95.22.29.44.77.67 1.36.08.02.14.02.214.02.05-.01.21-.03.236-.06m-10.77 4.07c0-.18 0-.25-.01-.368-.06-.04-.09-.04-.19-.04-.09 0-.19 0-.28.02-.42.964-1.032 1.714-1.37 1.914-.19.11-.48.14-.94.14h-1.03c-.4 0-.71-.036-.822-.06-.19-.036-.38-.335-.47-.536-.08-.21-.13-.21-.13-.79v-2.7h.46c.126 0 .43.02.764.17.31.14.44.325.56.52.11.18.19.868.21 1.04.06.04.227.05.325.05.1 0 .16-.01.25-.06 0-.334-.08-1.25-.08-1.75 0-.62.09-1.485.123-1.935-.05-.03-.12-.05-.25-.05-.09 0-.25 0-.33.04-.04.17-.18.7-.2.73-.19.32-.52.55-.85.65-.23.07-.55.1-.73.1h-.26v-1.1c0-1.2.03-1.58.04-1.81.01-.15.04-.31.05-.42.11-.01.17-.027.75-.027.72 0 1.06.01 1.17.01.35.024.61.1.8.25.47.362.83.937 1.2 1.55.07.024.19.024.26.024s.08-.02.19-.08c0-.77-.06-1.75-.08-2.07-.02-.12-.04-.16-.29-.16-.1 0-.58-.03-1.08-.03-.71 0-1 .01-2.087.01-.59 0-1.8.01-2.31.01-.75 0-1.39-.03-1.71-.03h-.43c-.04.05-.06.15-.06.2 0 .06.03.2.06.25.15.05.74.04.92.13.174.15.34.21.45.81.03.26.04.98.04 1.56v2.57c0 .52-.01 1.28-.028 1.6-.02.48-.2 1.07-.27 1.18-.11.09-.626.16-1.12.19-.04.08-.06.2-.06.27s.023.16.062.22h.41c.4 0 1.88-.04 2.22-.04.31 0 .91.02 1.64.02.4 0 1.58.07 4.1.07.105 0 .216.01.34-.03.04-.06.04-.09.05-.2.026-.25.026-.99.026-2m-10.58.44c-.04-.12-.14-.3-.43-.3-.023 0-.06.01-.09.01-.75 1.06-1.573 1.46-2.51 1.46-1.3 0-2.224-.88-2.52-1.65-.16-.42-.39-1.32-.39-2.28 0-.91.14-1.65.37-2.19.55-1.45 1.35-1.9 2.33-1.9.812 0 1.49.46 2 1.13.213.28.44.85.64 1.51.05.01.16.04.272.04.075 0 .25-.07.3-.11-.01-.14-.14-1.1-.14-1.4 0-.38.1-.99.1-1.23-.07-.08-.325-.13-.486-.14-.19.13-.25.29-.42.51-.7-.5-1.35-.89-2.77-.89-1.31 0-2.35.45-3.14 1.24-.86.85-1.34 2.02-1.34 3.52 0 1.6.67 2.91 1.76 3.733.69.5 1.7.83 2.91.83 1.53 0 2.64-.57 3.2-1.34.23-.3.25-.38.35-.59M99 7.85c0-.05-.01-.136-.04-.174h-.29c-.623 0-1.022.026-2.15.026-.384 0-.96-.02-1.1-.02h-.32c-.03.025-.05.163-.05.213 0 .06.02.16.07.21.2.064.965.15 1.29.364.227.26.328.78.365 1.27.01.19.025.37.025.89v2.61c0 .3-.01.4-.02.53-.21-.24-.51-.69-1.01-1.25L91.61 7.9c-.038-.05-.11-.11-.19-.16-.1 0-.28-.015-.38-.015-.8 0-2.25-.034-2.46-.034-.026.05-.05.13-.05.18 0 .02.023.2.04.24.185.05.6.11.935.48.2.23.55.54.666.79.04.09.05.23.05.4 0 .65-.04 1.56-.04 2.44v2.53c0 .41-.04.74-.08.95-.26.27-.66.47-1.31.63-.03.06-.05.16-.05.22 0 .04.01.16.03.18H89c.25 0 .826-.04 1.2-.04.55 0 .924.04 1.44.04h.75c.05-.02.06-.17.06-.22s-.01-.15-.035-.2c-.44-.11-1.08-.21-1.5-.78-.09-.19-.166-1.11-.166-1.55 0-.4-.02-.95-.02-1.69 0-.99.01-1.85.02-2.28.07.09.16.2.23.28l5.77 6.49c.06.06.29.08.35.08s.1 0 .15-.02c.03-.07.11-.27.11-.57 0-.36-.01-.74-.01-.92V10.1c0-1.563.74-2 1.6-2.04.04-.06.05-.17.05-.235m-12.35 8.7c0-.063-.02-.202-.04-.25-.19-.013-.7-.063-.93-.113-.2-.24-.34-.514-.42-.96-.01-.6-.03-1.84-.03-3V9.17c0-.338.14-.602.22-.676.24-.225.71-.275 1.11-.325.03-.05.04-.19.04-.24 0-.08-.03-.18-.06-.2h-.36c-.52 0-1.75.06-2.17.06-.26 0-1.49-.04-2.04-.05h-.27c-.04.05-.06.1-.06.21 0 .05.01.17.02.24.61.05.88.11.97.17.15.11.37.39.42 1.06.02.23.03.75.04 1.9.02.62.03 1.5.03 2.22 0 .36-.02 1.17-.04 1.61-.02.3-.08.58-.17.75-.15.12-.3.35-1.21.41-.03.05-.04.21-.04.26 0 .1.03.15.03.21h.21c.5 0 1.75-.06 2.4-.06.18 0 1.48.03 1.89.03h.41c.04-.07.05-.17.05-.22m-10.06-6.5c0 .77-.52 1.66-1.14 1.81-.25.06-.56.1-1.03.1-.13 0-.32 0-.47-.03l-.02-1.06v-2.3c0-.15.04-.24.07-.28.04-.04.26-.08.52-.08.98 0 1.4.08 1.75.67.2.34.29.72.29 1.15m3.63 6.54c0-.06-.02-.21-.06-.26-.12 0-.63-.03-.82-.17-.06-.08-.16-.23-.21-.32-.16-.58-.35-.97-.54-1.44-.26-.63-.62-1.21-.92-1.49-.11-.1-.5-.26-.94-.41-.2-.08-.37-.14-.52-.2.19-.04.27-.05.51-.08.92-.12 1.13-.28 1.37-.47.5-.38.77-.95.77-1.63 0-1.02-.65-1.99-1.568-2.28-.3-.08-.84-.14-1.5-.14-.936 0-2.25.09-2.87.09-.19 0-1.28-.03-1.72-.03-.19 0-.66-.02-.74-.02-.04.09-.06.19-.06.24 0 .05.01.17.02.22.22.02.6.07.81.11.294.22.4.4.52.67.06.4.07 1.43.07 3.19 0 1.27.02 2.75-.05 3.22-.04.31-.15.69-.51.84-.16.02-.46.07-.71.09-.03.06-.06.19-.06.25 0 .04.03.14.05.2.18 0 2.09-.04 2.49-.04.8 0 1.475.04 2.19.04.02-.05.05-.14.05-.19 0-.09-.03-.21-.05-.26-.25-.03-.57-.1-.7-.13-.32-.15-.54-.45-.54-.89V12.4c.1-.01.224-.01.324-.01.16 0 .35.027.66.2.46.26.684.45.985.91.4.63.66 1.78.79 2.69.038.267.14.49.376.517.1.01.77.037 1.24.037h1.79c.06-.05.08-.15.08-.21M66.7 10.11c0 .64-.222 1.2-.64 1.562-.26.214-.67.34-1.294.34-.262 0-.462-.015-.538-.027-.1-.01-.164-.02-.164-.08l.013-3.663c.15-.014.362-.063.724-.063.85 0 1.37.21 1.62.74.18.34.28.76.28 1.2m2.24.05c0-.94-.53-1.81-1.33-2.18-.41-.17-1.14-.29-2.23-.29-.96 0-2.46.08-3.12.08-.46 0-1.16-.05-1.55-.05-.04.06-.06.15-.06.2 0 .05 0 .18.04.25.24.07.62.13.88.2.21.18.26.35.34.71.04.44.06.99.06 1.94 0 2.63-.01 4.02-.05 4.32-.05.37-.3.76-.71.89-.19.04-.46.1-.73.12-.01.06-.02.15-.02.26 0 .1.01.11.04.17.41 0 1.58-.05 2.03-.05 1.11 0 2.25.05 2.71.05h.32c.04-.05.04-.14.04-.2 0-.08 0-.18-.02-.23-.37-.05-.94-.13-1.17-.4-.12-.15-.25-.36-.25-.74l-.04-2.75c.75.05 1.55.07 1.99.07.57 0 1.06-.11 1.45-.23.89-.34 1.44-1.22 1.44-2.18m181.4-2.34c0-.08-.05-.1-.08-.15-.51 0-1.18.04-1.44.04-.64 0-1.41-.05-1.75-.05-.03.07-.05.08-.05.15s.02.11.03.15c.36.07.89.16.99.33.09.16.12.29.12.49 0 .15-.01.3-.07.46-.11.31-.35.8-.69 1.49-.57 1.16-.94 1.88-1.14 2.17-.33-.55-1.05-2-1.23-2.37l-.7-1.53c-.02-.05-.05-.22-.05-.33 0-.16.03-.27.05-.32.12-.22.5-.25 1.03-.31.03-.06.04-.14.04-.19 0-.09-.04-.06-.07-.12h-.22c-.84 0-.59.04-2.02.04-.61 0-1.35-.03-1.45-.03-.05.09-.07.1-.07.19 0 .05.02.09.05.15.84.2 1.09.36 1.18.52l2.17 4.28c.21.4.34.72.4.94.09.35.1.86.1 1.5 0 .54-.19.83-.4.96-.09.05-.71.14-1 .17-.05.09-.06.12-.06.18s.02.1.04.15c.64 0 1.3-.01 1.68-.01.27 0 .67.01 1.4.03.43.01.75.02.98.02.03-.05.07-.1.07-.16s-.01-.1-.05-.16c-.4-.05-.96-.13-1.09-.25-.2-.21-.3-.31-.33-.8l-.1-1.88c-.02-.13.03-.26.05-.3.03-.14.08-.25.14-.35l1.92-3.81c.18-.32.55-.69.8-.84.18-.11.56-.19.81-.25.03-.06.05-.11.05-.16m-10.1 2.57V7.96c0-.188-.07-.237-.26-.237-.37 0-2.1.05-4.1.05-1.55 0-2.59-.025-3.29-.025h-.92c-.16 0-.21.04-.21.214v2.263c.05.038.09.05.15.05.05 0 .1 0 .15-.025.49-1.087.74-1.663 1.58-2.087.38-.037 1.69-.05 1.89-.05.02.137.03.575.04 1.1.01.9.01 1.387.01 3.51 0 1.84-.01 2.79-.03 2.988-.05.36.01.62-1.49.68-.04.09-.04.11-.04.22 0 .05 0 .1.01.15h.49c.46 0 1.07-.05 1.52-.05.36 0 1.05.04 1.81.04h.35c.04-.06.04-.12.04-.18 0-.07-.01-.11-.05-.17-.14 0-.94.03-1.29-.23-.03-.13-.11-.5-.11-.93-.01-1.35-.02-1.99-.02-2.89 0-1.16.01-2.05.01-4.21.17 0 1.1-.01 1.47 0 .78.21 1.08.5 1.42.95.3.4.38.76.56 1.36.08.02.11.02.19.02.05 0 .11-.02.14-.05m-10.39 6.18c0-.06-.01-.12-.04-.17-.19-.01-.7-.06-.92-.11-.2-.23-.34-.51-.42-.96-.01-.6-.02-1.96-.02-3.12v-3.2c0-.33.14-.6.23-.67.24-.22.71-.27 1.11-.32.02-.05.04-.11.04-.16 0-.07-.04-.12-.06-.15h-.36c-.53 0-1.28.07-1.7.07-.266 0-1.02-.03-1.566-.05h-.28c-.04.05-.06.05-.06.17 0 .05.01.1.02.17.61.05.89.11.975.18.15.12.36.39.41 1.07.01.24.02.87.03 2.02.01.63.022 1.48.022 2.2 0 .37-.022 1.3-.04 1.74-.02.31-.082.59-.17.75-.15.13-.3.36-1.21.42-.02.05-.036.13-.036.19 0 .09.026.09.026.16h.21c.5 0 1.27-.07 1.93-.07.19 0 1.015.04 1.43.04h.41c.03-.06.05-.11.05-.16m-6.18-2.3c0-1-.447-1.68-1.41-2.2-.26-.15-.72-.31-1.387-.5-.76-.21-1.4-.46-1.81-.68-.27-.15-.73-.56-.73-1.36s.82-1.46 1.77-1.46c.75 0 1.35.38 1.71.88.31.44.43.64.78 1.43.03.02.08.03.12.03.11 0 .21-.06.27-.12-.04-.31-.1-.75-.1-1.13 0-.32.07-.75.11-.97-.1-.15-.21-.17-.38-.17-.18.11-.34.29-.49.45-.83-.66-1.5-.78-2.13-.78-1.54 0-2.64 1.03-2.64 2.39 0 .46.17.91.47 1.38.28.39.68.69 1.22.91.36.15 1.99.64 2.21.73 1 .39 1.373.73 1.373 1.62 0 .44-.183.83-.55 1.26-.32.4-.84.58-1.39.58-.58 0-1.6-.25-2.093-.93-.3-.39-.72-1.2-.85-1.69-.09-.02-.09-.02-.17-.02-.073 0-.16.03-.24.08 0 .17.05.99.05 1.24 0 .62-.11.91-.136 1.11.04.13.25.25.4.25.26-.22.54-.4.62-.4.07 0 .18.04.3.12.81.52 1.48.62 2.09.62 1.76 0 3.02-.89 3.02-2.62M212.69 10c0 .8-.64 1.7-1.377 1.87-.3.06-.74.1-1.3.1-.15 0-.578 0-.767-.027l-.014-1.1v-2.4c0-.163.04-.25.09-.29.05-.035.56-.073.873-.073 1.174 0 1.71.11 2.136.724.24.34.35.72.35 1.16m2.63 6.62c0-.07-.02-.14-.06-.19-.12 0-.64-.03-.83-.17-.06-.08-.16-.23-.21-.32-.16-.58-.34-1.09-.52-1.56-.26-.63-.62-1.21-.92-1.49-.11-.1-.46-.26-.9-.41-.2-.08-.36-.14-.51-.2.19-.04.28-.05.51-.08.82-.1 1.09-.28 1.33-.47.5-.375.83-.937.83-1.613 0-1.01-.65-1.97-1.56-2.26-.3-.08-.83-.13-1.5-.13-.93 0-1.63.09-2.26.09-.19 0-.8-.02-1.24-.02-.18 0-.66-.03-.73-.03-.03.09-.06.11-.06.16s.01.12.02.17c.22.03.61.08.8.11.31.23.4.4.53.68.06.4.08 1.52.08 3.28 0 1.28.01 2.88-.05 3.35-.04.32-.15.69-.51.84-.16.03-.46.08-.71.09-.03.06-.06.11-.06.18 0 .04.03.09.05.15.18 0 1.61-.04 2.02-.04.8 0 1 .04 1.72.04.03-.05.05-.08.05-.13 0-.09-.02-.14-.05-.19-.25-.03-.56-.1-.7-.13-.31-.15-.53-.45-.53-.89l-.01-3.12c.1-.01.47-.01.57-.01.34 0 .68.02 1 .17.48.21.93.55 1.23 1.01.4.63.66 1.81.79 2.73.04.26.14.48.37.51.1.01.25.03.73.03h1.3c.05-.05.07-.1.07-.16m-10.52-1.91c0-.17 0-.25-.01-.36-.06-.04-.09-.04-.19-.04-.08 0-.07 0-.16.03-.27.92-.75 1.59-1.28 1.92-.19.11-.53.14-1.07.14h-1.4c-.44-.02-.71-.04-.82-.07-.18-.04-.38-.34-.47-.54-.09-.21-.14-.29-.14-.86V12h.4c.4 0 .73.024 1.06.17.31.14.55.34.68.54.11.176.15.86.18 1.04.06.04.1.05.2.05s.11-.013.2-.06c0-.34-.08-1.25-.08-1.75 0-.627.09-1.39.13-1.84-.05-.024-.07-.05-.2-.05-.08 0-.12 0-.2.04-.03.18-.14.7-.16.74-.19.314-.62.565-.96.665-.22.062-.55.1-1.02.1h-.2v-1.23c0-1.2.03-1.687.04-1.913.015-.15.04-.31.05-.423.114-.02.48-.03 1.05-.03.73 0 1.26.01 1.38.01.35.02.61.1.8.25.61.47.77.79 1.11 1.55.07.02.08.02.14.02.077 0 .09-.03.19-.08 0-.76-.05-1.63-.075-1.94-.01-.13-.04-.17-.286-.17-.1 0-.58-.03-1.08-.03-.72 0-1 .01-2.09.01-.59 0-1.63.01-2.14.01-.75 0-.916-.02-1.24-.02h-.427c-.04.05-.06.1-.06.15 0 .06.026.12.06.17.15.05.74.03.91.13.18.15.34.19.458.79.02.26.03 1.11.03 1.69v2.57c0 .52-.01 1.39-.026 1.7-.022.49-.2 1.1-.27 1.21-.12.09-.63.16-1.13.19-.04.07-.06.12-.06.2s.02.11.06.17h.41c.4 0 1.4-.04 1.73-.04.31 0 .74.03 1.46.03.4 0 1.57.08 4.1.08.1 0 .21.01.337-.03.035-.06.035-.09.05-.2.02-.25.02-.86.02-1.88m-9.25-6.82c0-.05-.014-.13-.063-.14h-.425c-.3 0-.78.02-.99.02-1.01 0-1.38-.06-1.53-.06h-.22c-.023.06-.06.1-.06.16 0 .05.02.09.02.14.31.04.59.1.86.19.15.14.31.45.31.78 0 .13-.13.72-.31 1.14l-2.01 4.95-2.47-6.26c.04-.3.2-.59.41-.7.22-.02.48-.1.82-.1.02-.05.05-.13.05-.17 0-.05-.02-.13-.06-.14h-.32c-.38 0-.97.05-1.63.05-.29 0-.85-.03-1.4-.03h-.49c-.026.05-.05.07-.05.15s.01.1.035.15c.35.08.69.22 1.05.42.24.35.75 1.61 1.03 2.27l1.04 2.5c.86 2.07 1.37 3.46 1.43 3.7.06.04 0 .07.11.07s.1-.02.12-.09l3.225-7.75c.11-.28.28-.54.45-.71.2-.23.61-.31.994-.4.02-.05.055-.11.055-.17M184.6 16.5c0-.07-.01-.13-.04-.18-.19-.02-.7-.07-.927-.12-.2-.24-.34-.51-.43-.967-.01-.6-.028-1.96-.028-3.12V9.01c0-.334.14-.6.23-.67.24-.227.71-.276 1.11-.326.03-.05.04-.115.04-.164 0-.075-.04-.125-.06-.15h-.364c-.52 0-1.27.062-1.7.062-.26 0-1.01-.036-1.56-.05h-.27c-.04.05-.07.05-.07.163 0 .05.01.1.03.165.61.05.89.112.98.174.15.113.36.387.41 1.062.01.24.03.876.04 2.025.01.63.02 1.48.02 2.2 0 .37-.03 1.3-.04 1.74-.02.31-.09.59-.18.75-.14.13-.3.36-1.21.42-.02.05-.04.14-.04.19 0 .1.03.1.03.16h.21c.5 0 1.27-.06 1.92-.06.19 0 1.02.04 1.43.04h.42c.04-.06.05-.11.05-.16m-5.65-8.74c0-.05-.01-.09-.03-.12h-.29c-.63 0-.9.03-2.03.03-.39 0-.96-.02-1.1-.02h-.32c-.03.03-.05.11-.05.17 0 .06.02.09.07.14.2.07.96.15 1.29.37.23.26.33.79.36 1.28.02.19.03.38.03.89v3.71c0 .3-.01.4-.02.54-.21-.24-.58-.7-1.06-1.27L171 7.98c-.04-.05-.11-.11-.19-.16-.105 0-.23-.01-.327-.01-.81 0-1.5-.036-1.72-.036-.027.05-.04.075-.04.124 0 .03.01.13.02.166.19.05.74.113.96.35.2.226.5.49.615.74.04.09.05.23.05.4 0 .652-.033 1.84-.033 2.714v2.66c0 .41-.035.74-.072.95-.26.275-.663.475-1.31.64-.03.06-.05.086-.05.15 0 .036.01.11.036.124h.23c.25 0 .82-.04 1.2-.04.55 0 .8.04 1.31.04h.75c.05-.01.06-.11.06-.16s-.01-.08-.04-.127c-.44-.12-1.08-.22-1.5-.78-.09-.19-.16-1.14-.16-1.58 0-.4-.02-1.05-.02-1.786 0-.99.01-2.35.02-2.79.08.09.19.23.28.33l5.92 6.94c.06.06.09.07.15.07s.02 0 .07-.03c.02-.06.06-.26.06-.56 0-.36-.01-.74-.01-.92v-5.32c0-1.57.74-2 1.6-2.04.04-.06.05-.1.05-.16m-11.57.06c0-.05-.03-.13-.06-.16h-.37c-.39 0-.91.02-1.36.02-.5 0-1.07-.03-1.43-.03h-.45c-.04.08-.05.1-.05.16 0 .05.01.1.04.17.05 0 .96.01 1.12.24.14.19.44.65.49.92.02.12.1.63.1 1.37 0 1.06 0 1.77-.01 2.15-.03.7-.1 1.25-.23 1.66-.35 1.09-1.16 1.62-2.45 1.62-.55 0-1.03-.11-1.46-.31-.82-.4-1.2-1.16-1.22-1.58l-.06-3.75-.02-1.53c0-.29.36-.55.49-.7.1-.05.65-.1.96-.13.04-.08.06-.11.06-.18s-.04-.12-.09-.16l-.48.01c-.46.01-1.08.02-1.46.02-.6 0-1.06-.01-1.44-.01h-.53c-.05.03-.06.11-.06.17s.01.11.05.15c.4.05.66.09.84.12.21.12.36.33.44.55.01.16.04.56.04 1.35v3c0 .77.04 1.32.12 1.67.16.65.51 1.16 1.08 1.54.61.4 1.38.6 2.29.6.84 0 1.55-.18 2.15-.52.62-.34 1.01-.89 1.24-1.66.12-.47.2-.96.2-1.49v-2.4c0-.45.02-1.01.02-1.24.01-.68.19-1.08.37-1.38.2-.06.38-.1 1.04-.17.03-.05.05-.09.05-.15" fill="#FFF"/>
</svg>
