<svg xmlns="http://www.w3.org/2000/svg" width="250.354" height="52.835" viewBox="0 0 250.354 52.835">
  <g fill="#231F20">
    <path d="M49.74 10.073v-.23h-.056c-.422-1.554-1.907-2.705-3.68-2.705v2.704h-.006l.093 39.097s-5.51-1.78-10.48-3.95c-5.75-2.51-10.35.22-10.77.48v.02l-.02-.02-.02.01v-.03c-.42-.27-5.02-2.99-10.77-.49-4.99 2.17-10.5 3.95-10.5 3.95l.09-39.1H3.6v-2.9C1.85 6.93.394 8.18.07 9.84H.004v.624c0 .024-.004.047-.004.07 0 .025.003.047.004.072V52.68H49.74V11.407c.043-.217.07-.44.07-.667 0-.228-.027-.45-.07-.667z"/>
    <path d="M12.513 31.94c1.15 2.056 2.473 4.022 3.944 5.882l8.435-8.206 8.462 8.225c1.458-1.83 2.774-3.79 3.937-5.86L24.9 20.05 12.518 31.94zM42.78 6.72c-1.453.44-2.998.683-4.6.683-5.66 0-10.608-2.977-13.272-7.403-2.67 4.426-7.616 7.403-13.275 7.403-1.6 0-3.147-.242-4.596-.68-.377 4.318-.105 8.583.754 12.685H42c.892-4.278 1.138-8.54.78-12.688"/>
  </g>
  <path d="M85.082 51.397c-.077 1.088-.153 1.205-.84 1.205-.803 0-5.808.117-11.004.117-2.98 0-5.31-.04-7.716-.04-1.643 0-3.21.11-4.547.11h-.764c-.07-.16-.11-.31-.11-.47 0-.2.08-.35.12-.51.92-.27 2.56-.66 3.52-1.13.31-.55.5-1.71.54-3.11 0-.66.04-2.53.04-5.6 0-1.25-.07-4.9-.19-10.07-.03-1.98-.11-3.81-.23-4.2-.19-.59-.49-1.25-1.26-1.6-.61-.16-1.49-.12-2.4-.35-.07-.16-.11-.39-.11-.58 0-.27.08-.27.19-.43l12.07-.04c.12.08.16.27.16.47s-.04.39-.15.5c-1.75.08-3.93.04-3.93 2.95v4.74l.26 14.93c0 .74.69 1.82 1.22 2.29.77.66 1.99.97 3.63.97 2.22 0 4.17-.43 5.88-1.32 2.14-1.13 3.44-3.58 4.55-6.3.19-.08.38-.12.57-.12.31 0 .38.04.61.19.04 1.47.04 3.34.04 3.81 0 1.12-.04 2.33-.11 3.53zm16.16 1.283h-1.26c-1.26 0-4.087-.117-4.66-.117-1.986 0-4.66.195-6.19.195h-.647c0-.195-.077-.195-.077-.505 0-.156.04-.428.115-.583 2.79-.194 3.247-.894 3.705-1.282.268-.505.46-1.4.535-2.33.04-1.36.115-4.276.115-5.403 0-2.254-.038-4.896-.076-6.84-.04-3.574-.077-5.556-.115-6.294-.153-2.09-.802-2.95-1.26-3.3-.268-.19-1.108-.39-2.98-.54-.04-.19-.077-.35-.077-.5 0-.35.077-.35.19-.5h.84c1.682.04 4.28.16 5.082.16 1.3 0 3.897-.19 5.5-.19h1.108c.077.08.192.24.192.47 0 .16-.04.35-.115.51-1.222.16-2.674.31-3.4 1.01-.268.23-.688 1.05-.688 2.1v9.87c0 3.61.03 7.85.07 9.71.27 1.4.69 2.26 1.3 3 .68.16 2.25.31 2.82.35.07.16.11.35.11.55 0 .16-.04.31-.16.51zm28.005-1.787c-1.604 1.632-3.477 1.904-6.036 1.865l-10.84-.156c-1.03 0-3.21.078-4.28.078-.72 0-1.41 0-1.56-.04-.07-.154-.11-.35-.11-.504 0-.155.04-.31.19-.583 2.22 0 3.9-.428 4.05-1.01.23-.816.46-2.176.58-3.42.04-1.05.12-4.585.12-8.2 0-3.263-.19-9.014-.23-9.402-.03-.58-.11-1.24-.22-1.74-.19-.74-.72-1.59-1.79-1.75-.92-.11-2.14-.27-2.71-.35-.07-.23-.11-.35-.11-.5 0-.23.04-.23.15-.43.19-.03.61-.03.92-.03h7.91c2.33 0 4.51-.11 5.96-.11 1.99 0 3.48.27 4.55.82 2.37 1.21 3.47 3.31 3.47 6.3 0 2.45-.88 4.24-2.37 4.98-.49.24-1.72.62-2.37.82-.19.04-.65.16-.65.31 0 .24.61.27 1.04.35.57.12 2.25.47 2.67.66.65.27 2.14 1.32 2.83 2.72.61 1.17.91 2.49.91 3.96 0 2.22-.69 4.04-2.02 5.4zm-3.324-8.938c-1.375-2.137-2.79-2.604-5.578-3.147-.687-.117-1.757-.272-3.21-.272-.992 0-1.603.04-1.718.194-.038.078-.077.583-.077 1.398v7.15c0 1.166.077 1.477.153 1.943.46.9 1.26 1.68 2.254 2.26.382.08 1.375.12 1.91.12 2.828 0 3.782-.46 5.196-1.63 1.222-1.13 1.872-2.8 1.872-5.17 0-1.08-.266-2.06-.802-2.83zM123.86 28.2c-.763-1.245-1.91-1.905-3.476-2.216-.687-.155-1.604-.233-2.75-.233-.65 0-1.337.04-2.062.04-.077 1.29-.153 6.3-.153 6.3-.04 1.44-.04 2.49-.04 3.23 0 1.17.07 1.95.15 2.02.07.08.53.08 1.26.08 2.06 0 5.31-.46 5.88-.85.23-.15.49-.42.8-.85.91-1.24 1.41-2.6 1.41-4 0-1.28-.39-2.49-1.03-3.5zm36.945 24.52h-4.28c-1.45 0-2.214-.08-2.52-.118-.727-.078-1.03-.777-1.146-1.593-.39-2.84-1.19-6.57-2.41-8.51-.92-1.44-2.22-2.49-3.67-3.15-1-.47-2.03-.55-3.06-.55-.31 0-.69 0-1 .04l.04 9.75c0 1.36.68 2.29 1.64 2.76.42.07 1.37.31 2.14.38.07.15.15.31.15.58 0 .15-.08.27-.15.43-2.18 0-3.1-.12-5.54-.12-1.23 0-5.93.11-6.46.11-.08-.2-.15-.35-.15-.47 0-.2.07-.35.19-.55.76-.04 1.68-.2 2.17-.28 1.11-.47 1.45-1.64 1.56-2.61.19-1.48.15-6.45.15-10.42 0-5.48-.04-8.98-.23-10.22-.38-.86-.69-1.4-1.61-2.1-.61-.12-1.8-.27-2.45-.35-.04-.16-.08-.39-.08-.55s.07-.23.19-.51c.23 0 1.68.08 2.25.08 1.34 0 3.51.07 4.09.07 1.91 0 4.24-.28 7.1-.28 2.02 0 3.66.16 4.58.43 2.79.89 4.77 3.89 4.77 7.03 0 2.1-.84 3.85-2.37 5.01-.73.58-1.38 1.05-4.2 1.4-.73.08-1 .12-1.57.23.46.2.95.39 1.56.62 1.33.47 2.33.98 2.67 1.29.91.85 2.02 2.72 2.83 4.66.57 1.47 1.1 3.07 1.6 4.85.15.27.46.74.65.97.57.43 2.14.51 2.52.51.11.15.19.39.19.58 0 .2-.08.35-.23.51zm-9.4-24.715c-1.298-1.904-2.94-2.254-6.532-2.254-.955 0-1.795.12-1.947.24s-.268.39-.268.9v7.35l.037 3.38c.574.08 1.146.08 1.605.08 1.72 0 3.056-.12 3.973-.31 2.254-.5 4.202-3.26 4.202-5.75 0-1.36-.342-2.56-1.07-3.61zM192.4 52.72c-2.484 0-4.28-.118-6.648-.118-1.45 0-3.133.078-3.78.078h-1.72c-.19-.155-.268-.35-.268-.505s.037-.272.23-.505c1.49-.078 2.405-.233 2.94-.505.344-.39.574-1.127.574-1.904-.153-.58-.574-1.86-1.11-3.45-.304-.93-.686-1.94-.954-2.6-.152-.27-.457-.89-.764-1.12-3.514 0-6.494 0-9.168.12-.23.43-.268.66-.535 1.44l-1.566 5.13c.16 1.28.77 2.14 1.3 2.64.35.16 1.34.31 2.3.39.12.2.19.31.19.47 0 .16-.04.27-.15.51h-1.03c-1.37 0-2.82-.15-4.28-.15-1.33 0-3.28.08-4.08.08-.11-.19-.15-.23-.15-.42 0-.15.08-.35.12-.54 1.65-.47 3.25-.9 3.82-2.3 1.11-2.83.99-2.48 2.75-7.42 1.8-5.05 3.1-8.51 3.9-10.53l1.72-4.16c.46-1.28.84-2.1 1.19-2.41.23-.27.61-.39.92-.39.38 0 .69.16.92.47.08.12.23.58.35.9l1.68 4.24 5.54 14.46c.69 1.79 1.22 2.99 1.83 4.55.31.78.73 1.67.96 1.87.19.16 2.03.7 3.02.86.08.16.19.31.19.47 0 .16-.07.32-.19.43zm-12.493-14.107c-.61-1.71-1.872-5.13-2.56-6.878-.268-.66-.61-1.438-.916-2.06-.65 1.438-1.18 2.682-2.14 5.246-1.03 2.76-1.94 5.48-2.1 6.03h5.31c1.07 0 2.33-.04 3.1-.15-.23-.81-.38-1.32-.69-2.17zm41.72 14.107h-4.28c-1.45 0-2.214-.08-2.52-.118-.725-.078-1.03-.777-1.146-1.593-.38-2.84-1.18-6.57-2.4-8.51-.91-1.44-2.21-2.49-3.66-3.15-.99-.47-2.02-.55-3.05-.55-.3 0-.68 0-.99.04l.04 9.75c0 1.36.69 2.29 1.65 2.76.42.07 1.38.31 2.14.38.08.15.15.31.15.58 0 .15-.07.27-.15.43-2.18 0-3.09-.12-5.54-.12-1.22 0-5.92.11-6.45.11-.07-.2-.15-.35-.15-.47 0-.2.08-.35.2-.55.77-.04 1.68-.2 2.18-.28 1.11-.47 1.45-1.64 1.57-2.61.19-1.48.15-6.45.15-10.42 0-5.48-.04-8.98-.23-10.22-.38-.86-.68-1.4-1.6-2.1-.61-.12-1.79-.27-2.44-.35-.04-.16-.07-.39-.07-.55s.07-.23.19-.51c.23 0 1.68.08 2.25.08 1.34 0 3.52.07 4.09.07 1.91 0 4.24-.28 7.11-.28 2.03 0 3.67.16 4.59.43 2.79.89 4.78 3.89 4.78 7.03 0 2.1-.84 3.85-2.37 5.01-.73.58-1.38 1.05-4.2 1.4-.73.08-.99.12-1.57.23.46.2.96.39 1.57.62 1.34.47 2.33.98 2.68 1.29.91.85 2.02 2.72 2.82 4.66.58 1.47 1.11 3.07 1.61 4.85.15.27.46.74.65.97.57.43 2.14.51 2.52.51.12.15.19.39.19.58 0 .2-.07.35-.23.51zm-9.398-24.715c-1.3-1.904-2.95-2.254-6.54-2.254-.96 0-1.8.12-1.95.24-.16.12-.27.39-.27.9v7.35l.04 3.38c.57.08 1.14.08 1.6.08 1.72 0 3.05-.12 3.97-.31 2.25-.5 4.2-3.26 4.2-5.75 0-1.36-.35-2.56-1.07-3.61zm37.2-2.525c-.77.194-1.95.427-2.48.776-.77.466-1.91 1.593-2.45 2.604l-5.85 11.852c-.16.31-.27.66-.27 1.05 0 .038-.04.504 0 .97l.34 5.83c.07 1.515.38 1.826.99 2.487.38.38 2.1.62 3.32.77.11.19.15.31.15.5s-.12.35-.2.5c-.69 0-1.68-.04-2.98-.08-2.25-.04-3.78-.08-4.59-.08-1.15 0-3.48.04-5.43.04-.04-.16-.12-.28-.12-.47s.04-.27.19-.55c.88-.08 2.79-.35 3.06-.51.65-.43 1.22-1.32 1.22-2.99 0-1.99-.07-3.58-.34-4.67-.19-.7-.57-1.67-1.22-2.92l-6.68-13.33c-.27-.51-1.03-.98-3.59-1.6-.12-.2-.15-.31-.15-.47 0-.28.07-.31.23-.59.3 0 2.86.11 4.73.11 4.39 0 3.97-.12 6.53-.12h.69c.12.19.23.12.23.39 0 .15-.04.39-.11.58-1.61.19-2.79.27-3.14.97-.08.15-.16.5-.16 1.01 0 .35.08.89.15 1.05l2.14 4.74c.53 1.16 2.56 5.36 3.55 7.07.61-.86 1.52-2.84 3.28-6.45 1.03-2.14 1.75-3.66 2.1-4.63.19-.51.23-.97.23-1.44 0-.62-.08-1.01-.35-1.52-.31-.55-1.91-.82-3.02-1.05-.04-.12-.08-.27-.08-.47s.04-.24.15-.47c1.03 0 3.4.15 5.35.15.8 0 2.86-.12 4.43-.12.07.15.23.23.23.46 0 .15-.08.31-.15.5zM153.15 7.906c0-.048-.014-.136-.04-.174h-.286c-.625 0-1.025.024-2.148.024-.388 0-.963-.024-1.1-.024h-.324c-.038.024-.05.163-.05.213 0 .063.012.162.06.213.2.06.963.148 1.288.362.223.262.324.788.36 1.274.014.19.026.375.026.888v2.613c0 .3-.013.4-.025.538-.21-.237-.51-.688-1.01-1.25l-4.17-4.625c-.03-.05-.11-.112-.19-.163-.1 0-.27-.013-.37-.013-.8 0-2.25-.038-2.46-.038-.03.05-.05.125-.05.176 0 .024.03.2.04.237.19.05.6.11.94.475.2.224.55.536.67.788.04.087.05.224.05.4 0 .648-.04 1.56-.04 2.436v2.538c0 .412-.03.737-.07.95-.26.275-.66.475-1.31.637-.02.07-.05.17-.05.23 0 .04.01.16.04.18h.24c.25 0 .83-.03 1.2-.03.55 0 .93.04 1.44.04h.75c.05-.01.06-.16.06-.21 0-.05-.01-.15-.04-.2-.43-.11-1.07-.21-1.5-.77-.09-.19-.16-1.11-.16-1.55 0-.4-.01-.95-.01-1.69 0-.98.01-1.85.03-2.28l.23.28 5.77 6.49c.06.07.29.08.35.08s.1 0 .15-.03c.02-.06.11-.26.11-.56 0-.36-.01-.74-.01-.92V10.2c0-1.563.74-2 1.6-2.038.04-.063.05-.175.05-.24m-14.32 3.98c0 1.888-.52 3.55-1.23 4.138-.36.3-.81.45-1.32.45-.7 0-1.31-.273-1.66-.836-.47-.726-.74-2.075-.74-3.25 0-1.737.45-3.1 1.25-3.763.43-.35.87-.49 1.3-.49.68 0 1.33.32 1.7.86.48.65.71 1.58.71 2.88m2.27.24c0-1.75-.77-3.08-2.22-3.88-.77-.42-1.55-.64-2.37-.64-1.82 0-3.47 1.09-4.21 2.33-.47.78-.72 1.63-.72 2.53 0 1.44.7 2.85 1.79 3.66.83.6 1.77.9 2.85.9.67 0 1.29-.12 1.9-.36.69-.26 1.28-.67 1.74-1.19.82-.89 1.27-2.02 1.27-3.34m-10.99-1.57V7.99c0-.186-.07-.237-.26-.237-.37 0-2.35.05-4.35.05-1.55 0-2.84-.025-3.54-.025h-.93c-.16 0-.21.04-.21.214v2.39c.05.035.14.047.2.047.05 0 .22 0 .27-.03.57-1.14 1.09-1.75 1.75-2.09.38-.04 1.12-.05 1.32-.05.02.13.03.57.04 1.1.01.9.01 1.28.01 3.41 0 1.84-.01 2.66-.03 2.86-.05.35.02.61-1.48.67-.04.08-.04.19-.04.29 0 .05 0 .15.01.2h.49c.46 0 1.55-.05 2-.05.36 0 1.53.03 2.29.03h.35c.04-.06.04-.2.04-.26 0-.08-.01-.17-.05-.23-.14 0-.94.02-1.29-.24-.04-.14-.11-.5-.11-.94-.01-1.35-.023-1.87-.023-2.77 0-1.16.01-1.95.01-4.11.178 0 .576-.01.95 0 .776.21 1.15.5 1.488.95.21.29.436.78.66 1.36.078.02.14.02.215.02.05-.01.21-.03.235-.06m-10.79 4.06c0-.18 0-.25-.012-.37-.06-.04-.09-.04-.19-.04-.09 0-.19 0-.28.02-.42.96-1.03 1.71-1.37 1.91-.18.11-.47.13-.93.13h-1.03c-.4 0-.71-.04-.82-.07-.19-.04-.39-.34-.48-.54-.09-.21-.14-.21-.14-.79v-2.7h.46c.13 0 .43.02.77.17.31.14.44.33.56.53.117.17.19.86.21 1.04.068.03.23.05.33.05s.16-.02.25-.07c0-.33-.08-1.25-.08-1.75 0-.62.086-1.48.12-1.93-.05-.02-.12-.05-.25-.05-.09 0-.25 0-.33.04-.04.18-.17.7-.2.74-.18.31-.51.55-.85.65-.22.06-.55.1-.72.1h-.26V10.5c0-1.2.02-1.588.04-1.814.01-.15.04-.312.05-.425.11-.01.17-.02.75-.02.72 0 1.06.02 1.17.02.35.03.61.1.8.25.478.37.84.94 1.2 1.55.078.03.2.03.26.03.08 0 .09-.02.19-.07 0-.76-.05-1.75-.072-2.06-.01-.12-.04-.16-.29-.16-.1 0-.57-.02-1.07-.02-.715 0-1 .02-2.09.02-.59 0-1.8.02-2.31.02-.75 0-1.39-.03-1.71-.03h-.43c-.04.05-.065.15-.065.2 0 .06.027.2.06.25.15.05.74.04.916.14.17.15.33.21.45.81.02.27.03.99.03 1.57v2.58c0 .53-.01 1.29-.03 1.6-.023.49-.2 1.08-.27 1.19-.115.09-.63.16-1.13.19-.04.08-.06.2-.06.28 0 .07.03.16.07.22h.41c.4 0 1.88-.04 2.22-.04.31 0 .91.03 1.636.03.4 0 1.58.08 4.1.08.1 0 .22.02.34-.02.04-.06.04-.09.05-.2.03-.25.03-.99.03-2m-10.573.44c-.04-.11-.14-.3-.43-.3-.024 0-.06.01-.09.01-.75 1.07-1.574 1.47-2.51 1.47-1.3 0-2.23-.87-2.526-1.65-.16-.41-.382-1.31-.382-2.27 0-.91.14-1.65.376-2.19.55-1.45 1.35-1.9 2.33-1.9.816 0 1.49.47 2 1.13.216.29.44.85.64 1.52.05.02.16.04.276.04.076 0 .25-.06.3-.11-.01-.14-.14-1.1-.14-1.4 0-.37.1-.99.1-1.23-.073-.08-.324-.13-.49-.14-.19.14-.25.3-.42.51-.7-.5-1.356-.89-2.78-.89-1.31 0-2.35.45-3.14 1.24-.86.85-1.34 2.02-1.34 3.52 0 1.6.68 2.91 1.77 3.74.69.5 1.7.84 2.91.84 1.53 0 2.64-.58 3.2-1.34.23-.3.25-.37.35-.59m-9.78-7.2c0-.04-.02-.13-.04-.17h-.28c-.63 0-1.03.02-2.15.02-.39 0-.965-.02-1.1-.02h-.326c-.04.03-.05.17-.05.22 0 .07.01.17.06.22.2.06.962.15 1.29.36.222.26.324.79.36 1.28.02.19.03.38.03.89v2.61c0 .3-.01.4-.02.54-.21-.24-.51-.69-1.01-1.25l-4.18-4.63c-.03-.05-.11-.11-.18-.16-.1 0-.27-.01-.37-.01-.8 0-2.25-.03-2.46-.03-.02.05-.05.13-.05.18 0 .03.03.2.04.24.19.05.6.11.94.47.2.22.55.54.67.79.04.09.05.22.05.4 0 .65-.04 1.56-.04 2.43v2.54c0 .41-.04.74-.08.95-.26.28-.66.48-1.31.64-.02.07-.05.17-.05.23 0 .04.01.16.04.18h.24c.25 0 .83-.04 1.2-.04.56 0 .93.04 1.44.04h.75c.05-.01.07-.16.07-.21 0-.05-.01-.15-.04-.2-.44-.11-1.07-.21-1.5-.77-.09-.19-.16-1.11-.16-1.55 0-.4-.01-.95-.01-1.69 0-.99.02-1.85.03-2.29.08.09.17.2.23.27l5.78 6.49c.07.07.29.08.35.08.07 0 .11 0 .15-.02.03-.06.12-.26.12-.56 0-.36-.01-.74-.01-.93V10.2c0-1.564.74-2 1.6-2.04.04-.06.05-.17.05-.237M86.7 16.58c0-.065-.01-.2-.037-.25-.19-.015-.7-.065-.926-.115-.2-.235-.337-.51-.424-.96-.02-.6-.03-1.84-.03-3V9.17c0-.338.14-.6.23-.675.236-.226.71-.276 1.112-.325.023-.05.034-.188.034-.238 0-.075-.04-.176-.07-.2h-.36c-.53 0-1.75.062-2.18.062-.27 0-1.49-.04-2.04-.05h-.28c-.04.05-.06.1-.06.213 0 .05.01.175.02.238.61.05.88.11.97.174.15.11.36.38.41 1.06.01.24.03.75.04 1.9.01.62.02 1.5.02 2.22 0 .36-.03 1.17-.04 1.61-.03.3-.09.58-.18.75-.15.12-.3.35-1.22.41-.03.05-.04.21-.04.26 0 .1.02.15.02.21h.21c.5 0 1.75-.07 2.4-.07.18 0 1.49.04 1.9.04h.41c.04-.07.05-.17.05-.22m-10.02-6.52c0 .77-.53 1.66-1.14 1.81-.25.06-.56.1-1.02.1-.13 0-.31 0-.46-.03V8.57c0-.15.04-.24.07-.278.03-.037.26-.075.52-.075.98 0 1.4.086 1.75.674.2.34.29.73.29 1.15m3.63 6.54c0-.06-.02-.21-.06-.26-.12 0-.63-.02-.82-.16-.06-.07-.16-.22-.21-.31-.16-.57-.35-.96-.53-1.43-.26-.62-.62-1.21-.92-1.49-.11-.1-.5-.26-.94-.41-.2-.07-.36-.14-.51-.2.19-.04.28-.05.52-.07.93-.11 1.14-.27 1.38-.46.5-.37.78-.95.78-1.62 0-1.01-.65-1.98-1.56-2.27-.3-.08-.83-.14-1.5-.14-.93 0-2.25.09-2.87.09-.18 0-1.27-.02-1.71-.02-.19 0-.66-.02-.74-.02-.04.09-.06.19-.06.24 0 .05.01.18.02.23.21.02.6.07.8.11.3.23.4.4.53.68.06.4.08 1.42.08 3.19 0 1.28.01 2.75-.05 3.23-.04.32-.15.69-.51.84-.16.03-.46.08-.71.09-.03.06-.06.19-.06.25 0 .04.03.14.05.2.17 0 2.09-.04 2.49-.04.8 0 1.47.04 2.18.04.02-.05.05-.14.05-.19 0-.08-.03-.21-.05-.26-.25-.02-.57-.1-.7-.12-.31-.15-.54-.45-.54-.89l-.01-2.89c.1-.01.23-.01.33-.01.17 0 .35.03.67.2.46.26.69.45.99.91.39.63.66 1.78.78 2.69.03.26.13.49.37.51.1.01.76.04 1.24.04h1.79c.05-.05.07-.16.07-.22M66.7 10.1c0 .64-.226 1.2-.64 1.564-.26.214-.674.338-1.3.338-.26 0-.47-.01-.54-.02-.1-.01-.16-.02-.16-.09l.01-3.66c.15-.01.36-.06.72-.06.85 0 1.38.21 1.63.74.18.34.28.77.28 1.2m2.24.05c0-.93-.54-1.81-1.34-2.17-.41-.17-1.135-.28-2.234-.28-.96 0-2.46.076-3.122.076-.46 0-1.16-.05-1.55-.05-.035.06-.06.15-.06.2 0 .05 0 .185.04.25.237.074.625.135.875.2.21.19.26.35.33.71.04.44.06.99.06 1.94 0 2.636-.01 4.024-.05 4.324-.05.374-.3.762-.72.887-.19.04-.46.1-.73.13-.01.06-.03.15-.03.26 0 .1.01.11.04.17.4 0 1.57-.05 2.02-.05 1.11 0 2.25.05 2.71.05h.31c.03-.05.03-.14.03-.2 0-.08 0-.18-.02-.23-.38-.05-.94-.13-1.18-.4-.12-.15-.25-.37-.25-.74l-.04-2.75c.75.05 1.55.08 1.99.08.58 0 1.06-.1 1.45-.23.89-.34 1.44-1.21 1.44-2.18M250.37 7.8c0-.08-.05-.1-.077-.15-.51 0-1.19.04-1.45.04-.64 0-1.41-.05-1.75-.05-.04.07-.05.08-.05.15s.01.11.02.15c.362.07.886.16.99.332.09.166.113.29.113.49 0 .15-.01.3-.07.466-.115.31-.35.8-.69 1.485-.575 1.162-.94 1.89-1.138 2.173-.326-.55-1.05-2-1.226-2.37l-.7-1.52c-.024-.05-.05-.227-.05-.34 0-.16.025-.28.05-.326.114-.225.5-.25 1.026-.31.024-.06.036-.134.036-.184 0-.09-.04-.06-.08-.126h-.227c-.836 0-.59.04-2.023.04-.61 0-1.35-.04-1.45-.04-.05.084-.07.1-.07.184 0 .05.02.086.05.15.84.2 1.09.35 1.18.512l2.185 4.285c.21.4.34.72.4.94.08.35.1.86.1 1.5 0 .54-.19.83-.4.96-.09.05-.72.14-1 .17-.05.09-.06.11-.06.18 0 .06.02.1.03.15.64 0 1.3-.01 1.68-.01.26 0 .66.01 1.4.02.42.01.75.02.97.02.02-.05.06-.1.06-.16s-.02-.1-.05-.16c-.4-.05-.97-.12-1.09-.25-.2-.21-.3-.31-.33-.8l-.1-1.87c-.01-.14.04-.26.05-.3.04-.14.09-.25.14-.35l1.92-3.81c.17-.33.55-.69.8-.84.17-.11.56-.19.81-.25.02-.07.05-.11.05-.16m-10.1 2.58V7.96c0-.188-.08-.238-.27-.238-.38 0-2.1.05-4.1.05-1.55 0-2.59-.02-3.29-.02h-.93c-.17 0-.22.037-.22.212v2.263c.05.038.09.05.15.05.05 0 .1 0 .15-.025.48-1.087.73-1.663 1.57-2.086.37-.04 1.69-.05 1.89-.05.01.138.02.576.03 1.1.01.9.01 1.387.01 3.51 0 1.84-.01 2.79-.04 2.99-.05.35.01.612-1.49.675-.04.09-.04.11-.04.21 0 .05 0 .1.01.15h.49c.46 0 1.07-.05 1.52-.05.36 0 1.05.04 1.81.04h.35c.04-.06.04-.12.04-.18 0-.07-.01-.11-.05-.17-.14 0-.94.03-1.29-.23-.03-.13-.11-.5-.11-.93-.01-1.35-.02-1.99-.02-2.89 0-1.16.02-2.05.02-4.21.18 0 1.1-.01 1.48 0 .78.21 1.08.5 1.42.95.3.4.37.76.56 1.36.073.03.11.03.19.03.05 0 .11-.02.133-.05m-10.406 6.17c0-.06-.015-.12-.04-.17-.19-.01-.7-.06-.927-.11-.2-.23-.34-.51-.43-.96-.02-.6-.03-1.96-.03-3.12v-3.2c0-.34.14-.6.23-.67.23-.22.71-.27 1.11-.32.02-.05.04-.11.04-.16 0-.07-.04-.12-.07-.15h-.36c-.52 0-1.27.06-1.7.06-.26 0-1.01-.04-1.56-.05h-.27c-.04.05-.07.05-.07.16 0 .05.01.1.03.16.61.05.89.12.97.18.15.11.36.39.41 1.06.01.23.02.87.03 2.02.01.62.02 1.47.02 2.2 0 .36-.024 1.3-.04 1.73-.03.3-.09.59-.18.75-.15.13-.3.35-1.212.41-.03.05-.04.14-.04.19 0 .1.02.1.02.17h.21c.5 0 1.28-.06 1.93-.06.19 0 1.01.04 1.42.04h.41c.035-.06.05-.11.05-.16m-6.18-2.3c0-1-.45-1.69-1.413-2.2-.26-.15-.72-.31-1.39-.5-.76-.21-1.4-.46-1.81-.69-.276-.15-.74-.56-.74-1.36s.814-1.46 1.764-1.46c.75 0 1.35.38 1.71.88.32.44.43.64.78 1.42.04.01.09.03.13.03.11 0 .21-.06.27-.12-.04-.31-.1-.75-.1-1.12 0-.32.07-.75.11-.97-.1-.15-.21-.17-.37-.17-.18.11-.34.28-.49.45-.82-.67-1.5-.78-2.127-.78-1.54 0-2.64 1.02-2.64 2.38 0 .46.16.91.464 1.38.28.39.68.69 1.21.91.366.15 1.99.64 2.21.73 1 .39 1.38.724 1.38 1.61 0 .44-.19.83-.55 1.26-.32.4-.833.59-1.39.59-.59 0-1.6-.25-2.1-.922-.3-.39-.72-1.2-.85-1.69-.09-.024-.09-.024-.17-.024-.08 0-.17.03-.24.08 0 .16.05.99.05 1.24 0 .61-.11.91-.14 1.11.04.13.25.25.4.25.26-.222.54-.4.625-.4.08 0 .19.04.3.11.81.53 1.49.63 2.09.63 1.77 0 3.03-.883 3.03-2.62m-11-4.35c0 .8-.64 1.7-1.375 1.86-.3.064-.736.1-1.3.1-.15 0-.574 0-.76-.023l-.01-1.1v-2.4c0-.162.034-.25.084-.287.05-.038.56-.076.87-.076 1.176 0 1.713.113 2.14.725.236.34.35.73.35 1.16m2.624 6.63c0-.06-.03-.13-.066-.19-.123 0-.636-.02-.82-.16-.067-.07-.166-.23-.216-.31-.165-.57-.34-1.09-.527-1.56-.264-.62-.63-1.21-.926-1.49-.12-.1-.47-.26-.91-.41l-.51-.2c.19-.04.28-.05.52-.07.82-.1 1.09-.27 1.33-.46.5-.37.82-.93.82-1.61 0-1.01-.65-1.97-1.57-2.26-.3-.08-.84-.13-1.5-.13-.94 0-1.64.09-2.26.09-.19 0-.8-.02-1.24-.02-.19 0-.67-.02-.74-.02-.04.09-.06.11-.06.16s.01.13.02.18c.21.03.6.08.8.11.3.23.4.4.52.68.06.4.07 1.53.07 3.29 0 1.28.01 2.88-.05 3.35-.04.32-.15.69-.51.84-.16.03-.46.08-.71.09-.04.06-.06.11-.06.18 0 .04.02.09.05.15.17 0 1.61-.04 2.01-.04.8 0 1 .04 1.71.04.02-.05.05-.09.05-.14 0-.09-.03-.14-.05-.19-.25-.02-.56-.1-.7-.12-.31-.15-.54-.45-.54-.89l-.02-3.12c.1-.01.47-.01.57-.01.335 0 .673.02 1 .17.47.21.923.55 1.223 1.01.4.63.66 1.82.79 2.73.04.26.14.49.376.51.1.01.25.04.723.04h1.3c.05-.05.076-.1.076-.16m-10.49-1.9c0-.17 0-.25-.016-.36-.06-.04-.09-.04-.19-.04-.09 0-.08 0-.16.02-.27.91-.75 1.59-1.29 1.91-.19.11-.53.14-1.068.14h-1.4c-.44-.01-.71-.04-.828-.06-.19-.04-.39-.34-.47-.54-.09-.21-.14-.29-.14-.86v-2.85h.4c.4 0 .723.03 1.06.18.312.14.55.34.68.54.11.18.15.86.172 1.04.066.04.1.05.2.05s.116-.01.2-.06c0-.34-.07-1.25-.07-1.75 0-.62.085-1.39.12-1.83-.05-.03-.07-.05-.2-.05-.08 0-.12 0-.2.04-.03.17-.14.7-.16.73-.19.31-.62.57-.96.67-.23.06-.55.1-1.02.1h-.2V10.5c0-1.2.025-1.69.04-1.918.01-.15.035-.31.05-.42.11-.015.474-.027 1.05-.027.725 0 1.26.016 1.374.016.35.03.61.1.8.25.61.48.773.79 1.11 1.55.07.03.086.03.146.03.07 0 .09-.02.19-.08 0-.76-.05-1.62-.08-1.94-.01-.12-.04-.16-.29-.16-.1 0-.575-.02-1.07-.02-.715 0-1 .01-2.09.01-.59 0-1.625.02-2.14.02-.75 0-.91-.02-1.24-.02h-.42c-.04.05-.06.1-.06.15 0 .06.02.12.06.18.15.05.74.04.91.14.17.15.334.183.45.79.02.26.034 1.11.034 1.68v2.58c0 .525-.02 1.39-.03 1.7-.02.49-.2 1.1-.27 1.21-.12.09-.63.16-1.13.19-.04.07-.06.12-.06.2s.02.11.06.17h.41c.4 0 1.4-.035 1.74-.035.31 0 .73.02 1.46.02.4 0 1.57.07 4.1.07.1 0 .21.02.333-.02.04-.06.04-.09.05-.2.025-.25.025-.87.025-1.88m-9.25-6.82c0-.05-.01-.12-.06-.132h-.4c-.3 0-.774.026-.986.026-1.01 0-1.37-.06-1.525-.06h-.22c-.026.06-.064.1-.064.16 0 .05.03.09.03.14.31.04.588.1.86.19.15.143.315.45.315.783 0 .12-.122.71-.3 1.135l-2.01 4.95-2.47-6.26c.04-.3.2-.587.41-.7.217-.024.478-.1.816-.1.026-.05.05-.124.05-.17 0-.05-.01-.12-.06-.14h-.31c-.39 0-.976.05-1.64.05-.287 0-.85-.02-1.4-.02H186c-.02.05-.05.072-.05.15 0 .07.01.1.04.15.35.083.686.222 1.05.422.236.35.75 1.61 1.025 2.274l1.04 2.5c.86 2.07 1.376 3.46 1.44 3.7.06.03 0 .07.11.07.114 0 .102-.02.125-.084l3.23-7.75c.11-.27.29-.54.45-.71.2-.23.612-.31 1-.4.01-.05.05-.1.05-.16m-10.95 8.71c0-.06-.01-.12-.038-.17-.19-.01-.705-.06-.93-.11-.2-.24-.34-.51-.426-.96-.013-.6-.03-1.96-.03-3.124V9c0-.337.14-.6.23-.675.236-.227.71-.276 1.11-.326.026-.05.04-.12.04-.17 0-.08-.04-.13-.062-.15h-.36c-.53 0-1.28.06-1.7.06-.27 0-1.02-.04-1.57-.05h-.27c-.04.05-.06.05-.06.16 0 .05.01.1.02.16.61.05.89.11.98.18.15.11.36.38.41 1.06.01.23.03.87.04 2.02.01.62.02 1.47.02 2.2 0 .36-.02 1.3-.03 1.73-.03.3-.09.59-.18.75-.15.12-.3.35-1.21.41-.03.05-.04.13-.04.18 0 .1.02.1.02.16h.22c.5 0 1.27-.06 1.92-.06.19 0 1.02.04 1.43.04h.41c.04-.06.05-.11.05-.16m-5.65-8.74c0-.05-.01-.09-.038-.13h-.29c-.62 0-.895.02-2.02.02-.39 0-.96-.03-1.1-.03h-.324c-.03.02-.046.11-.046.16 0 .06.01.08.06.13.2.06.97.15 1.29.36.23.26.33.78.36 1.27.018.19.03.37.03.89v3.71c0 .3-.014.4-.03.54-.21-.24-.57-.7-1.06-1.28L171 7.9c-.037-.05-.113-.113-.188-.163-.104 0-.23-.013-.326-.013-.802 0-1.5-.037-1.713-.037-.023.05-.037.075-.037.124 0 .02.01.12.022.16.187.05.737.11.962.35.2.22.5.49.614.74.036.08.05.22.05.4 0 .65-.04 1.84-.04 2.71v2.66c0 .41-.04.73-.074.95-.266.27-.666.47-1.316.63-.024.06-.05.09-.05.15 0 .04.013.11.038.13h.24c.25 0 .826-.04 1.2-.04.55 0 .8.04 1.31.04h.75c.05-.01.065-.11.065-.16s-.012-.07-.036-.12c-.43-.11-1.07-.21-1.5-.78-.08-.19-.16-1.14-.16-1.58 0-.4-.01-1.05-.01-1.79 0-.98.02-2.35.03-2.78.08.09.19.23.28.33l5.94 6.94c.06.06.09.08.15.08s.02 0 .08-.02c.03-.07.06-.27.06-.57 0-.36-.01-.74-.01-.93V10c0-1.562.74-2 1.6-2.037.04-.063.05-.1.05-.163m-11.57.06c0-.05-.02-.124-.06-.16h-.36c-.39 0-.91.023-1.36.023-.5 0-1.06-.024-1.42-.024h-.45c-.04.07-.05.1-.05.16 0 .05.01.1.04.16.05 0 .96.01 1.13.23.14.19.44.65.49.92.03.12.1.63.1 1.37 0 1.06 0 1.77-.01 2.15-.02.7-.1 1.25-.22 1.66-.35 1.09-1.16 1.62-2.45 1.62-.55 0-1.03-.11-1.46-.31-.81-.4-1.2-1.16-1.22-1.58l-.07-3.74-.01-1.53c0-.29.37-.55.49-.7.1-.05.65-.1.96-.13.04-.08.06-.12.06-.18s-.04-.13-.09-.17l-.47.01c-.46.01-1.07.02-1.46.02-.6 0-1.06-.01-1.43-.01h-.53c-.05.03-.06.11-.06.17 0 .06.01.11.05.15.4.05.66.09.84.12.22.12.37.34.44.55.01.16.04.56.04 1.35v3c0 .77.04 1.32.13 1.67.16.65.51 1.16 1.09 1.54.62.4 1.38.6 2.29.6.84 0 1.55-.17 2.15-.51.63-.34 1.02-.89 1.24-1.66.13-.46.2-.96.2-1.49v-2.4c0-.45.03-1.01.03-1.24.02-.67.19-1.07.38-1.37.2-.06.38-.1 1.04-.18.03-.05.05-.09.05-.15" fill="#231F20"/>
</svg>
