<svg xmlns="http://www.w3.org/2000/svg" width="487.103" height="26.916" viewBox="0 0 487.103 26.916">
  <path fill="#F58025" d="M25.412 5.148v-.12h-.03c-.215-.792-.974-1.382-1.88-1.382V5.03H23.5l.047 19.974s-2.815-.91-5.357-2.016c-2.94-1.28-5.29.11-5.504.246v.016l-.012-.008-.01.008v-.016c-.215-.134-2.564-1.527-5.504-.246-2.543 1.105-5.357 2.016-5.357 2.016L1.85 5.03h-.01V3.542c-.896 0-1.64.64-1.806 1.486H.002v.317L0 5.385c0 .01 0 .023.002.035v21.496h25.41V5.828c.02-.11.034-.223.034-.34s-.012-.23-.034-.34z"/>
  <path d="M6.393 16.32c.587 1.05 1.262 2.053 2.014 3.004l4.31-4.193 4.324 4.21c.75-.94 1.42-1.94 2.02-2.99l-6.33-6.09-6.33 6.07zM21.855 3.436c-.742.225-1.53.348-2.35.348-2.893 0-5.42-1.52-6.78-3.783-1.365 2.27-3.89 3.79-6.782 3.79-.82 0-1.608-.12-2.35-.34-.193 2.21-.053 4.39.387 6.48h17.47c.45-2.18.58-4.36.39-6.48" fill="#F58025"/>
  <path fill="#FFF" d="M384.628 19.47c-.04.597-.062.66-.447.66-.44 0-3.31.064-6.21.064-1.66 0-2.95-.022-4.29-.022-.91 0-2.42.065-3.17.065h-.42c-.04-.086-.06-.277-.06-.36 0-.11.05-.3.07-.384.51-.15 1.43-.363 1.96-.618.17-.298.28-.937.3-1.702 0-.362.02-1.17.02-2.852 0-.68-.04-2.68-.1-5.51-.02-1.08-.06-1.91-.13-2.12-.1-.32-.27-.68-.7-.87-.34-.08-.83-.06-1.34-.19-.04-.08-.06-.32-.06-.42 0-.15.05-.25.11-.34l8.02-.02c.07.04.09.26.09.36 0 .11-.02.32-.08.39-.98.04-2.19.02-2.19 1.62v2.42l.13 7.96c0 .41.38 1 .68 1.26.43.36.94.56 1.81.56 1.24 0 1.64-.25 2.6-.74 1.19-.62 2.04-2 2.66-3.49.11-.04.32-.06.43-.06.17 0 .3.02.43.11.02.81.02 2.09.02 2.34 0 .62-.02 1.28-.06 1.94zm10.812.702h-.704c-.7 0-2.914-.062-3.232-.062-1.105 0-3.236.105-4.088.105h-.36c0-.105-.042-.19-.042-.36 0-.088.02-.36.064-.447 1.55-.104 1.81-.49 2.064-.702.148-.277.254-.767.297-1.276.02-.745.06-2.128.06-2.746 0-1.234-.02-2.722-.05-3.786-.02-1.96-.05-2.828-.07-3.233-.09-1.15-.45-1.616-.7-1.808-.15-.108-.62-.214-1.66-.3-.02-.106-.05-.318-.05-.404 0-.19.04-.275.1-.362h.47c.93.03 3.02.09 3.47.09.72 0 2.81-.1 3.7-.1h.62c.04.05.1.22.1.34 0 .09-.02.32-.07.41-.68.09-1.49.17-1.89.56-.15.13-.39.58-.39 1.15v5.24c0 1.98.02 4.09.04 5.11.14.77.38 1.23.72 1.64.38.09 1.25.17 1.57.19.04.09.06.32.06.43 0 .09-.02.26-.08.36zm17.448-.98c-.96.897-2.13 1.045-3.66 1.02l-6.428-.084c-.572 0-2.424.043-3.02.043-.403 0-.786 0-.872-.02-.04-.08-.064-.29-.064-.38 0-.08.023-.27.107-.42 1.24 0 2.18-.23 2.26-.55.13-.44.26-1.19.32-1.87.03-.57.07-2.29.07-4.27 0-1.79-.1-4.76-.12-4.98-.02-.32-.06-.68-.13-.95-.1-.4-.4-.87-1-.96-.51-.06-1.19-.14-1.51-.19-.04-.12-.06-.29-.06-.38 0-.12.02-.23.08-.34.11-.02.34-.02.52-.02h5.05c1.3 0 2.77-.06 3.64-.06 1.17 0 2.21.15 2.83.45 1.43.66 2.06 1.83 2.06 3.47 0 1.34-.51 2.32-1.4 2.72-.27.13-1.06.34-1.44.45-.11.03-.38.09-.38.17 0 .13.36.15.62.2.34.06 1.3.26 1.55.36.39.15 1.28.75 1.68 1.51.37.64.56 1.36.56 2.17 0 1.21-.43 2.22-1.22 2.96zm-2.957-4.87c-.61-1.107-1.25-1.383-2.51-1.66-.29-.06-.79-.147-1.43-.147-.44 0-.8.02-.87.106 0 .04-.02.3-.02.73v3.77c0 .62.02.77.07 1.02.22.47.62.88 1.07 1.18.17.04.66.06.9.06 1.26 0 1.7-.23 2.32-.85.56-.59.85-1.46.85-2.7 0-.57-.12-1.08-.36-1.49zm-1.08-7.445c-.34-.64-.83-1-1.49-1.15-.3-.084-.72-.127-1.21-.127-.27 0-.61.02-.93.02-.02.66-.06 3.3-.06 3.3v1.68c0 .592.02 1 .07 1.04.02.043.3.043.62.043.88 0 2.26-.234 2.51-.448.11-.082.24-.21.36-.445.39-.637.58-1.34.58-2.085 0-.662-.15-1.3-.42-1.83zm24.79 13.317h-3.04c-.81 0-1.93-.043-2.1-.065-.4-.04-.57-.43-.64-.88-.21-1.56-.66-3.51-1.34-4.58-.51-.79-.89-1.11-1.68-1.56-.53-.3-.85-.34-1.13-.34-.17 0-.38 0-.55.02l.02 4.91c0 .74.39 1.26.92 1.51.24.04.77.17 1.2.21.04.09.08.3.08.45 0 .08-.04.23-.08.31-1.21 0-2.36-.06-3.72-.06-.68 0-3.93.06-4.23.06-.04-.11-.08-.28-.08-.34 0-.11.04-.32.11-.43.43-.02.94-.11 1.21-.15.62-.25.81-.89.88-1.42.11-.81.09-3.32.09-5.49 0-3-.02-4.74-.12-5.42-.21-.47-.38-.77-.89-1.15-.34-.07-1-.15-1.36-.19-.02-.09-.04-.3-.04-.39 0-.09.05-.26.11-.41.13 0 .94.04 1.26.04.74 0 2.59.04 2.91.04 1.06 0 3.3-.15 4.89-.15 1.13 0 2.04.09 2.55.23 1.55.49 2.66 2.15 2.66 3.87 0 1.15-.47 2.13-1.32 2.77-.4.32-.76.59-2.34.78-.4.04-.55.06-.87.13.26.1.53.21.87.34.75.25 1.41.53 1.6.7.51.47 1.13 1.47 1.58 2.53.32.81.64 1.47.91 2.45.09.14.26.4.36.53.32.23 1.19.27 1.41.27.06.09.11.34.11.45 0 .1-.04.27-.13.36zm-6.53-13.447c-.59-1-1.32-1.148-2.98-1.148-.45 0-.83.06-.89.12-.06.06-.13.21-.13.47v3.91l.02 1.81c.26.04.58.04.79.04.79 0 1.32-.07 1.75-.17 1.04-.26 1.94-1.77 1.94-3.09 0-.73-.15-1.39-.49-1.96zm24.87 13.447c-1.38 0-3.08-.065-4.4-.065-.81 0-1.74.04-2.1.04h-1.59c-.1-.09-.13-.3-.15-.39 0-.09.02-.26.13-.39.84-.05 1.28-.13 1.58-.28.2-.21.3-.62.3-1.04-.08-.32-.25-.83-.55-1.68-.17-.51-.34-.94-.49-1.3-.08-.15-.27-.49-.44-.62-.89.02-3.27-.02-4.76.04-.12.23-.23.51-.31.78l-.81 2.49c.08.7.32 1.17.62 1.44.19.08.77.17 1.3.21.06.1.1.27.08.36 0 .08-.02.25-.08.38h-.57c-.76 0-1.59-.09-2.4-.09-.74 0-2.04.04-2.49.04-.06-.11-.08-.24-.08-.34.02-.09.06-.3.08-.41.92-.26 1.9-.49 2.24-1.26.64-1.56.49-1.15 1.51-3.85 1.05-2.77 1.81-4.7 2.28-5.81.6-1.36.9-2.13.96-2.28.21-.57.47-1.06.66-1.23.13-.15.58-.3.75-.3.21 0 1.09.17 1.21.34.05.06.13.23.2.4l.94 2.32 3.19 7.95c.41.98.6 1.42.96 2.27.17.43.42.92.55 1.02.11.09 1.22.39 1.77.47.04.09.1.28.13.36 0 .09-.07.28-.13.35zm-8.42-7.83c-.34-.937-1.06-2.745-1.47-3.7-.06-.128-.12-.277-.19-.428-.23.575-.51 1.214-.91 2.213-.59 1.51-1.08 2.89-1.17 3.19h2.58c.6 0 1.19 0 1.58-.09-.13-.45-.21-.73-.4-1.19zm25.9 7.83h-3.04c-.81 0-1.94-.043-2.1-.065-.4-.04-.57-.43-.64-.88-.21-1.56-.66-3.51-1.34-4.58-.51-.79-.89-1.11-1.68-1.56-.53-.3-.85-.34-1.12-.34-.17 0-.38 0-.55.02l.02 4.91c0 .74.39 1.26.92 1.51.24.04.77.17 1.19.21.05.09.09.3.09.45 0 .08-.04.23-.08.31-1.21 0-2.36-.06-3.72-.06-.68 0-3.94.06-4.24.06-.04-.11-.08-.28-.08-.34 0-.11.05-.32.11-.43.43-.02.94-.11 1.22-.15.62-.25.81-.89.87-1.42.11-.81.09-3.32.09-5.49 0-3-.02-4.74-.13-5.42-.21-.47-.38-.77-.89-1.15-.34-.07-1-.15-1.36-.19-.02-.09-.04-.3-.04-.39 0-.09.05-.26.11-.41.13 0 .94.04 1.26.04.75 0 2.6.04 2.92.04 1.06 0 3.3-.15 4.89-.15 1.13 0 2.05.09 2.56.23 1.56.49 2.66 2.15 2.66 3.87 0 1.15-.47 2.13-1.32 2.77-.41.32-.77.59-2.34.78-.41.04-.56.06-.88.13.26.1.54.21.88.34.75.25 1.41.53 1.6.7.51.47 1.13 1.47 1.57 2.53.32.81.64 1.47.91 2.45.09.14.26.4.36.53.32.23 1.19.27 1.41.27.07.09.11.34.11.45 0 .1-.04.27-.12.36zm-6.53-13.447c-.6-1-1.32-1.148-2.98-1.148-.45 0-.83.06-.89.12-.06.06-.13.21-.13.47v3.91l.02 1.81c.26.04.58.04.79.04.79 0 1.32-.07 1.75-.17 1.04-.26 1.94-1.77 1.94-3.09 0-.73-.15-1.39-.49-1.96zM487 5.45c-.426.105-1.234.234-1.53.426-.427.253-.98.744-1.278 1.297l-3.34 6.427c-.107.17-.15.36-.15.573 0 .022-.02.275 0 .532l.19 3c.044.83.214 1 .556 1.36.213.215 1.17.342 1.852.428.062.105.084.273.084.383 0 .104-.06.296-.104.382-.383 0-.938-.02-1.66-.043-1.256-.02-2.744-.043-3.19-.043-.64 0-2.575.022-3.66.022-.02-.085-.063-.257-.063-.36 0-.106.02-.258.105-.406.49-.043 1.553-.19 1.7-.277.364-.23.683-.72.683-1.63 0-1.08-.042-1.76-.19-2.36-.107-.38-.297-.91-.682-1.59l-3.765-7.1c-.146-.27-.68-.53-2.105-.87-.062-.1-.105-.27-.105-.36 0-.15.042-.27.126-.43.17 0 2.235.07 3.28.07 2.447 0 2.85-.06 4.275-.06h.38c.06.11.12.17.12.32 0 .09 0 .32-.05.43-.89.11-1.56.17-1.75.53-.04.09-.09.28-.06.56 0 .19.13.45.19.6L478 9.63c.26.556 1.36 2.68 1.94 3.7.34-.53.872-1.594 1.79-3.36.592-1.17 1.02-2.02 1.23-2.552.11-.275.13-.53.13-.784 0-.146-.044-.403-.17-.62-.17-.29-1.065-.44-1.685-.57-.02-.06-.02-.252-.02-.36 0-.103.02-.23.084-.36.57 0 1.47.08 2.55.08.44 0 2.23-.06 3.1-.06.04.087.13.237.13.36-.01.086-.07.277-.11.38zm-292.76-.43c0-.086-.02-.236-.062-.3h-.494c-1.073 0-1.76.042-3.69.042-.666 0-1.653-.043-1.89-.043h-.557c-.065.04-.087.27-.087.36 0 .1.02.28.107.36.343.1 1.652.25 2.21.62.384.45.558 1.35.62 2.19.022.32.045.64.045 1.52v4.49c0 .51-.022.69-.044.92-.362-.41-.878-1.19-1.737-2.15l-7.17-7.94c-.06-.09-.19-.2-.32-.28-.17 0-.47-.02-.64-.02-1.37 0-3.86-.07-4.23-.07-.04.08-.08.21-.08.3 0 .04.04.34.07.41.32.08 1.04.19 1.61.81.35.38.95.92 1.14 1.35.07.15.09.38.09.68 0 1.12-.06 2.69-.06 4.19v4.36c0 .71-.06 1.26-.13 1.63-.45.47-1.14.81-2.25 1.09-.04.11-.08.28-.08.39 0 .06.02.28.06.3h.41c.43 0 1.42-.06 2.06-.06.95 0 1.59.06 2.47.06h1.29c.09-.02.11-.28.11-.36 0-.09-.02-.26-.06-.34-.75-.2-1.84-.37-2.57-1.33-.15-.32-.28-1.91-.28-2.67 0-.69-.02-1.63-.02-2.9 0-1.7.03-3.18.05-3.93.13.15.28.34.39.47l9.92 11.14c.11.11.49.13.6.13.11 0 .17 0 .26-.04.05-.11.2-.45.2-.97 0-.62-.02-1.27-.02-1.59V8.93c0-2.686 1.27-3.436 2.75-3.5.06-.108.08-.3.08-.408m-24.6 6.83c0 3.243-.9 6.097-2.12 7.106-.62.516-1.4.773-2.28.773-1.2 0-2.25-.47-2.85-1.44-.81-1.24-1.27-3.56-1.27-5.58 0-2.98.78-5.32 2.15-6.46.73-.6 1.48-.83 2.23-.83 1.16 0 2.28.56 2.92 1.48.82 1.12 1.22 2.73 1.22 4.96m3.89.41c0-3.01-1.33-5.3-3.82-6.68-1.33-.73-2.66-1.09-4.08-1.09-3.14 0-5.97 1.87-7.24 4-.81 1.33-1.24 2.79-1.24 4.34 0 2.47 1.21 4.9 3.08 6.29 1.42 1.04 3.03 1.55 4.9 1.55 1.14 0 2.21-.21 3.26-.62 1.19-.45 2.19-1.16 2.99-2.04 1.4-1.52 2.17-3.48 2.17-5.73m-18.9-2.74V5.17c0-.322-.13-.406-.45-.406-.64 0-4.04.084-7.47.084-2.66 0-4.87-.04-6.07-.04h-1.59c-.27 0-.36.063-.36.362v4.104c.09.064.24.084.35.084.09 0 .39 0 .47-.043.96-1.95 1.87-3.004 3-3.582.64-.067 1.91-.09 2.25-.09.02.24.04.99.06 1.892.02 1.545.02 2.21.02 5.86 0 3.16-.02 4.575-.06 4.92-.08.6.02 1.054-2.55 1.16-.06.15-.06.323-.06.493 0 .086 0 .26.02.344h.84c.8 0 2.66-.085 3.44-.085.62 0 2.62.062 3.93.062h.59c.06-.11.06-.35.06-.46 0-.13-.02-.28-.08-.39-.23 0-1.61.04-2.21-.41-.06-.24-.19-.86-.19-1.62-.02-2.32-.04-3.2-.04-4.75 0-2 .02-3.35.02-7.07.31 0 .99-.02 1.64 0 1.34.36 1.98.86 2.56 1.63.37.49.76 1.33 1.14 2.34.13.04.24.04.37.04.09 0 .36-.05.41-.09m-18.51 6.98c0-.31 0-.43-.02-.63-.1-.07-.15-.07-.32-.07-.15 0-.32 0-.47.04-.73 1.65-1.78 2.94-2.36 3.28-.32.19-.81.24-1.61.24h-1.76c-.68 0-1.22-.07-1.41-.11-.32-.06-.66-.58-.82-.92-.15-.37-.23-.37-.23-1.36v-4.7h.79c.217 0 .73.04 1.315.3.53.23.75.56.96.9.19.3.32 1.48.36 1.78.11.06.39.09.557.09.18 0 .28-.03.44-.11 0-.58-.13-2.15-.13-3.01 0-1.07.15-2.56.22-3.33-.08-.05-.21-.09-.423-.09-.15 0-.43 0-.56.06-.06.3-.3 1.2-.34 1.27-.32.54-.88.94-1.46 1.11-.39.1-.95.17-1.24.17h-.457V9.48c0-2.062.04-2.73.06-3.115.02-.256.066-.533.086-.73.2-.02.305-.04 1.29-.04 1.25 0 1.83.02 2.02.02.605.044 1.05.175 1.375.43.81.626 1.436 1.61 2.06 2.667.13.04.34.04.45.04.13 0 .15-.04.326-.128 0-1.31-.09-3.01-.13-3.548-.02-.216-.07-.28-.5-.28-.17 0-.98-.043-1.85-.043-1.22 0-1.71.02-3.58.02-1.01 0-3.09.023-3.97.023-1.282 0-2.38-.043-2.94-.043h-.73c-.06.085-.11.26-.11.347 0 .104.04.343.11.427.26.085 1.27.065 1.57.237.3.26.58.366.775 1.397.04.45.06 1.7.06 2.69v4.43c0 .91-.02 2.21-.05 2.75-.04.84-.34 1.85-.47 2.04-.196.15-1.075.28-1.93.32-.067.13-.11.35-.11.47s.043.28.11.39h.71c.684 0 3.22-.06 3.8-.06.54 0 1.57.04 2.81.04.685 0 2.706.13 7.044.13.17 0 .36.02.58-.04.06-.1.06-.15.09-.34.04-.43.04-1.7.04-3.43m-18.17.75c-.067-.19-.24-.51-.73-.51-.04 0-.107.02-.15.02-1.29 1.83-2.71 2.52-4.317 2.52-2.24 0-3.83-1.5-4.34-2.83-.28-.71-.67-2.25-.67-3.91 0-1.56.24-2.83.65-3.76.945-2.49 2.32-3.26 3.99-3.26 1.4 0 2.56.8 3.44 1.94.37.49.75 1.46 1.1 2.6.09.02.28.06.47.06.13 0 .43-.1.52-.19-.02-.24-.235-1.89-.235-2.4 0-.64.17-1.69.17-2.1-.12-.12-.56-.21-.83-.23-.32.24-.43.52-.73.88-1.2-.86-2.32-1.52-4.77-1.52-2.25 0-4.04.78-5.39 2.13-1.48 1.46-2.292 3.48-2.292 6.05 0 2.75 1.16 5.01 3.03 6.42 1.18.86 2.92 1.44 5 1.44 2.62 0 4.53-.98 5.5-2.3.38-.51.424-.64.59-1.01m-16.8-12.3c0-.08-.02-.23-.064-.3h-.49c-1.077 0-1.76.04-3.69.04-.67 0-1.657-.04-1.895-.04h-.56c-.06.04-.08.27-.08.36 0 .11.02.28.11.37.35.11 1.66.26 2.21.62.39.45.56 1.35.63 2.19.02.33.04.65.04 1.53v4.49c0 .52-.03.69-.04.93-.37-.41-.88-1.18-1.74-2.15l-7.17-7.94c-.07-.08-.2-.19-.32-.28-.18 0-.48-.02-.65-.02-1.38 0-3.87-.06-4.24-.06-.04.09-.09.22-.09.31 0 .04.04.35.06.41.32.09 1.03.19 1.61.82.34.39.94.92 1.14 1.36.06.15.08.39.08.69 0 1.12-.07 2.69-.07 4.19v4.36c0 .71-.06 1.26-.13 1.63-.45.47-1.14.81-2.26 1.09-.04.11-.08.28-.08.39 0 .06.02.28.06.3h.41c.43 0 1.42-.07 2.06-.07.95 0 1.59.06 2.47.06h1.29c.09-.03.11-.28.11-.37 0-.09-.02-.26-.06-.35-.75-.19-1.85-.36-2.58-1.33-.15-.32-.28-1.91-.28-2.67 0-.68-.02-1.63-.02-2.89 0-1.7.03-3.18.05-3.93.14.15.28.34.39.47l9.9 11.16c.11.11.5.13.6.13.11 0 .18 0 .26-.05.05-.11.2-.45.2-.97 0-.62-.02-1.26-.02-1.58v-9c0-2.69 1.27-3.44 2.75-3.5.06-.11.08-.3.08-.41M80.03 19.9c0-.107-.02-.344-.065-.432-.32-.02-1.2-.103-1.585-.19-.344-.41-.58-.884-.73-1.653-.02-1.03-.043-3.16-.043-5.16V7.18c0-.576.235-1.03.386-1.156.41-.39 1.225-.476 1.914-.56.044-.084.062-.32.062-.408 0-.13-.07-.3-.11-.345h-.62c-.91 0-3.01.11-3.74.11-.45 0-2.56-.06-3.5-.08h-.48c-.07.09-.11.17-.11.37 0 .09.02.3.04.41 1.05.09 1.52.19 1.68.3.25.2.62.67.7 1.83.02.41.04 1.29.06 3.26.02 1.08.04 2.58.04 3.83 0 .63-.05 2.02-.07 2.78-.04.52-.15 1.01-.3 1.29-.26.22-.52.61-2.09.71-.05.09-.06.37-.06.46 0 .17.04.26.04.37h.36c.86 0 3-.1 4.12-.1.32 0 2.56.06 3.26.06h.71c.06-.11.08-.28.08-.36M62.8 8.69c0 1.33-.9 2.856-1.954 3.114-.43.105-.967.172-1.764.172-.213 0-.536 0-.794-.043l-.022-1.826v-3.95c0-.26.067-.408.13-.473.065-.066.453-.13.902-.13 1.674 0 2.407.15 3.006 1.16.344.58.494 1.246.494 1.978m6.227 11.23c0-.108-.042-.364-.108-.452-.214 0-1.094-.042-1.416-.276-.1-.13-.28-.39-.36-.537-.28-.99-.6-1.654-.92-2.47-.45-1.075-1.07-2.083-1.58-2.556-.19-.17-.86-.45-1.61-.7-.34-.12-.62-.24-.88-.34.32-.06.48-.08.89-.12 1.59-.19 1.95-.47 2.36-.79.86-.64 1.33-1.63 1.33-2.79 0-1.74-1.12-3.41-2.68-3.91-.51-.15-1.43-.23-2.57-.23-1.61 0-3.87.15-4.94.15-.32 0-2.19-.04-2.94-.04-.32 0-1.14-.04-1.27-.04-.06.15-.11.33-.11.41s.02.3.04.39c.37.04 1.03.13 1.38.19.52.39.69.69.91 1.16.11.69.13 2.45.13 5.48 0 2.19.03 4.73-.08 5.54-.06.54-.26 1.19-.88 1.44-.27.04-.79.13-1.22.15-.06.11-.1.32-.1.43 0 .07.05.24.09.35.3 0 3.59-.06 4.27-.06 1.38 0 2.54.06 3.76.06.04-.08.09-.23.09-.32 0-.15-.04-.36-.08-.45-.43-.04-.97-.17-1.2-.21-.54-.26-.92-.77-.92-1.52l-.02-4.97c.18-.02.39-.02.56-.02.28 0 .61.05 1.14.35.8.45 1.19.77 1.7 1.57.69 1.08 1.14 3.05 1.35 4.62.07.46.24.84.65.89.17.02 1.31.06 2.13.06h3.07c.09-.09.13-.26.13-.36M45.71 8.8c0 1.093-.386 2.06-1.097 2.68-.446.37-1.154.583-2.23.583-.447 0-.792-.02-.922-.043-.17-.02-.27-.04-.27-.15l.02-6.29c.25-.024.62-.108 1.24-.108 1.46 0 2.36.365 2.79 1.27.3.574.47 1.305.47 2.057m3.85.08c0-1.61-.92-3.12-2.3-3.74-.7-.31-1.95-.5-3.84-.5-1.65 0-4.23.13-5.37.13-.79 0-2-.09-2.66-.09-.06.1-.1.26-.1.35 0 .08 0 .32.07.42.41.13 1.07.23 1.5.34.36.32.45.6.58 1.22.07.75.11 1.69.11 3.33 0 4.53-.02 6.91-.09 7.43-.08.64-.51 1.31-1.22 1.52-.32.06-.8.17-1.25.22-.02.1-.04.25-.04.45 0 .17.02.19.06.3.69 0 2.71-.09 3.48-.09 1.91 0 3.87.08 4.66.08h.54c.07-.09.07-.24.07-.34 0-.13 0-.31-.05-.39-.64-.09-1.6-.22-2.01-.69-.21-.26-.43-.62-.43-1.27l-.06-4.72c1.29.08 2.66.12 3.42.12.99 0 1.83-.17 2.5-.39 1.53-.58 2.47-2.09 2.47-3.74M361.27 4.8c0-.123-.086-.17-.13-.252-.88 0-2.04.06-2.49.06-1.095 0-2.427-.09-3.007-.09-.063.13-.085.15-.085.26 0 .106.02.19.044.26.62.13 1.524.28 1.696.58.15.28.195.492.195.84 0 .26-.02.52-.13.79-.19.535-.6 1.373-1.18 2.555-.984 2-1.61 3.24-1.95 3.735-.56-.94-1.81-3.436-2.106-4.08l-1.2-2.616c-.04-.09-.082-.39-.082-.58 0-.28.04-.477.08-.56.198-.39.86-.43 1.76-.54.05-.108.07-.24.07-.327 0-.15-.07-.105-.13-.21h-.39c-1.44 0-1.01.064-3.48.064-1.054 0-2.32-.06-2.49-.06-.09.15-.13.17-.13.32 0 .08.02.15.08.26 1.44.34 1.87.6 2.02.88l3.76 7.36c.367.68.58 1.22.69 1.61.15.6.17 1.48.17 2.58 0 .92-.323 1.42-.69 1.65-.15.09-1.224.24-1.72.28-.08.15-.1.19-.1.3 0 .1.04.17.06.26 1.1 0 2.24-.02 2.88-.02.45 0 1.14.02 2.41.04.73.02 1.29.04 1.677.04.04-.09.1-.17.1-.28s-.02-.17-.085-.28c-.682-.08-1.65-.21-1.863-.43-.346-.37-.52-.54-.56-1.37l-.17-3.23c-.024-.24.06-.45.08-.52.07-.24.154-.43.24-.6l3.307-6.55c.3-.56.95-1.18 1.38-1.44.3-.19.97-.32 1.4-.43.05-.11.09-.2.09-.28M343.9 9.25V5.11c0-.325-.13-.41-.456-.41-.64 0-3.604.085-7.04.085-2.66 0-4.446-.043-5.647-.043h-1.59c-.28 0-.364.066-.364.37v3.886c.08.062.15.082.254.082.08 0 .17 0 .256-.04.834-1.868 1.262-2.858 2.7-3.585.64-.065 2.9-.09 3.24-.09.02.237.04.99.06 1.89.02 1.547.02 2.383.02 6.033 0 3.158-.02 4.79-.07 5.133-.09.6.02 1.06-2.557 1.16-.06.15-.06.19-.06.37 0 .09 0 .17.02.26h.84c.79 0 1.842-.08 2.615-.08.62 0 1.81.07 3.12.07h.6c.06-.11.06-.21.06-.32 0-.13-.02-.19-.08-.3-.24 0-1.61.04-2.21-.41-.06-.24-.19-.86-.19-1.61-.02-2.32-.04-3.41-.04-4.96 0-2 .02-3.52.02-7.23.3 0 1.89-.02 2.53 0 1.33.36 1.85.86 2.43 1.63.52.69.64 1.31.97 2.34.13.05.2.05.33.05.09 0 .19-.04.24-.08m-17.84 10.6c0-.11-.02-.21-.06-.3-.32-.02-1.2-.11-1.59-.19-.34-.41-.58-.88-.73-1.66-.02-1.02-.04-3.37-.04-5.36V6.91c0-.58.23-1.03.39-1.158.4-.388 1.22-.476 1.91-.56.04-.084.06-.193.06-.277 0-.13-.07-.217-.11-.26h-.63c-.9 0-2.19.107-2.92.107-.45 0-1.74-.06-2.68-.083h-.47c-.07.08-.11.08-.11.28 0 .08.02.17.04.27 1.06.08 1.53.19 1.68.3.26.19.62.66.71 1.82.02.4.04 1.5.06 3.48.02 1.07.05 2.53.05 3.78 0 .62-.04 2.23-.06 2.98-.04.51-.15 1.01-.3 1.29-.26.21-.52.6-2.09.71-.04.08-.06.23-.06.32 0 .17.05.17.05.27h.37c.86 0 2.19-.11 3.31-.11.32 0 1.73.06 2.44.06h.71c.06-.11.09-.19.09-.28M315.4 15.9c0-1.72-.774-2.9-2.43-3.78-.45-.26-1.24-.54-2.38-.86-1.31-.368-2.406-.79-3.113-1.18-.476-.26-1.27-.97-1.27-2.34 0-1.37 1.395-2.51 3.03-2.51 1.285 0 2.32.64 2.94 1.5.536.753.73 1.1 1.33 2.45.064.02.15.04.215.04.19 0 .36-.103.47-.21-.064-.534-.17-1.286-.17-1.93 0-.56.13-1.29.19-1.68-.17-.257-.36-.3-.64-.3-.3.193-.58.49-.84.77-1.416-1.136-2.58-1.33-3.65-1.33-2.64 0-4.53 1.76-4.53 4.103 0 .793.276 1.566.794 2.36.47.67 1.15 1.183 2.08 1.57.62.25 3.41 1.09 3.8 1.24 1.72.66 2.36 1.242 2.36 2.77 0 .75-.32 1.414-.95 2.164-.56.69-1.44 1.013-2.38 1.013-1.01 0-2.75-.43-3.61-1.59-.52-.67-1.25-2.06-1.46-2.9-.15-.043-.15-.043-.3-.043-.13 0-.28.05-.41.136 0 .28.085 1.697.085 2.125 0 1.054-.19 1.567-.23 1.91.07.213.43.43.69.43.46-.39.93-.69 1.08-.69.13 0 .32.068.52.195 1.4.9 2.56 1.07 3.59 1.07 3.03 0 5.2-1.525 5.2-4.51m-19-7.393c0 1.37-1.09 2.92-2.36 3.2-.51.107-1.26.17-2.23.17-.25 0-.98 0-1.31-.04l-.02-1.89V5.88c0-.28.07-.427.15-.49.09-.06.97-.13 1.51-.13 2.02 0 2.94.194 3.67 1.245.4.58.6 1.24.6 2m4.51 11.38c0-.11-.04-.24-.11-.32-.21 0-1.1-.05-1.42-.28-.11-.13-.28-.39-.36-.54-.28-.99-.58-1.87-.9-2.69-.45-1.075-1.07-2.08-1.59-2.556-.19-.17-.8-.45-1.55-.71-.34-.13-.62-.24-.88-.35.32-.07.47-.09.88-.13 1.39-.17 1.87-.47 2.28-.79.86-.65 1.42-1.61 1.42-2.77 0-1.74-1.11-3.39-2.68-3.89-.51-.15-1.44-.24-2.57-.24-1.61 0-2.81.15-3.88.15-.32 0-1.37-.04-2.13-.04-.32 0-1.14-.04-1.27-.04-.06.15-.1.2-.1.28 0 .09.02.21.04.3.37.05 1.03.13 1.37.19.52.39.69.69.9 1.16.11.68.13 2.62.13 5.64 0 2.19.02 4.94-.09 5.76-.06.53-.25 1.18-.88 1.43-.28.05-.79.13-1.22.15-.06.11-.11.2-.11.31 0 .06.05.14.09.25.3 0 2.77-.06 3.46-.06 1.37 0 1.72.06 2.94.06.05-.09.09-.15.09-.24 0-.15-.04-.24-.09-.32-.43-.04-.96-.17-1.2-.22-.54-.26-.92-.77-.92-1.52l-.02-5.37c.18-.02.8-.02.97-.02.58 0 1.16.04 1.72.3.81.36 1.59.94 2.1 1.73.69 1.07 1.14 3.11 1.36 4.68.06.45.23.84.64.88.17.02.43.06 1.25.06h2.23c.09-.08.13-.17.13-.28m-18.03-3.25c0-.3 0-.43-.02-.62-.11-.07-.15-.07-.32-.07-.15 0-.13 0-.28.05-.48 1.56-1.29 2.73-2.21 3.28-.33.19-.91.23-1.83.23h-2.4c-.75-.03-1.23-.07-1.42-.11-.32-.06-.67-.58-.82-.92-.15-.37-.23-.5-.23-1.48v-4.9h.69c.69 0 1.25.04 1.83.3.54.24.95.58 1.16.92.2.3.26 1.48.3 1.78.11.07.17.09.35.09.17 0 .2-.02.35-.11 0-.58-.13-2.15-.13-3.01 0-1.07.15-2.38.21-3.15-.08-.04-.13-.08-.34-.08-.15 0-.22 0-.34.06-.06.3-.23 1.2-.28 1.27-.32.54-1.07.96-1.65 1.14-.38.11-.94.17-1.76.17h-.34v-2.1c0-2.07.04-2.91.07-3.29.02-.26.07-.54.09-.73.2-.02.82-.04 1.81-.04 1.25 0 2.17.02 2.36.02.6.04 1.05.17 1.37.42 1.05.82 1.33 1.36 1.91 2.66.12.04.15.04.25.04.13 0 .15-.04.33-.13 0-1.31-.085-2.79-.13-3.33-.02-.22-.064-.28-.49-.28-.175 0-.99-.05-1.85-.05-1.225 0-1.72.02-3.59.02-1.01 0-2.79.02-3.67.02-1.29 0-1.56-.04-2.12-.04H269c-.068.09-.11.17-.11.26 0 .11.04.21.11.3.255.09 1.263.06 1.56.24.305.26.58.32.777 1.36.046.45.067 1.91.067 2.9v4.42c0 .9-.02 2.39-.046 2.92-.048.84-.35 1.89-.478 2.08-.194.15-1.07.28-1.935.32-.063.13-.104.22-.104.35 0 .13.04.19.11.3h.71c.69 0 2.41-.06 2.99-.06.54 0 1.27.04 2.51.04.69 0 2.71.13 7.05.13.17 0 .37.02.58-.05.06-.1.06-.15.09-.34.05-.43.05-1.48.05-3.22M267.03 4.9c0-.09-.02-.22-.1-.24h-.73c-.51 0-1.33.04-1.69.04-1.74 0-2.36-.11-2.62-.11h-.39c-.04.108-.11.17-.11.278 0 .084.05.15.05.234.53.06 1.01.17 1.48.32.26.25.53.77.53 1.35 0 .21-.22 1.22-.52 1.95l-3.46 8.5-4.26-10.76c.06-.52.34-1.01.7-1.2.37-.05.81-.17 1.39-.17.05-.09.09-.22.09-.3s-.02-.22-.1-.24h-.54c-.66 0-1.67.08-2.81.08-.49 0-1.46-.05-2.4-.05h-.83c-.04.08-.09.13-.09.25 0 .13.02.17.06.26.61.15 1.19.38 1.81.73.4.6 1.28 2.76 1.76 3.9l1.78 4.29c1.48 3.562 2.36 5.95 2.47 6.353.11.06 0 .13.19.13s.17-.048.21-.15l5.55-13.3c.19-.476.49-.93.77-1.228.35-.39 1.06-.535 1.72-.69.02-.08.08-.17.08-.275m-18.8 14.97c0-.108-.02-.21-.07-.298-.32-.02-1.2-.11-1.59-.19-.35-.405-.59-.88-.73-1.655-.03-1.03-.05-3.37-.05-5.37v-5.4c0-.58.24-1.03.39-1.16.41-.39 1.23-.48 1.91-.56.05-.09.07-.19.07-.28 0-.13-.06-.22-.102-.26h-.63c-.9 0-2.19.1-2.92.1-.45 0-1.735-.06-2.68-.09h-.47c-.07.08-.11.08-.11.28 0 .08.02.17.04.27 1.05.08 1.52.19 1.67.3.26.19.624.66.71 1.82.023.4.045 1.5.066 3.48.02 1.07.05 2.53.05 3.78 0 .62-.05 2.23-.07 2.98-.045.51-.15 1.01-.3 1.29-.257.21-.51.6-2.08.71-.046.08-.065.23-.065.32 0 .17.04.17.04.27h.37c.86 0 2.19-.11 3.3-.11.33 0 1.74.06 2.45.06h.71c.07-.11.09-.19.09-.28m-9.71-15c0-.09-.02-.15-.06-.22h-.49c-1.07 0-1.55.04-3.48.04-.67 0-1.66-.05-1.89-.05H232c-.066.04-.086.19-.086.28 0 .1.02.15.11.23.345.1 1.656.25 2.214.62.39.45.56 1.35.62 2.19.02.32.045.64.045 1.52v6.38c0 .51-.02.68-.04.92-.36-.41-.99-1.21-1.823-2.19L224.827 5c-.06-.09-.19-.2-.32-.28-.177 0-.39-.02-.56-.02-1.378 0-2.578-.07-2.94-.07-.04.087-.068.13-.068.214 0 .04.02.212.04.28.32.08 1.26.19 1.65.6.35.383.86.84 1.06 1.262.06.15.08.385.08.686 0 1.12-.06 3.16-.06 4.66v4.58c0 .705-.06 1.266-.13 1.63-.45.472-1.14.815-2.25 1.095-.04.11-.09.145-.09.26 0 .06.02.19.06.21h.41c.43 0 1.42-.067 2.06-.067.94 0 1.37.066 2.25.066h1.29c.08-.02.1-.194.1-.28 0-.084-.02-.13-.06-.21-.75-.196-1.85-.368-2.58-1.33-.15-.326-.28-1.96-.28-2.71 0-.69-.02-1.805-.02-3.07 0-1.697.02-4.037.04-4.79.13.15.32.39.48.56l10.18 11.92c.1.103.15.123.26.123.1 0 .04 0 .12-.04.05-.11.11-.46.11-.97 0-.62-.02-1.27-.02-1.59v-9.1c0-2.68 1.27-3.44 2.75-3.5.06-.11.08-.17.08-.28m-19.88.11c0-.09-.04-.22-.11-.28h-.62c-.67 0-1.57.04-2.35.04-.86 0-1.83-.04-2.45-.04h-.78c-.06.13-.09.17-.09.28 0 .08.02.17.06.27.09 0 1.66.02 1.94.4.23.32.75 1.11.83 1.59.05.21.18 1.09.18 2.36 0 1.82 0 3.05-.02 3.69-.04 1.2-.17 2.14-.38 2.85-.6 1.87-2 2.79-4.21 2.79-.94 0-1.76-.19-2.51-.54-1.4-.69-2.06-2-2.08-2.7l-.11-6.45-.02-2.62c0-.49.62-.95.832-1.2.173-.09 1.12-.18 1.653-.22.07-.13.11-.19.11-.3 0-.11-.066-.22-.15-.28l-.82.02c-.79.02-1.84.04-2.51.04-1.03 0-1.823-.02-2.47-.02h-.9c-.08.06-.1.19-.1.3s.02.19.085.26c.68.08 1.14.15 1.44.21.36.22.62.58.75.95.02.28.06.96.06 2.32v5.15c0 1.33.06 2.28.21 2.88.28 1.12.88 2 1.863 2.64 1.05.69 2.36 1.03 3.93 1.03 1.44 0 2.66-.3 3.69-.88 1.072-.57 1.74-1.52 2.123-2.85.216-.79.345-1.65.345-2.55V10c0-.77.04-1.738.04-2.123.02-1.157.32-1.847.64-2.362.35-.11.65-.17 1.788-.3.05-.086.09-.15.09-.257"/>
</svg>
