<svg xmlns="http://www.w3.org/2000/svg" width="49.8" height="52.7" viewBox="0 0 49.8 52.7">
  <g fill="#F58025">
    <path d="M49.7 10.1v-.3h-.1c-.4-1.6-1.9-2.7-3.7-2.7v2.7l.1 39.1s-5.5-1.8-10.5-3.9c-5.8-2.5-10.4.2-10.8.5-.4-.3-5-3-10.8-.5-5 2.2-10.5 3.9-10.5 3.9l.2-39.1V6.9C1.8 6.9.4 8.1.1 9.8H0v42.9h49.7V11.4c0-.2.1-.4.1-.7 0-.2 0-.4-.1-.6z"/>
    <path d="M12.5 31.9c1.1 2.1 2.5 4 3.9 5.9l8.4-8.2 8.5 8.2c1.5-1.8 2.8-3.8 3.9-5.9L24.9 20 12.5 31.9zM42.8 6.7c-1.5.4-3 .7-4.6.7-5.7 0-10.6-3-13.3-7.4-2.7 4.4-7.6 7.4-13.3 7.4-1.6 0-3.1-.2-4.6-.7-.3 4.3-.1 8.6.8 12.7H42c.9-4.3 1.1-8.5.8-12.7"/>
  </g>
</svg>
