<svg xmlns="http://www.w3.org/2000/svg" width="487.104" height="26.916" viewBox="0 0 487.104 26.916">
  <g fill="#231F20">
    <path d="M25.412 5.148v-.12h-.03c-.214-.792-.974-1.382-1.88-1.382V5.03H23.5l.047 19.974s-2.814-.91-5.357-2.016c-2.94-1.28-5.29.11-5.504.246v.016l-.01-.008-.012.008v-.016c-.215-.134-2.564-1.527-5.504-.246-2.543 1.105-5.357 2.016-5.357 2.016L1.85 5.03h-.01V3.542c-.896 0-1.64.64-1.805 1.486H.002v.317L0 5.385l.002.035v21.496h25.41V5.828c.02-.11.035-.223.035-.34s-.013-.23-.035-.34z"/>
    <path d="M6.393 16.32c.588 1.05 1.263 2.053 2.015 3.004l4.31-4.193 4.324 4.21c.744-.94 1.416-1.94 2.01-2.99l-6.334-6.09-6.325 6.08zM21.855 3.436c-.74.225-1.53.348-2.35.348-2.893 0-5.42-1.52-6.78-3.783-1.365 2.27-3.892 3.79-6.782 3.79-.818 0-1.607-.12-2.35-.34-.193 2.21-.053 4.38.387 6.48h17.478c.454-2.18.58-4.36.397-6.48M384.63 19.47c-.042.597-.063.66-.448.66-.445 0-3.318.063-6.213.063-1.66 0-2.96-.02-4.3-.02-.92 0-2.43.063-3.17.063h-.43c-.05-.086-.07-.277-.07-.36 0-.11.04-.3.06-.384.51-.15 1.42-.363 1.95-.617.17-.3.27-.938.29-1.703 0-.36.02-1.168.02-2.852 0-.682-.04-2.68-.11-5.51-.02-1.086-.07-1.914-.13-2.125-.11-.32-.28-.682-.71-.873-.34-.086-.83-.066-1.34-.193-.05-.09-.07-.32-.07-.43 0-.15.04-.26.1-.34l8.02-.03c.06.04.08.25.08.36 0 .11-.02.32-.09.38-.98.04-2.19.02-2.19 1.61V9.6l.13 7.956c0 .403.38 1 .68 1.255.42.36.93.56 1.81.56 1.23 0 1.64-.25 2.59-.74 1.19-.61 2.04-1.99 2.66-3.49.11-.04.32-.06.43-.06.17 0 .3.02.43.11.02.81.02 2.09.02 2.34 0 .62-.02 1.28-.07 1.94zm10.81.702h-.704c-.7 0-2.914-.062-3.232-.062-1.105 0-3.236.105-4.088.105h-.36c0-.105-.042-.19-.042-.36 0-.09.02-.362.064-.448 1.55-.104 1.81-.488 2.064-.7.148-.278.254-.77.297-1.278.02-.75.06-2.13.06-2.75 0-1.24-.02-2.72-.05-3.79-.02-1.96-.05-2.83-.07-3.24-.09-1.15-.45-1.62-.7-1.81-.15-.11-.62-.22-1.66-.3-.02-.11-.05-.32-.05-.41 0-.19.04-.28.1-.36h.47c.93.02 3.02.08 3.47.08.72 0 2.81-.11 3.7-.11h.62c.04.04.1.21.1.34 0 .08-.02.32-.07.4-.68.08-1.49.17-1.89.55-.15.12-.39.57-.39 1.14v5.23c0 1.98.02 4.08.04 5.1.14.77.38 1.24.72 1.64.38.09 1.25.17 1.57.19.04.09.06.32.06.43 0 .08-.02.25-.08.36zm17.45-.98c-.96.896-2.13 1.044-3.66 1.02l-6.43-.084c-.57 0-2.423.043-3.02.043-.402 0-.785 0-.87-.02-.042-.08-.065-.29-.065-.38 0-.08.023-.27.107-.42 1.234 0 2.172-.23 2.256-.55.127-.44.256-1.19.318-1.87.023-.57.064-2.29.064-4.27 0-1.78-.107-4.76-.127-4.98-.02-.32-.064-.68-.13-.95-.104-.4-.4-.87-1-.96-.51-.06-1.19-.14-1.51-.19-.042-.12-.063-.29-.063-.38 0-.13.02-.23.084-.34.107-.02.342-.02.514-.02h5.043c1.3 0 2.77-.06 3.64-.06 1.17 0 2.22.15 2.83.45 1.43.67 2.06 1.83 2.06 3.47 0 1.34-.51 2.32-1.4 2.73-.27.13-1.06.34-1.44.45-.1.03-.38.09-.38.18 0 .13.37.15.62.19.34.06 1.3.26 1.55.36.39.15 1.28.75 1.68 1.51.37.64.56 1.36.56 2.17 0 1.22-.43 2.22-1.21 2.96zm-2.958-4.872c-.62-1.107-1.256-1.383-2.512-1.66-.297-.06-.79-.146-1.428-.146-.445 0-.807.02-.87.105 0 .04-.022.29-.022.72v3.76c0 .61.02.77.064 1.02.215.47.617.87 1.064 1.17.17.04.658.06.895.06 1.254 0 1.7-.24 2.318-.85.56-.6.85-1.47.85-2.7 0-.58-.12-1.09-.35-1.5zm-1.086-7.445c-.34-.64-.83-1-1.49-1.148-.3-.086-.725-.13-1.213-.13-.275 0-.617.022-.936.022-.02.66-.064 3.29-.064 3.29v1.69c0 .59.02 1 .064 1.04.02.04.3.04.617.04.873 0 2.254-.24 2.51-.45.107-.08.234-.21.36-.45.386-.64.575-1.34.575-2.09 0-.66-.15-1.3-.43-1.83zm24.79 13.318h-3.04c-.81 0-1.938-.043-2.107-.064-.41-.05-.58-.43-.65-.88-.21-1.56-.66-3.51-1.34-4.58-.51-.79-.9-1.11-1.68-1.56-.54-.3-.86-.34-1.13-.34-.17 0-.38 0-.55.02l.02 4.91c0 .74.38 1.25.91 1.51.23.04.76.17 1.19.21.04.08.08.29.08.45 0 .08-.04.23-.09.31-1.21 0-2.36-.07-3.73-.07-.68 0-3.94.07-4.24.07-.04-.11-.08-.28-.08-.34 0-.11.04-.32.11-.43.42-.03.93-.11 1.21-.15.61-.26.81-.9.87-1.43.1-.81.08-3.32.08-5.5 0-3-.02-4.74-.13-5.42-.22-.47-.39-.77-.9-1.15-.34-.06-1-.15-1.36-.19-.03-.09-.05-.3-.05-.38 0-.09.04-.25.1-.4.13 0 .93.04 1.25.04.74 0 2.59.04 2.91.04 1.06 0 3.3-.15 4.89-.15 1.13 0 2.04.08 2.55.23 1.55.49 2.66 2.15 2.66 3.87 0 1.14-.47 2.12-1.32 2.76-.41.32-.77.6-2.34.79-.4.04-.55.06-.87.13.25.1.53.21.87.34.74.25 1.4.53 1.6.7.51.46 1.13 1.47 1.57 2.53.32.81.64 1.47.91 2.44.09.14.26.4.36.53.32.23 1.19.27 1.41.27.06.09.1.34.1.45s-.04.28-.12.36zm-6.53-13.447c-.598-1-1.32-1.148-2.98-1.148-.45 0-.83.064-.896.13-.062.06-.127.21-.127.466v3.916l.02 1.81c.257.042.575.042.79.042.785 0 1.316-.064 1.744-.172 1.04-.254 1.936-1.766 1.936-3.084 0-.726-.15-1.384-.49-1.96zm24.87 13.447c-1.382 0-3.085-.064-4.403-.064-.81 0-1.744.04-2.107.04h-1.596c-.105-.09-.127-.3-.148-.39 0-.09.02-.26.127-.39.83-.05 1.27-.13 1.57-.28.19-.21.29-.62.29-1.04-.09-.32-.26-.83-.55-1.68-.17-.51-.35-.94-.49-1.3-.09-.15-.28-.49-.45-.62-.9.02-3.28-.02-4.77.04-.13.23-.24.51-.32.78l-.81 2.49c.08.7.32 1.17.62 1.45.19.08.76.17 1.3.21.06.1.1.27.08.36 0 .08-.03.25-.09.38h-.57c-.77 0-1.6-.09-2.41-.09-.75 0-2.04.04-2.49.04-.06-.11-.08-.24-.08-.34.02-.09.06-.3.08-.41.91-.26 1.89-.49 2.23-1.26.63-1.56.49-1.15 1.51-3.85 1.04-2.77 1.81-4.71 2.27-5.81.59-1.37.89-2.13.95-2.28.21-.58.46-1.06.66-1.24.13-.15.57-.3.74-.3.21 0 1.08.17 1.21.34.04.06.13.23.19.4l.93 2.32 3.19 7.96c.41.98.6 1.42.96 2.27.17.42.43.91.55 1.02.1.08 1.21.38 1.76.47.04.08.1.27.13.36 0 .08-.07.28-.13.34zm-8.425-7.828c-.34-.94-1.06-2.746-1.46-3.7-.06-.13-.12-.278-.19-.43-.23.575-.51 1.214-.91 2.214-.59 1.51-1.08 2.89-1.17 3.18h2.58c.6 0 1.19 0 1.58-.08-.13-.45-.21-.73-.4-1.19zm25.9 7.828h-3.04c-.81 0-1.94-.043-2.1-.064-.4-.05-.57-.43-.63-.88-.21-1.56-.66-3.51-1.34-4.58-.51-.79-.89-1.11-1.68-1.56-.53-.3-.85-.34-1.12-.34-.17 0-.38 0-.55.02l.02 4.91c0 .74.38 1.25.92 1.51.24.04.77.17 1.19.21.05.08.09.29.09.45 0 .08-.04.23-.08.31-1.21 0-2.36-.07-3.72-.07-.68 0-3.93.07-4.23.07-.04-.11-.09-.28-.09-.34 0-.11.04-.32.11-.43.43-.03.94-.11 1.21-.15.62-.26.81-.9.87-1.43.11-.81.09-3.32.09-5.5 0-3-.02-4.74-.12-5.42-.21-.47-.38-.77-.89-1.15-.34-.07-1-.15-1.36-.19-.02-.09-.04-.3-.04-.39 0-.09.05-.26.11-.41.13 0 .94.04 1.26.04.75 0 2.6.04 2.92.04 1.06 0 3.3-.15 4.9-.15 1.13 0 2.04.08 2.56.23 1.55.49 2.66 2.14 2.66 3.87 0 1.14-.47 2.12-1.32 2.76-.41.32-.77.6-2.34.79-.4.04-.55.06-.87.13.26.1.54.21.88.34.74.25 1.4.53 1.6.7.51.46 1.13 1.47 1.57 2.53.32.81.64 1.47.92 2.44.09.14.26.4.36.53.32.23 1.19.27 1.41.27.06.09.1.34.1.45s-.04.28-.12.36zm-6.53-13.447c-.59-1-1.32-1.148-2.98-1.148-.44 0-.83.064-.89.13-.06.06-.13.21-.13.466v3.916l.02 1.81c.26.042.58.042.79.042.79 0 1.32-.064 1.75-.172 1.05-.254 1.94-1.766 1.94-3.084 0-.726-.14-1.384-.49-1.96zM487 5.45c-.426.104-1.234.233-1.53.425-.427.254-.98.744-1.278 1.297l-3.34 6.428c-.107.168-.15.36-.15.572 0 .023-.02.275 0 .533l.19 2.998c.044.83.214 1.002.556 1.363.213.213 1.17.34 1.852.426.062.105.084.273.084.383 0 .105-.06.297-.103.383-.38 0-.94-.02-1.66-.043-1.25-.02-2.74-.043-3.19-.043-.64 0-2.57.02-3.66.02-.02-.083-.06-.255-.06-.36s.02-.256.11-.404c.49-.043 1.56-.19 1.7-.277.37-.23.69-.72.69-1.63 0-1.08-.04-1.77-.19-2.36-.1-.38-.29-.91-.68-1.59l-3.76-7.11c-.14-.27-.68-.53-2.1-.87-.06-.1-.1-.27-.1-.36 0-.15.05-.27.13-.43.17 0 2.24.07 3.28.07 2.45 0 2.85-.06 4.28-.06h.38c.07.11.13.17.13.32 0 .09 0 .32-.04.43-.89.11-1.55.17-1.74.53-.04.09-.08.28-.06.56 0 .19.13.45.2.59l1.14 2.38c.26.56 1.36 2.68 1.94 3.7.34-.53.87-1.59 1.79-3.36.59-1.17 1.02-2.02 1.23-2.55.11-.27.13-.53.13-.78 0-.14-.04-.4-.17-.61-.17-.29-1.06-.44-1.68-.57-.02-.06-.02-.25-.02-.36s.02-.23.09-.36c.57 0 1.47.08 2.55.08.45 0 2.24-.06 3.11-.06.05.09.13.24.13.36 0 .09-.06.28-.11.38zm-292.755-.43c0-.086-.02-.236-.064-.3h-.49c-1.07 0-1.76.042-3.69.042-.66 0-1.65-.043-1.89-.043h-.55c-.06.04-.08.27-.08.36 0 .1.03.28.11.36.34.1 1.65.25 2.21.62.39.45.56 1.35.62 2.19.02.32.05.64.05 1.52v4.49c0 .51-.02.69-.04.92-.36-.41-.88-1.19-1.74-2.15l-7.17-7.94c-.06-.09-.19-.2-.32-.28-.17 0-.47-.02-.64-.02-1.37 0-3.86-.07-4.23-.07-.04.08-.08.21-.08.3 0 .04.04.34.07.41.32.08 1.03.19 1.61.81.35.38.95.92 1.14 1.35.07.15.09.38.09.68 0 1.12-.06 2.69-.06 4.19v4.36c0 .71-.07 1.26-.13 1.63-.45.47-1.14.81-2.25 1.09-.04.11-.08.28-.08.39 0 .06.02.28.07.3h.41c.43 0 1.42-.06 2.06-.06.95 0 1.59.06 2.47.06h1.29c.09-.02.11-.28.11-.36 0-.09-.02-.26-.06-.34-.75-.2-1.84-.37-2.57-1.33-.15-.32-.28-1.91-.28-2.67 0-.69-.02-1.63-.02-2.9 0-1.7.02-3.18.05-3.93.13.15.28.34.39.47l9.91 11.14c.11.11.49.13.6.13.11 0 .17 0 .26-.04.04-.11.19-.45.19-.97 0-.62-.02-1.27-.02-1.59V8.93c0-2.686 1.27-3.436 2.75-3.5.06-.108.08-.3.08-.408m-24.6 6.83c0 3.243-.9 6.097-2.12 7.106-.63.516-1.4.773-2.28.773-1.2 0-2.25-.47-2.86-1.44-.81-1.24-1.27-3.56-1.27-5.58 0-2.98.78-5.32 2.15-6.46.73-.6 1.48-.83 2.24-.83 1.16 0 2.27.56 2.92 1.48.82 1.12 1.23 2.73 1.23 4.96m3.89.41c0-3.01-1.33-5.3-3.82-6.68-1.33-.73-2.67-1.09-4.08-1.09-3.14 0-5.97 1.87-7.24 4-.81 1.33-1.24 2.79-1.24 4.34 0 2.47 1.21 4.9 3.08 6.29 1.42 1.04 3.03 1.55 4.9 1.55 1.14 0 2.21-.21 3.26-.62 1.19-.45 2.19-1.16 2.99-2.04 1.4-1.52 2.17-3.48 2.17-5.73m-18.9-2.72v-4.4c0-.32-.12-.4-.45-.4-.64 0-4.03.09-7.47.09-2.66 0-4.87-.04-6.07-.04h-1.59c-.27 0-.36.07-.36.36v4.1c.09.07.24.09.35.09.08 0 .38 0 .47-.04.96-1.95 1.86-3 3-3.58.64-.06 1.91-.09 2.25-.09.02.24.05.99.07 1.9.02 1.55.02 2.21.02 5.86 0 3.16-.02 4.58-.06 4.92-.082.6.02 1.05-2.55 1.16-.07.15-.07.32-.07.49 0 .09 0 .26.02.35h.84c.8 0 2.66-.08 3.44-.08.62 0 2.62.07 3.93.07h.6c.06-.11.06-.35.06-.46 0-.13-.02-.28-.09-.39-.23 0-1.61.04-2.21-.41-.06-.24-.19-.86-.19-1.62-.022-2.32-.05-3.2-.05-4.75 0-1.99.02-3.35.02-7.06.3 0 .987-.02 1.63 0 1.33.36 1.98.86 2.56 1.63.36.49.75 1.33 1.137 2.34.13.04.24.04.36.04.086 0 .36-.04.408-.08m-18.51 6.98c0-.31 0-.43-.02-.63-.104-.07-.15-.07-.32-.07-.15 0-.32 0-.47.05-.73 1.65-1.783 2.94-2.364 3.29-.32.2-.82.24-1.61.24h-1.77c-.68 0-1.22-.07-1.41-.11-.33-.06-.67-.58-.82-.92-.15-.37-.23-.37-.23-1.35v-4.7h.79c.21 0 .73.04 1.31.3.53.24.75.56.96.9.19.3.32 1.48.36 1.78.11.06.39.09.56.09.17 0 .28-.02.43-.1 0-.58-.135-2.15-.135-3.01 0-1.07.15-2.55.22-3.32-.08-.05-.22-.09-.43-.09-.157 0-.436 0-.566.06-.068.3-.3 1.2-.35 1.27-.32.54-.88.94-1.46 1.11-.39.11-.944.17-1.243.17h-.453v-2c0-2.06.05-2.73.06-3.11.03-.25.07-.53.09-.73.2-.02.31-.04 1.29-.04 1.25 0 1.83.02 2.02.02.6.05 1.05.18 1.38.43.81.63 1.43 1.61 2.06 2.67.13.04.34.04.45.04.13 0 .15-.04.32-.123 0-1.31-.09-3.01-.13-3.55-.023-.216-.07-.28-.5-.28-.17 0-.99-.04-1.85-.04-1.22 0-1.71.02-3.58.02-1.01 0-3.1.02-3.98.02-1.29 0-2.383-.043-2.94-.043h-.73c-.063.084-.11.26-.11.346 0 .104.047.343.11.427.26.088 1.27.068 1.57.24.3.26.58.36.77 1.393.04.45.06 1.7.06 2.69v4.43c0 .91-.03 2.21-.05 2.75-.04.84-.34 1.85-.47 2.04-.19.15-1.07.28-1.93.32-.06.13-.1.35-.1.47s.04.28.1.39h.71c.68 0 3.22-.06 3.8-.06.54 0 1.57.04 2.81.04.69 0 2.71.13 7.05.13.17 0 .36.02.58-.04.06-.1.06-.15.09-.34.03-.43.03-1.7.03-3.43m-18.17.75c-.06-.19-.23-.51-.73-.51-.04 0-.1.02-.15.02-1.28 1.83-2.7 2.52-4.31 2.52-2.23 0-3.82-1.5-4.34-2.83-.27-.71-.66-2.25-.66-3.91 0-1.56.236-2.83.645-3.76.95-2.49 2.32-3.26 3.99-3.26 1.39 0 2.55.8 3.43 1.94.36.49.75 1.46 1.09 2.6.09.02.28.06.472.06.13 0 .43-.1.52-.19-.02-.24-.24-1.89-.24-2.4 0-.64.17-1.69.17-2.1-.13-.12-.56-.21-.834-.23-.32.24-.43.52-.73.88-1.2-.86-2.32-1.52-4.77-1.52-2.25 0-4.03.78-5.39 2.13-1.48 1.46-2.3 3.48-2.3 6.05 0 2.75 1.16 5.01 3.03 6.42 1.18.86 2.92 1.44 5 1.44 2.62 0 4.534-.98 5.5-2.3.384-.51.43-.64.6-1.01m-16.72-12.3c0-.08-.026-.23-.07-.3h-.49c-1.08 0-1.76.05-3.69.05-.67 0-1.66-.04-1.89-.04h-.56c-.06.04-.09.28-.09.37 0 .11.02.28.1.37.34.11 1.65.26 2.21.63.38.45.56 1.36.62 2.19.02.33.04.65.04 1.53v4.49c0 .52-.03.69-.05.93-.365-.41-.88-1.18-1.74-2.15l-7.11-8c-.068-.08-.198-.19-.325-.28-.17 0-.475-.02-.644-.02-1.38 0-3.87-.06-4.23-.06-.04.09-.09.22-.09.31 0 .04.047.342.07.41.32.09 1.03.19 1.61.82.345.382.94.92 1.14 1.35.06.15.085.385.085.686 0 1.12-.06 2.69-.06 4.19v4.36c0 .71-.06 1.27-.13 1.63-.45.48-1.14.82-2.25 1.1-.04.11-.08.28-.08.39 0 .07.03.28.07.3h.41c.43 0 1.42-.06 2.07-.06.95 0 1.59.07 2.47.07h1.29c.09-.02.11-.28.11-.36 0-.09-.02-.26-.06-.34-.75-.19-1.85-.37-2.58-1.33-.15-.32-.27-1.91-.27-2.66 0-.68-.02-1.63-.02-2.89 0-1.69.03-3.17.04-3.93.13.15.28.35.39.48l9.9 11.13c.11.11.5.13.6.13.11 0 .18 0 .26-.04.05-.1.2-.45.2-.96 0-.62-.02-1.26-.02-1.58v-9c0-2.685 1.27-3.435 2.75-3.5.07-.107.09-.3.09-.407M80.03 19.91c0-.108-.02-.345-.068-.433-.32-.02-1.2-.104-1.59-.19-.34-.41-.58-.885-.73-1.654-.02-1.03-.04-3.158-.04-5.152V7.19c0-.577.232-1.03.383-1.157.408-.39 1.224-.475 1.912-.56.045-.083.062-.32.062-.407 0-.13-.07-.3-.11-.344h-.63c-.9 0-3.01.1-3.74.1-.45 0-2.55-.064-3.5-.086h-.47c-.06.085-.11.173-.11.366 0 .085.02.3.04.407 1.05.08 1.52.19 1.68.3.25.19.62.66.71 1.82.02.4.04 1.28.06 3.26.02 1.07.04 2.58.04 3.82 0 .62-.05 2.02-.07 2.77-.04.51-.15 1-.3 1.28-.26.21-.52.6-2.08.71-.05.08-.06.36-.06.45 0 .17.04.25.04.36h.36c.85 0 3-.11 4.12-.11.32 0 2.55.06 3.26.06h.71c.06-.11.08-.28.08-.36M62.8 8.69c0 1.33-.9 2.85-1.95 3.11-.43.1-.97.17-1.77.17-.216 0-.54 0-.796-.045l-.02-1.826V6.15c0-.26.07-.407.13-.472.07-.066.46-.13.91-.13 1.673 0 2.41.15 3.01 1.16.34.58.49 1.246.49 1.98m6.223 11.23c0-.11-.04-.365-.11-.45-.213 0-1.093-.045-1.415-.28-.11-.13-.28-.39-.368-.536-.28-.99-.6-1.654-.924-2.47-.45-1.075-1.075-2.083-1.59-2.556-.19-.17-.86-.45-1.61-.7-.344-.12-.62-.24-.88-.34.32-.06.475-.08.883-.12 1.587-.19 1.952-.47 2.36-.79.857-.646 1.33-1.634 1.33-2.79 0-1.74-1.116-3.414-2.684-3.91-.52-.15-1.44-.236-2.58-.236-1.61 0-3.87.15-4.94.15-.32 0-2.19-.045-2.94-.045-.33 0-1.14-.044-1.27-.044-.07.15-.11.33-.11.41s.02.3.04.39c.36.04 1.03.13 1.37.19.51.39.69.69.9 1.16.11.69.13 2.45.13 5.48 0 2.19.02 4.73-.09 5.54-.06.54-.26 1.19-.88 1.44-.28.04-.79.13-1.23.15-.06.11-.11.32-.11.43 0 .07.04.24.08.35.3 0 3.58-.06 4.27-.06 1.37 0 2.53.06 3.75.06.04-.08.08-.23.08-.32 0-.15-.05-.36-.09-.45-.43-.04-.97-.17-1.2-.21-.54-.26-.92-.77-.92-1.52l-.03-4.97c.17-.02.38-.02.56-.02.28 0 .6.05 1.13.35.8.45 1.19.77 1.7 1.57.69 1.08 1.14 3.06 1.35 4.62.06.46.23.84.64.89.17.02 1.31.06 2.12.06h3.07c.09-.09.13-.26.13-.37M45.71 8.8c0 1.093-.386 2.06-1.098 2.68-.45.37-1.16.583-2.23.583-.45 0-.8-.02-.93-.043-.17-.02-.278-.04-.278-.15l.02-6.29c.26-.024.63-.108 1.25-.108 1.46 0 2.36.365 2.79 1.27.3.574.47 1.305.47 2.057m3.85.08c0-1.61-.92-3.12-2.3-3.74-.703-.31-1.95-.5-3.84-.5-1.66 0-4.23.13-5.37.13-.79 0-2-.09-2.66-.09-.07.1-.11.26-.11.35 0 .08 0 .32.06.42.4.13 1.07.23 1.5.34.36.32.45.6.57 1.22.07.75.11 1.69.11 3.33 0 4.53-.02 6.91-.084 7.43-.087.64-.515 1.31-1.226 1.52-.32.06-.793.17-1.245.22-.02.1-.04.25-.04.45 0 .17.02.19.06.3.69 0 2.71-.09 3.48-.09 1.91 0 3.86.08 4.65.08h.54c.06-.09.06-.24.06-.34 0-.13 0-.31-.04-.39-.65-.09-1.61-.22-2.02-.69-.22-.26-.43-.62-.43-1.27l-.07-4.72c1.28.08 2.66.12 3.41.12.99 0 1.83-.17 2.49-.39 1.52-.58 2.47-2.09 2.47-3.74m311.7-4.03c0-.13-.09-.17-.13-.26-.88 0-2.04.06-2.49.06-1.1 0-2.43-.09-3.01-.09-.06.13-.09.15-.09.26 0 .1.02.19.04.25.62.13 1.52.28 1.69.57.15.28.19.5.19.84 0 .26-.02.52-.13.8-.19.53-.6 1.37-1.18 2.55-.99 2-1.61 3.24-1.96 3.73-.56-.94-1.8-3.44-2.1-4.08l-1.2-2.62c-.04-.09-.08-.39-.08-.58 0-.28.04-.48.08-.56.19-.39.86-.43 1.76-.54.04-.11.06-.24.06-.32 0-.15-.07-.11-.13-.22h-.39c-1.44 0-1.01.06-3.48.06-1.05 0-2.32-.06-2.49-.06-.09.15-.13.17-.13.32 0 .08.02.15.08.26 1.44.34 1.87.6 2.02.88l3.76 7.36c.36.68.58 1.22.69 1.61.15.6.17 1.48.17 2.57 0 .92-.32 1.42-.69 1.65-.15.09-1.23.24-1.72.28-.08.15-.1.19-.1.3 0 .1.04.17.06.25 1.1 0 2.23-.02 2.88-.02.45 0 1.13.02 2.4.05.73.02 1.29.04 1.68.04.04-.09.1-.17.1-.28s-.02-.17-.09-.28c-.68-.08-1.65-.217-1.87-.43-.34-.366-.52-.536-.56-1.37l-.17-3.22c-.02-.24.06-.45.09-.52.07-.23.15-.43.24-.6l3.3-6.55c.3-.56.94-1.18 1.37-1.44.3-.19.97-.32 1.39-.427.04-.104.09-.19.09-.28M343.82 9.2V5.1c0-.326-.13-.41-.46-.41-.644 0-3.606.084-7.044.084-2.66 0-4.446-.044-5.647-.044h-1.59c-.28 0-.37.07-.37.37V9c.08.062.15.082.26.082.08 0 .17 0 .26-.04.83-1.868 1.26-2.858 2.7-3.585.64-.065 2.9-.09 3.24-.09.02.237.04.99.06 1.89.02 1.547.02 2.383.02 6.033 0 3.158-.02 4.79-.06 5.133-.08.6.03 1.06-2.55 1.16-.07.15-.07.19-.07.37 0 .09 0 .17.02.26h.84c.79 0 1.84-.08 2.62-.08.62 0 1.81.07 3.11.07h.6c.06-.11.06-.21.06-.32 0-.13-.02-.19-.08-.3-.23 0-1.61.04-2.21-.41-.06-.24-.19-.86-.19-1.61-.02-2.32-.04-3.41-.04-4.96 0-2 .02-3.52.02-7.23.3 0 1.89-.02 2.53 0 1.334.36 1.85.86 2.43 1.63.52.69.643 1.31.965 2.34.13.05.19.05.32.05.08 0 .19-.04.234-.08M326 19.92c0-.11-.02-.21-.064-.3-.32-.02-1.2-.11-1.59-.19-.344-.41-.58-.88-.73-1.66-.02-1.03-.04-3.37-.04-5.36v-5.5c0-.58.236-1.03.39-1.15.41-.39 1.225-.47 1.91-.56.043-.08.064-.19.064-.27 0-.13-.07-.215-.11-.26h-.63c-.903 0-2.19.11-2.923.11-.45 0-1.74-.06-2.686-.084h-.47c-.07.08-.11.08-.11.28 0 .08.02.17.04.27 1.06.08 1.53.19 1.68.3.26.19.62.66.71 1.82.02.4.04 1.5.07 3.48.02 1.07.04 2.53.04 3.78 0 .62-.04 2.23-.07 2.98-.04.51-.15 1.01-.3 1.29-.26.21-.51.6-2.08.71-.04.08-.06.23-.06.32 0 .17.04.17.04.27h.36c.86 0 2.19-.11 3.31-.11.32 0 1.74.06 2.45.06h.71c.07-.11.09-.19.09-.28m-10.61-3.95c0-1.72-.78-2.9-2.43-3.78-.45-.26-1.25-.54-2.39-.86-1.31-.37-2.4-.8-3.11-1.18-.47-.26-1.27-.97-1.27-2.34 0-1.38 1.4-2.51 3.03-2.51 1.29 0 2.32.64 2.94 1.5.54.75.73 1.09 1.33 2.45.06.02.15.04.21.04.19 0 .36-.11.47-.22-.06-.535-.17-1.287-.17-1.93 0-.56.13-1.29.19-1.68-.17-.256-.36-.3-.64-.3-.3.194-.58.493-.84.77-1.41-1.14-2.58-1.33-3.65-1.33-2.64 0-4.53 1.76-4.53 4.1 0 .798.28 1.57.8 2.366.47.66 1.16 1.18 2.08 1.56.63.26 3.42 1.1 3.8 1.25 1.72.665 2.37 1.247 2.37 2.77 0 .75-.32 1.42-.95 2.17-.56.687-1.44 1.01-2.38 1.01-1.01 0-2.75-.432-3.61-1.59-.51-.67-1.24-2.06-1.46-2.9-.15-.043-.15-.043-.3-.043-.13 0-.28.04-.41.13 0 .28.09 1.69.09 2.12 0 1.05-.19 1.57-.23 1.91.07.21.43.43.69.43.45-.39.93-.69 1.07-.69.13 0 .33.07.52.19 1.4.91 2.56 1.08 3.59 1.08 3.03 0 5.2-1.53 5.2-4.51m-19-7.39c0 1.37-1.09 2.92-2.36 3.2-.52.11-1.27.17-2.23.17-.26 0-.99 0-1.31-.04l-.02-1.89V5.89c0-.28.06-.43.15-.493.09-.06.97-.13 1.5-.13 2.02 0 2.94.195 3.67 1.246.4.583.6 1.247.6 2m4.51 11.38c0-.106-.04-.235-.11-.32-.22 0-1.1-.044-1.42-.28-.11-.13-.28-.39-.36-.537-.28-.988-.58-1.87-.91-2.688-.45-1.074-1.07-2.082-1.59-2.555-.19-.17-.8-.45-1.55-.71-.34-.13-.62-.23-.88-.34.33-.067.48-.087.88-.13 1.4-.17 1.87-.47 2.28-.79.86-.65 1.42-1.61 1.42-2.77 0-1.74-1.12-3.395-2.69-3.89-.51-.15-1.44-.237-2.57-.237-1.61 0-2.81.15-3.89.15-.32 0-1.37-.04-2.13-.04-.32 0-1.13-.04-1.26-.04-.06.15-.11.196-.11.28 0 .086.02.215.04.3.37.046 1.04.13 1.38.194.52.39.69.685.9 1.16.11.683.13 2.62.13 5.643 0 2.19.02 4.94-.09 5.756-.06.53-.26 1.18-.88 1.43-.28.04-.79.13-1.22.15-.07.11-.11.19-.11.3 0 .06.04.15.09.25.3 0 2.77-.06 3.45-.06 1.38 0 1.72.06 2.94.06.05-.09.09-.15.09-.24 0-.15-.04-.24-.09-.32-.42-.04-.96-.17-1.2-.22-.53-.26-.92-.77-.92-1.53l-.02-5.37c.17-.02.79-.02.96-.02.58 0 1.16.04 1.72.3.82.37 1.59.95 2.11 1.74.69 1.07 1.14 3.11 1.35 4.68.07.45.24.83.64.88.18.02.43.06 1.25.06h2.23c.09-.09.13-.17.13-.28m-18-3.27c0-.3 0-.43-.02-.62-.1-.07-.15-.07-.32-.07-.15 0-.13 0-.28.05-.47 1.57-1.28 2.73-2.21 3.29-.32.19-.9.23-1.82.23h-2.41c-.75-.03-1.23-.07-1.42-.11-.32-.07-.67-.58-.82-.93-.15-.37-.23-.5-.23-1.48v-4.9h.69c.69 0 1.25.04 1.83.3.54.24.95.58 1.16.92.19.3.26 1.48.3 1.78.1.07.17.09.34.09s.2-.02.35-.11c0-.59-.13-2.15-.13-3.01 0-1.07.15-2.39.21-3.16-.08-.04-.13-.08-.34-.08-.15 0-.22 0-.34.06-.06.3-.24 1.2-.28 1.26-.32.54-1.07.97-1.65 1.14-.39.11-.94.17-1.76.17h-.344v-2.1c0-2.06.04-2.9.06-3.29.02-.26.06-.54.08-.73.195-.02.816-.04 1.805-.04 1.247 0 2.17.02 2.36.02.6.04 1.055.17 1.375.43 1.05.81 1.33 1.35 1.91 2.66.12.04.15.04.25.04.13 0 .15-.05.32-.13 0-1.31-.09-2.8-.13-3.33-.02-.22-.066-.28-.49-.28-.17 0-.99-.04-1.85-.04-1.225 0-1.72.02-3.59.02-1.01 0-2.79.02-3.67.02-1.29 0-1.57-.04-2.13-.04h-.7c-.065.08-.108.17-.108.26 0 .1.043.21.11.3.257.09 1.265.06 1.563.23.3.26.58.32.772 1.36.04.45.063 1.91.063 2.9v4.42c0 .9-.02 2.39-.043 2.92-.04.84-.34 1.89-.47 2.08-.19.15-1.07.27-1.93.32-.06.13-.1.22-.1.34 0 .13.04.19.11.3h.71c.69 0 2.41-.06 2.99-.06.54 0 1.27.04 2.52.04.69 0 2.71.13 7.05.13.17 0 .37.02.58-.05.07-.11.07-.15.09-.35.05-.44.05-1.49.05-3.23M267.06 4.8c0-.09-.02-.22-.11-.24h-.73c-.51 0-1.33.04-1.69.04-1.73 0-2.36-.11-2.62-.11h-.38c-.04.11-.11.17-.11.28 0 .09.05.15.05.24.54.06 1.01.17 1.48.32.26.25.54.77.54 1.35 0 .21-.21 1.22-.51 1.95l-3.46 8.5-4.27-10.73c.07-.51.35-1.01.71-1.2.37-.04.82-.17 1.4-.17.05-.083.09-.21.09-.3s-.02-.213-.1-.234h-.54c-.66 0-1.67.08-2.81.08-.49 0-1.45-.05-2.4-.05h-.84c-.04.08-.09.13-.09.25 0 .13.02.17.06.26.6.15 1.18.38 1.81.73.41.6 1.29 2.762 1.77 3.902l1.78 4.29c1.48 3.56 2.36 5.95 2.47 6.35.11.064 0 .13.2.13s.18-.04.22-.15L264.52 7c.19-.475.5-.93.77-1.227.34-.38 1.05-.53 1.72-.69.03-.08.09-.17.09-.27m-18.83 15c0-.104-.02-.21-.06-.294-.32-.02-1.2-.11-1.58-.2-.34-.41-.58-.88-.73-1.66-.02-1.03-.04-3.37-.04-5.37V6.9c0-.58.24-1.03.39-1.156.41-.385 1.22-.473 1.91-.56.04-.08.06-.19.06-.274 0-.13-.06-.216-.1-.26h-.62c-.9 0-2.184.108-2.92.108-.45 0-1.733-.06-2.68-.082h-.48c-.065.08-.11.08-.11.28 0 .08.025.17.045.27 1.05.08 1.523.19 1.674.3.26.19.62.66.71 1.82.02.4.04 1.5.06 3.48.02 1.07.04 2.53.04 3.78 0 .62-.04 2.23-.07 2.98-.05.51-.15 1.01-.3 1.29-.26.21-.51.6-2.08.71-.05.08-.07.23-.07.32 0 .17.04.17.04.27h.36c.86 0 2.19-.11 3.3-.11.32 0 1.74.06 2.45.06h.71c.06-.11.08-.19.08-.28m-9.72-15.01c0-.09-.02-.15-.06-.22H238c-1.08 0-1.55.04-3.48.04-.67 0-1.656-.04-1.89-.04h-.56c-.066.04-.086.19-.086.28 0 .1.02.15.106.23.35.1 1.66.25 2.22.62.39.45.56 1.35.62 2.19.02.32.048.64.048 1.52v6.38c0 .51-.024.68-.046.92-.37-.41-.99-1.2-1.83-2.19L224.86 5c-.06-.09-.19-.2-.32-.28-.17 0-.38-.02-.55-.02-1.37 0-2.572-.07-2.94-.07-.04.084-.062.13-.062.21 0 .044.02.22.04.28.32.086 1.26.19 1.65.6.34.39.86.84 1.05 1.27.06.15.08.39.08.69 0 1.12-.066 3.16-.066 4.66v4.575c0 .704-.067 1.265-.13 1.63-.45.47-1.14.814-2.256 1.094-.04.11-.085.15-.085.26 0 .06.02.19.07.21h.41c.43 0 1.42-.07 2.06-.07.95 0 1.38.06 2.26.06h1.29c.08-.02.11-.2.11-.28 0-.09-.02-.13-.06-.21-.75-.2-1.85-.37-2.58-1.33-.15-.33-.28-1.96-.28-2.71 0-.69-.02-1.81-.02-3.07 0-1.7.02-4.04.04-4.79.13.15.32.39.48.56l10.18 11.95c.11.1.15.12.26.12.11 0 .04 0 .13-.04.05-.11.11-.46.11-.97 0-.62-.02-1.27-.02-1.59v-9.1c0-2.68 1.27-3.44 2.75-3.5.06-.11.08-.17.08-.28m-19.88.11c0-.09-.04-.22-.1-.28h-.62c-.66 0-1.57.04-2.34.04-.86 0-1.82-.04-2.45-.04h-.77c-.06.13-.08.17-.08.28 0 .08.02.17.07.28.09 0 1.66.02 1.93.4.24.32.75 1.11.84 1.59.05.21.18 1.09.18 2.36 0 1.82 0 3.05-.02 3.69-.04 1.2-.17 2.14-.39 2.85-.6 1.87-2 2.79-4.21 2.79-.94 0-1.76-.19-2.51-.54-1.4-.69-2.06-2-2.08-2.71L206 9.24l-.023-2.62c0-.49.63-.94.84-1.2.18-.08 1.12-.17 1.66-.21.07-.12.11-.19.11-.3 0-.1-.064-.21-.15-.28l-.82.02c-.79.02-1.842.05-2.51.05-1.03 0-1.823-.02-2.47-.02h-.903c-.09.07-.11.19-.11.3s.02.2.08.26c.68.09 1.14.15 1.44.22.36.22.62.58.75.95.02.28.06.96.06 2.32v5.15c0 1.33.06 2.28.21 2.88.28 1.12.88 2 1.87 2.65 1.05.69 2.36 1.03 3.93 1.03 1.44 0 2.66-.3 3.69-.88 1.07-.57 1.74-1.52 2.12-2.85.22-.79.34-1.65.34-2.55v-4.13c0-.77.05-1.73.05-2.12.02-1.16.32-1.85.64-2.36.35-.11.65-.17 1.78-.3.05-.08.09-.15.09-.25"/>
  </g>
</svg>
