<svg xmlns="http://www.w3.org/2000/svg" width="250.354" height="52.835" viewBox="0 0 250.354 52.835">
  <g fill="#F58025">
    <path d="M49.74 10.073v-.23h-.056c-.422-1.555-1.907-2.705-3.68-2.705v2.704h-.006l.093 39.097s-5.51-1.78-10.48-3.95c-5.75-2.51-10.35.22-10.77.48v.02l-.02-.02-.02.01v-.03c-.42-.27-5.02-2.99-10.77-.49-4.99 2.17-10.5 3.95-10.5 3.95l.09-39.1H3.6v-2.9C1.85 6.93.394 8.18.07 9.84H.004v.624c0 .024-.004.047-.004.07 0 .025.003.047.004.072V52.68H49.74V11.407c.043-.217.07-.44.07-.667 0-.228-.027-.45-.07-.667z"/>
    <path d="M12.513 31.94c1.15 2.056 2.473 4.022 3.944 5.882l8.435-8.206 8.462 8.224c1.458-1.838 2.774-3.797 3.937-5.865L24.9 20.045 12.518 31.94zM42.78 6.72c-1.453.44-2.998.683-4.6.683-5.66 0-10.608-2.977-13.272-7.403-2.67 4.426-7.616 7.403-13.275 7.403-1.6 0-3.147-.242-4.596-.68-.377 4.318-.105 8.583.754 12.685H42c.892-4.278 1.138-8.54.78-12.688"/>
  </g>
  <path d="M85.082 51.397c-.077 1.088-.153 1.205-.84 1.205-.803 0-5.808.117-11.004.117-2.98 0-5.31-.04-7.716-.04-1.643 0-3.21.11-4.547.11h-.764c-.07-.16-.11-.31-.11-.47 0-.2.08-.35.12-.51.92-.27 2.56-.66 3.52-1.13.31-.55.5-1.71.54-3.11 0-.66.04-2.53.04-5.6 0-1.25-.07-4.9-.19-10.07-.03-1.98-.11-3.81-.23-4.2-.19-.58-.49-1.24-1.26-1.59-.61-.16-1.49-.12-2.4-.35-.07-.16-.11-.39-.11-.59 0-.27.08-.27.19-.43l12.07-.04c.12.08.16.27.16.46s-.04.39-.15.5c-1.75.08-3.93.04-3.93 2.95v4.74l.27 14.92c0 .74.69 1.82 1.22 2.29.76.66 1.99.97 3.63.97 2.21 0 4.16-.43 5.88-1.32 2.14-1.13 3.44-3.58 4.55-6.3.19-.08.38-.12.58-.12.31 0 .38.04.61.2.04 1.48.04 3.34.04 3.81 0 1.12-.04 2.33-.11 3.53zm16.16 1.283h-1.26c-1.26 0-4.087-.117-4.66-.117-1.986 0-4.66.195-6.19.195h-.647c0-.195-.077-.195-.077-.505 0-.156.04-.428.115-.583 2.79-.194 3.247-.894 3.705-1.282.268-.505.46-1.4.535-2.332.04-1.36.115-4.274.115-5.4 0-2.255-.038-4.897-.076-6.84-.04-3.575-.077-5.557-.115-6.295-.153-2.09-.802-2.95-1.26-3.3-.268-.19-1.108-.39-2.98-.54-.04-.19-.077-.35-.077-.5 0-.35.077-.35.19-.5h.84c1.682.04 4.28.16 5.082.16 1.3 0 3.897-.19 5.5-.19h1.108c.077.08.192.24.192.47 0 .16-.04.35-.115.51-1.222.16-2.674.31-3.4 1.01-.268.23-.688 1.05-.688 2.1v9.87c0 3.61.03 7.85.07 9.71.27 1.4.69 2.26 1.3 3 .68.16 2.25.31 2.82.35.07.16.11.35.11.55 0 .16-.04.31-.16.51zm28.005-1.788c-1.604 1.632-3.477 1.904-6.036 1.866l-10.84-.156c-1.03 0-3.21.078-4.28.078-.72 0-1.41 0-1.56-.04-.07-.154-.11-.35-.11-.504 0-.155.04-.31.19-.583 2.22 0 3.9-.428 4.05-1.01.23-.816.46-2.176.58-3.42.04-1.05.12-4.585.12-8.2 0-3.263-.19-9.014-.23-9.402-.03-.58-.11-1.24-.22-1.74-.19-.74-.72-1.59-1.79-1.75-.92-.11-2.14-.27-2.71-.35-.07-.23-.11-.35-.11-.5 0-.23.04-.23.15-.43.19-.03.61-.03.92-.03h7.91c2.33 0 4.51-.11 5.96-.11 1.99 0 3.48.27 4.55.82 2.37 1.21 3.47 3.31 3.47 6.3 0 2.45-.88 4.24-2.37 4.98-.49.24-1.72.62-2.37.82-.19.04-.65.16-.65.31 0 .24.61.27 1.04.35.57.12 2.25.47 2.67.66.65.27 2.14 1.32 2.83 2.72.61 1.17.91 2.49.91 3.96 0 2.22-.69 4.04-2.02 5.4zm-3.324-8.937c-1.375-2.137-2.79-2.604-5.578-3.147-.687-.117-1.757-.272-3.21-.272-.992 0-1.603.04-1.718.194-.038.078-.077.583-.077 1.4v7.15c0 1.165.077 1.476.153 1.942.46.894 1.26 1.67 2.254 2.253.382.078 1.375.117 1.91.117 2.828 0 3.782-.466 5.196-1.632 1.222-1.127 1.872-2.798 1.872-5.168 0-1.088-.266-2.06-.802-2.837zM123.86 28.2c-.763-1.245-1.91-1.905-3.476-2.216-.687-.155-1.604-.233-2.75-.233-.65 0-1.337.04-2.062.04-.077 1.29-.153 6.3-.153 6.3-.04 1.44-.04 2.49-.04 3.23 0 1.17.07 1.95.15 2.02.07.08.53.08 1.26.08 2.06 0 5.31-.46 5.88-.85.23-.15.49-.42.8-.85.91-1.24 1.41-2.6 1.41-4 0-1.28-.39-2.49-1.03-3.5zm36.945 24.52h-4.28c-1.45 0-2.214-.08-2.52-.118-.727-.078-1.03-.777-1.146-1.593-.39-2.84-1.19-6.57-2.41-8.51-.92-1.44-2.22-2.49-3.67-3.15-1-.47-2.03-.55-3.06-.55-.31 0-.69 0-1 .04l.04 9.75c0 1.36.68 2.29 1.64 2.76.42.07 1.37.31 2.14.38.07.15.15.31.15.58 0 .15-.08.27-.15.43-2.18 0-3.1-.12-5.54-.12-1.23 0-5.93.11-6.46.11-.08-.2-.15-.35-.15-.47 0-.2.07-.35.19-.55.76-.04 1.68-.2 2.17-.28 1.11-.47 1.45-1.64 1.56-2.61.19-1.48.15-6.45.15-10.42 0-5.48-.04-8.98-.23-10.22-.38-.86-.69-1.4-1.61-2.1-.61-.12-1.8-.27-2.45-.35-.04-.16-.08-.39-.08-.54s.07-.24.19-.51c.23 0 1.68.07 2.25.07 1.34 0 3.51.08 4.09.08 1.91 0 4.24-.27 7.1-.27 2.02 0 3.66.15 4.58.42 2.79.89 4.77 3.88 4.77 7.03 0 2.1-.84 3.85-2.37 5.01-.73.58-1.38 1.05-4.2 1.4-.73.08-1 .12-1.57.23.46.2.95.39 1.56.62 1.33.47 2.33.97 2.67 1.28.91.85 2.02 2.72 2.83 4.66.57 1.47 1.1 3.07 1.6 4.85.15.27.46.73.65.97.57.43 2.14.5 2.52.5.11.16.19.39.19.58 0 .19-.08.35-.23.5zm-9.4-24.715c-1.298-1.904-2.94-2.254-6.532-2.254-.955 0-1.795.12-1.947.24s-.268.39-.268.9v7.35l.037 3.38c.574.08 1.146.08 1.605.08 1.72 0 3.056-.12 3.973-.31 2.254-.5 4.202-3.26 4.202-5.75 0-1.36-.342-2.56-1.07-3.61zM192.4 52.72c-2.484 0-4.28-.118-6.648-.118-1.45 0-3.133.078-3.78.078h-1.72c-.19-.155-.268-.35-.268-.505s.037-.272.23-.505c1.49-.078 2.405-.233 2.94-.505.344-.39.574-1.127.574-1.904-.153-.58-.574-1.86-1.11-3.45-.304-.93-.686-1.94-.954-2.6-.152-.27-.457-.89-.764-1.12-3.514 0-6.494 0-9.168.12-.23.43-.268.66-.535 1.44l-1.566 5.13c.16 1.28.77 2.14 1.3 2.64.35.16 1.34.31 2.3.39.12.2.19.31.19.47 0 .16-.04.27-.15.51h-1.03c-1.37 0-2.82-.15-4.28-.15-1.33 0-3.28.08-4.08.08-.11-.19-.15-.23-.15-.42 0-.15.08-.35.12-.54 1.65-.47 3.25-.9 3.82-2.3 1.11-2.83.99-2.48 2.75-7.42 1.8-5.05 3.1-8.51 3.9-10.53l1.72-4.16c.46-1.28.84-2.1 1.19-2.41.23-.27.61-.39.92-.39.38 0 .69.15.92.47.08.12.23.59.35.9l1.68 4.24 5.54 14.46c.69 1.79 1.22 2.99 1.83 4.55.31.78.73 1.67.96 1.87.19.16 2.03.7 3.02.86.08.16.19.31.19.47 0 .16-.07.31-.19.43zm-12.493-14.107c-.61-1.71-1.872-5.13-2.56-6.878-.268-.66-.61-1.438-.916-2.06-.65 1.438-1.18 2.68-2.14 5.246-1.03 2.76-1.94 5.48-2.1 6.03h5.31c1.07 0 2.33-.04 3.1-.15-.23-.81-.38-1.32-.69-2.17zm41.72 14.107h-4.28c-1.45 0-2.214-.08-2.52-.118-.725-.078-1.03-.777-1.146-1.593-.38-2.84-1.18-6.57-2.4-8.51-.91-1.44-2.21-2.49-3.66-3.15-.99-.47-2.02-.55-3.05-.55-.3 0-.68 0-.99.04l.04 9.75c0 1.36.69 2.29 1.65 2.76.42.07 1.38.31 2.14.38.08.15.15.31.15.58 0 .15-.07.27-.15.43-2.18 0-3.09-.12-5.54-.12-1.22 0-5.92.11-6.45.11-.07-.2-.15-.35-.15-.47 0-.2.08-.35.2-.55.77-.04 1.68-.2 2.18-.28 1.11-.47 1.45-1.64 1.57-2.61.19-1.48.15-6.45.15-10.42 0-5.48-.04-8.98-.23-10.22-.38-.86-.68-1.4-1.6-2.1-.61-.12-1.79-.27-2.44-.35-.04-.16-.07-.39-.07-.54s.07-.24.19-.51c.23 0 1.68.07 2.25.07 1.34 0 3.52.08 4.09.08 1.91 0 4.24-.27 7.11-.27 2.03 0 3.67.15 4.59.42 2.79.89 4.78 3.88 4.78 7.03 0 2.1-.84 3.85-2.37 5.01-.73.58-1.38 1.05-4.2 1.4-.73.08-.99.12-1.57.23.46.2.96.39 1.57.62 1.34.47 2.33.97 2.68 1.28.91.85 2.02 2.72 2.82 4.66.58 1.47 1.11 3.07 1.61 4.85.15.27.46.73.65.97.57.43 2.14.5 2.52.5.12.16.19.39.19.58 0 .19-.07.35-.23.5zm-9.398-24.715c-1.3-1.904-2.95-2.254-6.54-2.254-.96 0-1.8.12-1.95.24-.16.12-.27.39-.27.9v7.35l.04 3.38c.57.08 1.14.08 1.6.08 1.72 0 3.05-.12 3.97-.31 2.25-.5 4.2-3.26 4.2-5.75 0-1.36-.35-2.56-1.07-3.61zm37.2-2.525c-.77.194-1.95.427-2.48.776-.77.466-1.91 1.593-2.45 2.604l-5.85 11.852c-.16.31-.27.66-.27 1.05 0 .038-.04.504 0 .97l.34 5.83c.07 1.515.38 1.826.99 2.487.38.38 2.1.62 3.32.77.11.19.15.31.15.5s-.12.35-.2.5c-.69 0-1.68-.04-2.98-.08-2.25-.04-3.78-.08-4.59-.08-1.15 0-3.48.04-5.43.04-.04-.16-.12-.28-.12-.47s.04-.27.19-.55c.88-.08 2.79-.35 3.06-.51.65-.43 1.22-1.32 1.22-2.99 0-1.98-.07-3.58-.34-4.67-.19-.7-.57-1.67-1.22-2.92l-6.68-13.33c-.27-.51-1.03-.98-3.59-1.6-.12-.19-.15-.31-.15-.47 0-.27.07-.31.23-.59.3 0 2.86.12 4.73.12 4.39 0 3.97-.12 6.53-.12h.69c.12.19.23.12.23.39 0 .15-.04.39-.11.58-1.61.2-2.79.27-3.14.97-.08.16-.16.51-.16 1.01 0 .35.08.9.15 1.05l2.14 4.74c.53 1.17 2.56 5.36 3.55 7.07.61-.86 1.52-2.84 3.28-6.46 1.03-2.14 1.75-3.65 2.1-4.62.19-.51.23-.97.23-1.44 0-.63-.08-1.01-.35-1.52-.31-.55-1.91-.82-3.02-1.05-.04-.12-.08-.27-.08-.47s.04-.24.15-.47c1.03 0 3.4.16 5.35.16.8 0 2.86-.12 4.43-.12.07.16.23.23.23.47 0 .15-.08.31-.15.5zM153.15 7.906c0-.048-.014-.136-.04-.174h-.286c-.625 0-1.025.024-2.148.024-.388 0-.963-.024-1.1-.024h-.324c-.038.024-.05.163-.05.213 0 .063.012.162.06.213.2.06.963.148 1.288.36.223.264.324.79.36 1.276.014.19.026.375.026.888v2.613c0 .3-.013.4-.025.538-.21-.237-.51-.688-1.01-1.25l-4.17-4.625c-.03-.05-.11-.112-.19-.163-.1 0-.27-.013-.37-.013-.8 0-2.25-.038-2.46-.038-.03.05-.05.125-.05.176 0 .024.03.2.04.237.19.05.6.11.94.475.2.224.55.536.67.788.04.087.05.224.05.4 0 .648-.04 1.56-.04 2.436v2.537c0 .413-.03.738-.07.95-.26.276-.66.476-1.31.638-.02.07-.05.17-.05.23 0 .04.01.16.04.18h.24c.25 0 .83-.04 1.2-.04.55 0 .93.04 1.44.04h.75c.05-.01.06-.16.06-.21 0-.05-.01-.15-.04-.2-.43-.11-1.07-.21-1.5-.77-.09-.19-.16-1.11-.16-1.55 0-.4-.01-.95-.01-1.69 0-.98.01-1.85.03-2.28l.23.28 5.77 6.49c.06.07.29.08.35.08s.1 0 .15-.02c.02-.06.11-.26.11-.56 0-.36-.01-.74-.01-.92V10.2c0-1.563.74-2 1.6-2.038.04-.063.05-.175.05-.24M138.85 11.9c0 1.88-.523 3.55-1.235 4.13-.366.3-.816.45-1.33.45-.7 0-1.31-.275-1.66-.838-.48-.726-.74-2.075-.74-3.25 0-1.737.45-3.1 1.25-3.763.43-.35.86-.49 1.3-.49.68 0 1.33.32 1.7.86.48.65.71 1.58.71 2.88m2.27.24c0-1.75-.78-3.09-2.23-3.89-.77-.43-1.55-.64-2.37-.64-1.82 0-3.47 1.09-4.21 2.32-.475.77-.725 1.62-.725 2.52 0 1.44.7 2.85 1.786 3.67.83.6 1.77.9 2.85.9.67 0 1.29-.13 1.9-.37.69-.26 1.28-.67 1.74-1.19.82-.89 1.27-2.03 1.27-3.34m-10.985-1.58V7.99c0-.186-.07-.237-.26-.237-.37 0-2.35.05-4.35.05-1.55 0-2.84-.024-3.54-.024h-.92c-.16 0-.21.04-.21.21v2.39c.05.03.14.05.2.05.05 0 .23 0 .28-.03.57-1.14 1.09-1.75 1.75-2.09.38-.04 1.12-.05 1.32-.05.02.14.03.57.04 1.1.01.9.01 1.29.01 3.41 0 1.84-.01 2.66-.03 2.86-.05.35.01.61-1.49.67-.04.09-.04.19-.04.29 0 .05 0 .15.02.2h.49c.46 0 1.55-.05 2-.05.36 0 1.53.03 2.29.03h.35c.04-.06.04-.2.04-.27 0-.08-.01-.17-.05-.23-.13 0-.93.02-1.28-.24-.04-.14-.11-.5-.11-.94-.01-1.35-.02-1.86-.02-2.77 0-1.16.02-1.95.02-4.11.18 0 .58-.02.95 0 .78.21 1.15.5 1.49.95.22.28.44.77.67 1.36.08.02.14.02.22.02.05-.01.21-.03.23-.06m-10.79 4.07c0-.18 0-.25-.01-.37-.06-.04-.08-.04-.18-.04-.09 0-.19 0-.28.02-.42.96-1.04 1.71-1.37 1.91-.18.11-.47.13-.93.13h-1.03c-.4 0-.71-.04-.82-.06-.19-.04-.39-.34-.48-.54-.09-.22-.14-.22-.14-.79V12.1h.46c.13 0 .43.027.77.178.31.137.44.325.56.524.11.18.19.864.21 1.04.06.04.23.05.33.05s.17-.01.25-.064c0-.33-.07-1.25-.07-1.75 0-.62.09-1.48.13-1.93-.05-.025-.124-.05-.25-.05-.09 0-.25 0-.33.04-.04.174-.172.7-.2.736-.184.31-.51.55-.85.65-.222.064-.55.1-.722.1h-.26V10.5c0-1.2.03-1.588.04-1.814.01-.15.04-.312.05-.425.11-.01.18-.02.75-.02.72 0 1.06.01 1.17.01.35.03.61.1.8.25.47.37.83.94 1.2 1.55.07.03.2.03.26.03.07 0 .085-.02.19-.07 0-.76-.05-1.75-.08-2.06-.012-.13-.04-.16-.29-.16-.1 0-.57-.02-1.072-.02-.715 0-1 .02-2.09.02-.59 0-1.802.02-2.313.02-.75 0-1.39-.02-1.71-.02h-.43c-.04.05-.06.15-.06.2 0 .07.02.2.06.25.15.05.74.04.91.14.18.15.34.22.45.81.03.26.04.99.04 1.56v2.58c0 .53-.01 1.29-.02 1.6-.02.49-.2 1.08-.27 1.19-.11.09-.62.17-1.12.19-.04.08-.06.2-.06.28 0 .08.02.17.06.23h.41c.4 0 1.88-.03 2.22-.03.31 0 .91.03 1.64.03.4 0 1.576.07 4.1.07.1 0 .21.01.34-.02.04-.06.04-.09.05-.2.03-.25.03-.99.03-2m-10.58.44c-.04-.11-.14-.3-.425-.3-.02 0-.06.01-.09.01-.75 1.06-1.58 1.46-2.51 1.46-1.3 0-2.23-.87-2.53-1.65-.16-.41-.383-1.31-.383-2.27 0-.91.14-1.65.38-2.19.55-1.45 1.35-1.9 2.327-1.9.82 0 1.49.47 2 1.13.22.29.44.85.64 1.52.05.02.168.04.28.04.076 0 .25-.06.3-.11-.01-.14-.14-1.1-.14-1.4 0-.37.1-.99.1-1.22-.073-.07-.324-.12-.49-.14-.19.14-.25.3-.42.51-.7-.5-1.35-.88-2.78-.88-1.31 0-2.35.45-3.13 1.23-.86.85-1.34 2.03-1.34 3.53 0 1.6.68 2.91 1.77 3.74.68.5 1.7.84 2.91.84 1.523 0 2.64-.58 3.2-1.34.22-.3.25-.38.35-.59m-9.76-7.15c0-.05-.017-.14-.04-.17h-.29c-.626 0-1.026.03-2.15.03-.39 0-.965-.02-1.1-.02h-.33c-.04.03-.05.17-.05.22 0 .07.01.17.06.22.2.06.96.15 1.29.36.22.27.32.79.36 1.28.01.19.02.38.02.89v2.6c0 .3-.02.4-.03.54-.21-.24-.51-.69-1.01-1.25L91.657 8c-.036-.05-.11-.116-.186-.167-.1 0-.28-.01-.37-.01-.8 0-2.25-.033-2.47-.033-.03.05-.05.126-.05.177 0 .03.02.2.04.24.18.05.6.11.93.48.2.22.55.53.66.79.03.09.05.22.05.4 0 .65-.04 1.56-.04 2.44v2.53c0 .41-.04.73-.08.95-.26.27-.66.47-1.31.63-.03.07-.05.17-.05.23 0 .04.01.16.04.177h.2c.25 0 .83-.04 1.2-.04.56 0 .93.04 1.44.04h.75c.05-.01.07-.16.07-.21 0-.05-.013-.15-.04-.2-.434-.11-1.072-.21-1.5-.77-.09-.19-.16-1.11-.16-1.55 0-.4-.013-.95-.013-1.69 0-.99.01-1.85.02-2.29.075.09.16.2.23.28l5.77 6.49c.06.07.29.08.35.08s.1 0 .15-.03c.024-.06.11-.26.11-.56 0-.36-.01-.74-.01-.93V10.2c0-1.56.74-2 1.6-2.03.04-.06.05-.17.05-.23M86.65 16.6c0-.07-.01-.2-.03-.25-.19-.02-.7-.07-.92-.12-.2-.235-.33-.51-.42-.96-.02-.6-.03-1.84-.03-3v-3.1c0-.338.14-.6.23-.675.24-.226.72-.276 1.12-.325.02-.05.03-.188.03-.238 0-.075-.03-.176-.06-.2h-.36c-.52 0-1.75.062-2.17.062-.26 0-1.49-.04-2.04-.05h-.27c-.04.05-.06.1-.06.213 0 .05.01.174.02.238.61.05.89.11.98.174.15.11.36.38.41 1.06.02.24.03.75.04 1.9.01.62.03 1.5.03 2.22 0 .36-.03 1.17-.04 1.61-.03.3-.09.58-.18.75-.15.12-.3.35-1.21.41-.02.05-.04.21-.04.26 0 .1.03.15.03.21h.21c.5 0 1.75-.07 2.4-.07.19 0 1.49.04 1.9.04h.42c.04-.07.05-.17.05-.22m-10.03-6.53c0 .77-.525 1.66-1.137 1.81-.25.06-.56.1-1.02.1-.122 0-.31 0-.46-.02L74 10.87v-2.3c0-.15.04-.24.077-.278.037-.036.263-.074.525-.074.974 0 1.4.086 1.75.674.2.337.287.726.287 1.15m3.62 6.538c0-.062-.03-.212-.07-.262-.13 0-.64-.025-.83-.162-.07-.075-.17-.226-.22-.313-.17-.574-.35-.96-.54-1.436-.27-.626-.63-1.213-.93-1.488-.12-.1-.5-.27-.94-.42-.2-.08-.37-.14-.52-.2.19-.04.27-.05.51-.08.92-.11 1.13-.28 1.37-.46.5-.38.77-.95.77-1.63 0-1.01-.65-1.99-1.57-2.28-.3-.09-.84-.14-1.5-.14-.94 0-2.25.09-2.88.09-.19 0-1.27-.03-1.71-.03-.19 0-.67-.02-.74-.02-.04.08-.06.18-.06.23 0 .05.01.17.02.22.21.02.6.07.8.11.3.23.4.4.52.68.06.4.07 1.42.07 3.19 0 1.27.01 2.75-.05 3.22-.04.31-.15.69-.52.84-.16.02-.46.07-.72.09-.03.06-.06.18-.06.25 0 .03.03.14.05.2.17 0 2.09-.04 2.49-.04.8 0 1.47.04 2.18.04.02-.05.05-.14.05-.19 0-.09-.03-.21-.05-.26-.25-.03-.57-.1-.7-.13-.31-.15-.54-.45-.54-.89l.01-2.87c.1-.01.22-.01.32-.01.16 0 .35.02.66.2.46.26.69.45.99.91.39.62.66 1.77.78 2.69.03.26.13.48.37.51.1.01.76.03 1.24.03h1.78c.05-.05.07-.15.07-.22m-13.5-6.45c0 .64-.23 1.2-.64 1.56-.26.21-.68.34-1.3.34-.26 0-.47-.01-.54-.03-.1-.02-.16-.03-.16-.09l.01-3.67c.15-.01.36-.06.72-.06.85 0 1.37.21 1.62.74.17.34.27.76.27 1.2m2.23.05c0-.94-.54-1.81-1.34-2.18-.42-.18-1.14-.29-2.24-.29-.97 0-2.47.08-3.13.08-.47 0-1.17-.05-1.56-.05-.036.06-.06.15-.06.2 0 .05 0 .19.04.25.236.08.624.14.874.2.21.19.26.35.335.72.04.44.06.99.06 1.94 0 2.64-.01 4.03-.05 4.33-.05.37-.3.76-.71.89-.19.04-.46.1-.72.12-.01.06-.02.15-.02.26 0 .1.02.11.04.18.4 0 1.58-.05 2.03-.05 1.11 0 2.25.05 2.71.05h.32c.04-.05.04-.14.04-.2 0-.08 0-.18-.02-.23-.38-.05-.94-.13-1.17-.4-.12-.15-.25-.36-.25-.74l-.04-2.75c.75.05 1.55.07 1.99.07.58 0 1.07-.1 1.45-.23.89-.33 1.44-1.21 1.44-2.17M250.33 7.8c0-.08-.05-.1-.077-.15-.515 0-1.19.035-1.45.035-.64 0-1.41-.05-1.75-.05-.04.073-.05.085-.05.15 0 .06.01.11.023.15.36.07.89.16.99.335.09.16.12.29.12.49 0 .15-.02.3-.08.46-.11.31-.35.8-.69 1.49-.57 1.16-.94 1.88-1.137 2.17-.33-.55-1.05-2-1.23-2.377l-.7-1.53c-.03-.05-.05-.228-.05-.34 0-.16.02-.274.05-.324.11-.23.5-.25 1.02-.31.02-.07.04-.14.04-.19 0-.09-.04-.06-.08-.13h-.23c-.84 0-.59.03-2.03.03-.61 0-1.35-.04-1.45-.04-.05.09-.07.1-.07.19 0 .05.01.09.05.15.84.2 1.09.35 1.17.51l2.19 4.29c.21.4.34.71.4.94.09.35.1.86.1 1.5 0 .53-.19.82-.4.96-.09.05-.71.14-1 .16-.05.09-.06.11-.06.18 0 .06.02.1.04.15.64 0 1.3-.01 1.68-.01.26 0 .66.01 1.4.02.42.01.75.02.97.02.02-.05.06-.1.06-.17s-.02-.1-.05-.17c-.4-.05-.97-.12-1.09-.25-.2-.21-.3-.31-.33-.8l-.1-1.87c-.01-.14.03-.27.05-.3.04-.14.09-.25.14-.35l1.92-3.81c.17-.33.55-.69.8-.84.17-.12.56-.19.81-.25.02-.07.05-.12.05-.17m-10.1 2.57v-2.4c0-.19-.08-.24-.26-.24-.38 0-2.1.05-4.1.05-1.55 0-2.59-.03-3.29-.03h-.93c-.17 0-.22.04-.22.21v2.27c.05.04.09.05.15.05.05 0 .1 0 .15-.02.49-1.09.74-1.66 1.57-2.08.37-.04 1.68-.05 1.88-.05.01.14.02.58.03 1.1.01.9.01 1.39.01 3.51 0 1.84-.01 2.79-.04 2.99-.05.35.01.62-1.49.68-.04.09-.04.11-.04.22 0 .05 0 .1.01.15h.48c.46 0 1.07-.05 1.52-.05.36 0 1.05.04 1.81.04h.35c.04-.06.04-.12.04-.19s-.02-.11-.05-.17c-.14 0-.94.03-1.29-.24-.04-.13-.11-.5-.11-.93-.02-1.35-.03-1.98-.03-2.88 0-1.16.01-2.05.01-4.21.18 0 1.1-.01 1.475 0 .777.21 1.077.5 1.415.95.3.4.37.76.56 1.36.07.03.11.03.19.03.05 0 .11-.02.13-.05m-10.39 6.17c0-.06-.01-.12-.04-.17-.19-.01-.7-.06-.925-.11-.2-.24-.335-.51-.423-.96-.01-.6-.02-1.96-.02-3.126V9c0-.33.14-.6.23-.67.24-.22.71-.27 1.11-.32.03-.05.04-.11.04-.16 0-.08-.04-.13-.063-.15h-.364c-.52 0-1.27.06-1.7.06-.26 0-1.01-.04-1.56-.05h-.27c-.04.05-.07.05-.07.16 0 .05.01.1.02.16.62.05.89.11.98.17.15.11.36.39.42 1.06.01.23.02.87.037 2.02.01.62.02 1.47.02 2.2 0 .36-.03 1.3-.04 1.73-.03.3-.09.588-.18.75-.15.126-.3.35-1.22.41-.023.05-.04.14-.04.19 0 .1.028.1.028.16h.21c.5 0 1.27-.06 1.92-.06.185 0 1.01.04 1.42.04h.41c.037-.06.05-.11.05-.16m-6.18-2.3c0-1-.45-1.69-1.41-2.2-.26-.15-.72-.314-1.383-.5-.76-.21-1.4-.46-1.81-.69-.28-.15-.74-.563-.74-1.363s.81-1.46 1.76-1.46c.75 0 1.35.375 1.71.876.32.436.43.635.78 1.423.04.01.084.02.123.02.11 0 .214-.06.274-.12-.04-.31-.1-.75-.1-1.12 0-.326.07-.75.11-.977-.1-.15-.21-.18-.38-.18-.18.11-.34.29-.49.45-.83-.66-1.5-.77-2.13-.77-1.54 0-2.64 1.02-2.64 2.38 0 .46.16.91.46 1.38.28.39.68.69 1.22.91.36.15 1.99.64 2.21.72 1 .39 1.373.73 1.373 1.61 0 .44-.19.83-.55 1.26-.326.4-.84.59-1.39.59-.59 0-1.6-.25-2.1-.92-.3-.38-.725-1.2-.85-1.69-.09-.02-.09-.02-.176-.02-.07 0-.16.03-.24.08 0 .16.05.98.05 1.23 0 .61-.11.91-.132 1.11.04.13.25.25.4.25.26-.22.54-.4.627-.4.08 0 .19.04.3.11.82.53 1.49.63 2.09.63 1.77 0 3.03-.89 3.03-2.624m-11.04-4.3c0 .8-.64 1.7-1.37 1.86-.3.07-.74.1-1.3.1-.15 0-.58 0-.767-.02l-.01-1.1V8.42c0-.163.03-.25.08-.29.05-.036.56-.074.87-.074 1.17 0 1.71.113 2.14.725.24.34.35.73.35 1.17m2.63 6.63c0-.06-.03-.13-.07-.18-.13 0-.64-.02-.82-.16-.07-.07-.16-.22-.21-.31-.17-.57-.34-1.08-.53-1.56-.26-.62-.63-1.21-.93-1.49-.12-.1-.47-.26-.91-.41-.2-.07-.36-.13-.51-.2.19-.03.28-.05.52-.07.81-.1 1.09-.27 1.322-.46.5-.37.83-.94.83-1.61 0-1.01-.65-1.97-1.56-2.26-.3-.08-.834-.13-1.5-.13-.933 0-1.633.09-2.26.09-.19 0-.8-.02-1.24-.02-.19 0-.66-.03-.74-.03-.04.09-.06.11-.06.16s.015.13.026.18c.21.03.6.08.8.11.3.23.4.4.52.68.06.4.07 1.53.07 3.29 0 1.28.01 2.88-.05 3.35-.04.32-.15.69-.51.84-.165.03-.465.08-.715.09-.03.06-.06.11-.06.18 0 .04.03.09.05.15.18 0 1.61-.04 2.02-.04.8 0 1 .04 1.71.04.025-.05.05-.08.05-.13 0-.09-.024-.14-.05-.19-.25-.03-.56-.1-.7-.13-.31-.15-.54-.45-.54-.88l-.01-3.12c.1-.01.47-.01.57-.01.33 0 .67.02 1 .17.47.22.92.55 1.22 1.02.4.63.66 1.81.786 2.73.04.26.14.49.377.51.1.02.25.04.73.04h1.3c.05-.05.07-.1.07-.16m-10.49-1.9c0-.17 0-.25-.014-.36-.06-.04-.09-.04-.19-.04-.09 0-.08 0-.16.03-.27.91-.75 1.59-1.29 1.91-.18.12-.52.14-1.06.14h-1.4c-.44-.01-.71-.04-.82-.06-.185-.04-.386-.34-.474-.54-.084-.21-.134-.29-.134-.86V12.1h.4c.4 0 .73.02 1.06.17.32.14.56.34.68.54.11.17.15.86.18 1.04.06.04.1.05.2.05s.11-.01.2-.06c0-.34-.08-1.25-.08-1.75 0-.63.09-1.39.12-1.84-.05-.03-.08-.05-.2-.05-.09 0-.13 0-.2.04-.04.17-.14.7-.16.73-.19.31-.62.56-.96.66-.22.06-.55.1-1.02.1h-.2V10.5c0-1.2.025-1.69.04-1.91.02-.15.04-.316.05-.43.12-.013.48-.03 1.05-.03.73 0 1.27.017 1.38.017.35.03.61.1.8.25.61.48.773.79 1.11 1.55.07.027.09.027.15.027.073 0 .09-.023.19-.075 0-.76-.05-1.62-.08-1.94-.01-.12-.04-.16-.29-.16-.1 0-.57-.02-1.07-.02-.71 0-1 .01-2.09.01-.58 0-1.62.01-2.13.01-.75 0-.91-.02-1.237-.02h-.43c-.03.05-.06.1-.06.15 0 .06.03.12.06.17.15.05.74.04.913.14.17.15.34.19.45.79.02.26.04 1.11.04 1.69v2.57c0 .52-.01 1.39-.02 1.7-.03.49-.2 1.1-.28 1.21-.12.09-.63.16-1.13.18-.04.08-.07.13-.07.2s.03.12.068.18h.42c.4 0 1.4-.04 1.74-.04.31 0 .73.03 1.46.03.4 0 1.57.07 4.1.07.1 0 .21.01.34-.03.04-.07.04-.09.05-.2.02-.26.02-.87.02-1.88m-9.24-6.81c0-.05-.01-.13-.06-.14h-.4c-.3 0-.77.03-.99.03-1.01 0-1.37-.06-1.52-.06h-.22c-.02.06-.06.1-.06.16 0 .05.03.09.03.14.31.04.59.1.86.19.15.15.317.45.317.79 0 .12-.124.71-.3 1.14l-2.013 4.95-2.47-6.26c.04-.3.2-.59.41-.7.21-.03.48-.1.81-.1.03-.05.05-.13.05-.18 0-.05-.01-.13-.06-.14h-.31c-.39 0-.97.05-1.64.05-.29 0-.85-.03-1.4-.03H186c-.025.05-.05.07-.05.15 0 .07.012.1.036.15.35.08.686.22 1.05.42.236.35.75 1.61 1.025 2.27l1.04 2.5c.87 2.08 1.38 3.47 1.44 3.7.06.04 0 .08.11.08.12 0 .11-.02.13-.09l3.23-7.75c.12-.27.29-.53.45-.71.2-.22.62-.31 1-.4.02-.05.05-.1.05-.16m-10.95 8.71c0-.06-.01-.12-.03-.17-.19-.01-.7-.06-.92-.11-.2-.24-.34-.51-.43-.96-.01-.6-.02-1.96-.02-3.12V9.01c0-.335.14-.6.22-.673.24-.226.71-.275 1.11-.325.03-.05.04-.113.04-.163 0-.08-.04-.13-.06-.15h-.36c-.52 0-1.27.06-1.7.06-.26 0-1.01-.04-1.56-.05h-.27c-.03.05-.06.05-.06.16 0 .05.02.1.03.16.61.05.88.11.97.17.15.11.37.39.41 1.06.02.23.03.87.04 2.02.02.62.03 1.47.03 2.2 0 .36-.03 1.3-.04 1.73-.03.3-.09.58-.18.75-.15.12-.3.35-1.21.41-.03.05-.04.14-.04.19 0 .1.03.1.03.16h.21c.5 0 1.28-.06 1.93-.06.19 0 1.01.03 1.42.03h.41c.04-.06.05-.11.05-.16m-5.65-8.74c0-.05-.01-.09-.03-.13h-.29c-.62 0-.9.02-2.02.02-.39 0-.96-.03-1.1-.03h-.32c-.04.03-.05.11-.05.16 0 .06.01.09.06.14.2.06.97.15 1.29.36.23.26.33.79.36 1.27.01.19.03.37.03.89v3.71c0 .3-.02.4-.03.54-.21-.24-.57-.7-1.06-1.28L171 7.87c-.04-.05-.11-.12-.19-.17-.1 0-.23-.01-.32-.01-.804 0-1.5-.04-1.715-.04-.02.05-.04.07-.04.12 0 .02.01.12.027.16.19.05.74.11.964.35.2.22.5.49.617.74.035.08.05.22.05.4 0 .65-.04 1.84-.04 2.71v2.67c0 .41-.04.73-.075.95-.26.27-.66.47-1.31.63-.03.06-.05.08-.05.15 0 .03.01.11.04.12h.24c.25 0 .82-.04 1.2-.04.55 0 .79.04 1.31.04h.75c.05-.02.06-.12.06-.17 0-.05-.01-.07-.04-.12-.44-.11-1.075-.21-1.5-.778-.09-.18-.16-1.14-.16-1.57 0-.4-.016-1.05-.016-1.785 0-.99.01-2.35.024-2.79l.276.325 5.92 6.937c.06.07.09.08.15.08s.025 0 .076-.03c.02-.06.06-.26.06-.56 0-.36-.01-.74-.01-.92V10c0-1.563.735-2 1.6-2.04.04-.062.05-.1.05-.162m-11.574.06c0-.05-.03-.123-.065-.16h-.36c-.39 0-.91.024-1.36.024-.5 0-1.07-.025-1.43-.025h-.45c-.04.074-.05.1-.05.16 0 .05.01.1.04.164.05 0 .96.01 1.12.24.13.19.43.65.48.93.03.13.1.64.1 1.38 0 1.07 0 1.78-.01 2.15-.02.7-.1 1.25-.22 1.67-.35 1.09-1.16 1.63-2.45 1.63-.55 0-1.03-.11-1.46-.31-.81-.4-1.2-1.16-1.22-1.57l-.06-3.75-.02-1.52c0-.28.36-.55.48-.7.1-.05.65-.1.96-.12.04-.08.06-.11.06-.18 0-.06-.04-.12-.09-.16l-.48.01c-.46.01-1.07.02-1.46.02-.6 0-1.06-.01-1.43-.01h-.52c-.05.04-.06.11-.06.18 0 .06.01.11.05.15.39.05.66.09.83.13.21.13.36.34.44.55.01.17.03.57.03 1.35v3c0 .78.04 1.33.13 1.68.16.65.51 1.16 1.08 1.54.62.4 1.38.6 2.29.6.84 0 1.55-.17 2.15-.51.63-.33 1.02-.88 1.24-1.66.13-.46.2-.96.2-1.48v-2.4c0-.45.03-1.01.03-1.24.01-.68.19-1.08.37-1.38.2-.06.37-.1 1.04-.17.02-.05.05-.09.05-.15" fill="#231F20"/>
</svg>
