<svg xmlns="http://www.w3.org/2000/svg" width="49.809" height="52.682" viewBox="0 0 49.809 52.682">
  <g fill="#231F20">
    <path d="M49.74 10.073v-.23h-.057c-.422-1.554-1.907-2.705-3.68-2.705v2.704h-.007l.093 39.098s-5.51-1.78-10.49-3.945c-5.75-2.504-10.35.22-10.77.483v.025l-.02-.013-.026.013v-.025c-.42-.263-5.02-2.987-10.77-.483-4.98 2.165-10.49 3.944-10.49 3.944l.093-39.1H3.6V6.932C1.85 6.933.394 8.183.07 9.84H.004v.624c0 .024-.004.047-.004.07 0 .025.003.047.004.072V52.68H49.74V11.407c.043-.217.068-.44.068-.667 0-.23-.025-.45-.068-.67z"/>
    <path d="M12.513 31.94c1.15 2.056 2.473 4.022 3.944 5.882l8.435-8.205 8.462 8.225c1.46-1.84 2.774-3.8 3.938-5.865l-12.4-11.933-12.38 11.897zM42.78 6.72c-1.452.44-2.997.683-4.6.683-5.66 0-10.608-2.977-13.272-7.403-2.67 4.426-7.616 7.403-13.275 7.403-1.6 0-3.147-.242-4.596-.68-.377 4.318-.105 8.583.754 12.685H42c.892-4.278 1.14-8.54.78-12.688"/>
  </g>
</svg>
