<svg xmlns="http://www.w3.org/2000/svg" width="487.104" height="26.916" viewBox="0 0 487.104 26.916">
  <g fill="#F58025">
    <path d="M25.413 5.148v-.12h-.03c-.215-.792-.974-1.382-1.88-1.382V5.03H23.5l.047 19.974s-2.815-.91-5.357-2.016c-2.94-1.28-5.29.11-5.504.246v.016l-.01-.008-.012.008v-.016c-.214-.134-2.564-1.527-5.503-.246-2.54 1.105-5.35 2.016-5.35 2.016L1.85 5.03h-.01V3.542c-.896 0-1.64.64-1.805 1.486H.002v.317L0 5.385c0 .01 0 .023.002.035v21.496h25.41V5.828c.022-.11.035-.223.035-.34s-.013-.23-.034-.34z"/>
    <path d="M6.393 16.32c.587 1.05 1.262 2.053 2.014 3.004l4.31-4.193 4.323 4.21c.745-.94 1.417-1.94 2.01-2.99l-6.333-6.09-6.324 6.08zM21.855 3.436c-.74.225-1.53.348-2.35.348-2.892 0-5.42-1.52-6.78-3.783-1.365 2.27-3.89 3.79-6.782 3.79-.82 0-1.608-.12-2.35-.34-.193 2.21-.053 4.38.387 6.48h17.478c.455-2.18.58-4.36.397-6.48"/>
  </g>
  <path fill="#231F20" d="M384.63 19.47c-.042.597-.063.66-.448.66-.445 0-3.318.064-6.213.064-1.66 0-2.96-.022-4.3-.022-.92 0-2.43.065-3.17.065h-.43c-.05-.086-.07-.277-.07-.36 0-.11.04-.3.06-.384.51-.15 1.42-.363 1.95-.618.17-.298.27-.937.29-1.702 0-.362.02-1.17.02-2.852 0-.68-.04-2.68-.11-5.51-.02-1.08-.07-1.91-.13-2.12-.11-.32-.28-.68-.71-.87-.34-.08-.83-.06-1.34-.19-.05-.08-.07-.32-.07-.42 0-.15.04-.25.1-.34l8.02-.02c.06.04.08.26.08.36 0 .11-.02.32-.09.39-.98.04-2.19.02-2.19 1.62v2.42l.13 7.96c0 .41.38 1 .68 1.26.42.36.93.56 1.81.56 1.23 0 1.64-.25 2.59-.74 1.19-.62 2.04-2 2.66-3.49.11-.04.32-.06.43-.06.17 0 .3.02.43.11.02.81.02 2.09.02 2.34 0 .62-.02 1.28-.07 1.94zm10.81.702h-.704c-.7 0-2.914-.062-3.232-.062-1.105 0-3.236.105-4.088.105h-.36c0-.105-.042-.19-.042-.36 0-.088.02-.36.064-.447 1.55-.104 1.81-.49 2.064-.702.148-.277.254-.767.297-1.276.02-.745.06-2.128.06-2.746 0-1.234-.02-2.722-.05-3.786-.02-1.96-.05-2.828-.07-3.233-.09-1.15-.45-1.616-.7-1.808-.15-.108-.62-.214-1.66-.3-.02-.106-.05-.318-.05-.404 0-.19.04-.275.1-.362h.47c.93.03 3.02.09 3.47.09.72 0 2.81-.1 3.7-.1h.62c.04.05.1.22.1.34 0 .09-.02.32-.07.41-.68.09-1.49.17-1.89.56-.15.13-.39.58-.39 1.15v5.24c0 1.98.02 4.09.04 5.11.14.77.38 1.23.72 1.64.38.09 1.25.17 1.57.19.04.09.06.32.06.43 0 .09-.02.26-.08.36zm17.45-.98c-.96.897-2.13 1.045-3.66 1.02l-6.43-.084c-.57 0-2.423.043-3.02.043-.402 0-.785 0-.87-.02-.042-.08-.065-.29-.065-.38 0-.08.023-.27.107-.42 1.234 0 2.172-.23 2.256-.55.127-.44.256-1.19.318-1.87.023-.57.064-2.29.064-4.27 0-1.79-.107-4.76-.127-4.98-.02-.32-.064-.68-.13-.95-.104-.4-.4-.87-1-.96-.51-.06-1.19-.14-1.51-.19-.042-.12-.063-.29-.063-.38 0-.12.02-.23.084-.34.107-.02.342-.02.514-.02h5.043c1.3 0 2.77-.06 3.64-.06 1.17 0 2.22.15 2.83.45 1.43.66 2.06 1.83 2.06 3.47 0 1.34-.51 2.32-1.4 2.72-.27.13-1.06.34-1.44.45-.1.03-.38.09-.38.17 0 .13.37.15.62.2.34.06 1.3.26 1.55.36.39.15 1.28.75 1.68 1.51.37.64.56 1.36.56 2.17 0 1.21-.43 2.22-1.21 2.96zm-2.958-4.87c-.62-1.107-1.256-1.383-2.512-1.66-.297-.06-.79-.147-1.428-.147-.445 0-.807.02-.87.106 0 .04-.022.3-.022.73v3.77c0 .62.02.77.064 1.02.215.47.617.88 1.064 1.18.17.04.658.06.895.06 1.254 0 1.7-.23 2.318-.85.56-.59.85-1.46.85-2.7 0-.57-.12-1.08-.35-1.49zm-1.086-7.445c-.34-.64-.83-1-1.49-1.15-.3-.084-.725-.127-1.213-.127-.275 0-.617.02-.936.02-.02.66-.064 3.3-.064 3.3v1.68c0 .592.02 1 .064 1.04.02.043.3.043.617.043.873 0 2.254-.234 2.51-.448.107-.082.234-.21.36-.445.386-.637.575-1.34.575-2.085 0-.662-.15-1.3-.43-1.83zm24.79 13.317h-3.04c-.81 0-1.938-.043-2.107-.065-.41-.04-.58-.43-.65-.88-.21-1.56-.66-3.51-1.34-4.58-.51-.79-.9-1.11-1.68-1.56-.54-.3-.86-.34-1.13-.34-.17 0-.38 0-.55.02l.02 4.91c0 .74.38 1.26.91 1.51.23.04.76.17 1.19.21.04.09.08.3.08.45 0 .08-.04.23-.09.31-1.21 0-2.36-.06-3.73-.06-.68 0-3.94.06-4.24.06-.04-.11-.08-.28-.08-.34 0-.11.04-.32.11-.43.42-.02.93-.11 1.21-.15.61-.25.81-.89.87-1.42.1-.81.08-3.32.08-5.49 0-3-.02-4.74-.13-5.42-.22-.47-.39-.77-.9-1.15-.34-.07-1-.15-1.36-.19-.03-.09-.05-.3-.05-.39 0-.09.04-.26.1-.41.13 0 .93.04 1.25.04.74 0 2.59.04 2.91.04 1.06 0 3.3-.15 4.89-.15 1.13 0 2.04.09 2.55.23 1.55.49 2.66 2.15 2.66 3.87 0 1.15-.47 2.13-1.32 2.77-.41.32-.77.59-2.34.78-.4.04-.55.06-.87.13.25.1.53.21.87.34.74.25 1.4.53 1.6.7.51.47 1.13 1.47 1.57 2.53.32.81.64 1.47.91 2.45.09.14.26.4.36.53.32.23 1.19.27 1.41.27.06.09.1.34.1.45.01.1-.04.27-.12.36zm-6.53-13.447c-.598-1-1.32-1.148-2.98-1.148-.45 0-.83.06-.896.12-.062.06-.127.21-.127.47v3.91l.02 1.81c.257.04.575.04.79.04.785 0 1.316-.07 1.744-.17 1.04-.26 1.936-1.77 1.936-3.09 0-.73-.15-1.39-.49-1.96zm24.87 13.447c-1.382 0-3.085-.065-4.403-.065-.81 0-1.744.04-2.107.04h-1.596c-.105-.09-.127-.3-.148-.39 0-.09.02-.26.127-.39.83-.05 1.27-.13 1.57-.28.19-.21.29-.62.29-1.04-.09-.32-.26-.83-.55-1.68-.17-.51-.35-.94-.49-1.3-.09-.15-.28-.49-.45-.62-.9.02-3.28-.02-4.77.04-.13.23-.24.51-.32.78l-.81 2.49c.08.7.32 1.17.62 1.44.19.08.76.17 1.3.21.06.1.1.27.08.36 0 .08-.03.25-.09.38h-.57c-.77 0-1.6-.09-2.41-.09-.75 0-2.04.04-2.49.04-.06-.11-.08-.24-.08-.34.02-.09.06-.3.08-.41.91-.26 1.89-.49 2.23-1.26.63-1.56.49-1.15 1.51-3.85 1.04-2.77 1.81-4.7 2.27-5.81.59-1.36.89-2.13.95-2.28.21-.57.46-1.06.66-1.23.13-.15.57-.3.74-.3.21 0 1.08.17 1.21.34.04.06.13.23.19.4l.93 2.32 3.19 7.95c.41.98.6 1.42.96 2.27.17.43.43.92.55 1.02.1.09 1.21.39 1.76.47.04.09.1.28.13.36 0 .09-.07.28-.13.35zm-8.425-7.83c-.34-.937-1.06-2.745-1.46-3.7-.06-.128-.12-.277-.19-.428-.23.575-.51 1.214-.91 2.213-.59 1.51-1.08 2.89-1.17 3.19h2.58c.6 0 1.19 0 1.58-.09-.13-.45-.21-.73-.4-1.19zm25.9 7.83h-3.04c-.81 0-1.94-.043-2.1-.065-.4-.04-.57-.43-.63-.88-.21-1.56-.66-3.51-1.34-4.58-.51-.79-.89-1.11-1.68-1.56-.53-.3-.85-.34-1.12-.34-.17 0-.38 0-.55.02l.02 4.91c0 .74.38 1.26.92 1.51.24.04.77.17 1.19.21.05.09.09.3.09.45 0 .08-.04.23-.08.31-1.21 0-2.36-.06-3.72-.06-.68 0-3.93.06-4.23.06-.04-.11-.09-.28-.09-.34 0-.11.04-.32.11-.43.43-.02.94-.11 1.21-.15.62-.25.81-.89.87-1.42.11-.81.09-3.32.09-5.49 0-3-.02-4.74-.12-5.42-.21-.47-.38-.77-.89-1.15-.34-.07-1-.15-1.36-.19-.02-.09-.04-.3-.04-.39 0-.09.05-.26.11-.41.13 0 .94.04 1.26.04.75 0 2.6.04 2.92.04 1.06 0 3.3-.15 4.9-.15 1.13 0 2.04.09 2.56.23 1.55.49 2.66 2.15 2.66 3.87 0 1.15-.47 2.13-1.32 2.76-.41.32-.77.59-2.34.78-.4.04-.55.06-.87.13.26.1.54.21.88.34.74.25 1.4.53 1.6.7.51.47 1.13 1.47 1.57 2.53.32.81.64 1.47.92 2.45.09.14.26.4.36.53.32.23 1.19.27 1.41.27.06.08.1.34.1.45 0 .1-.04.27-.12.36zm-6.53-13.447c-.59-1-1.32-1.148-2.98-1.148-.44 0-.83.06-.89.12-.06.06-.13.21-.13.47v3.91l.02 1.81c.26.04.58.04.79.04.79 0 1.32-.07 1.75-.17 1.05-.26 1.94-1.77 1.94-3.09 0-.73-.14-1.39-.49-1.96zM487 5.45c-.426.105-1.234.234-1.53.426-.427.253-.98.744-1.278 1.297l-3.34 6.427c-.107.17-.15.36-.15.573 0 .022-.02.275 0 .532l.19 3c.044.83.214 1 .556 1.36.213.215 1.17.342 1.852.428.062.105.084.273.084.383 0 .104-.06.296-.103.382-.38 0-.94-.02-1.66-.043-1.25-.02-2.74-.043-3.19-.043-.64 0-2.57.022-3.66.022-.02-.085-.06-.257-.06-.36 0-.106.02-.258.11-.406.49-.043 1.56-.19 1.7-.277.37-.23.69-.72.69-1.63 0-1.08-.04-1.76-.19-2.36-.1-.38-.29-.91-.68-1.59l-3.77-7.11c-.14-.27-.68-.53-2.1-.87-.06-.1-.1-.27-.1-.36 0-.15.04-.27.13-.43.17 0 2.23.07 3.28.07 2.45 0 2.85-.06 4.27-.06h.39c.07.11.13.17.13.32 0 .09 0 .32-.04.43-.89.11-1.55.17-1.74.53-.04.09-.08.28-.06.56 0 .19.13.45.19.6l1.14 2.38c.26.56 1.36 2.68 1.94 3.7.34-.53.87-1.59 1.79-3.36.59-1.17 1.02-2.02 1.23-2.55.1-.27.13-.53.13-.78 0-.14-.05-.4-.17-.61-.18-.29-1.07-.44-1.69-.57-.02-.07-.02-.26-.02-.36 0-.11.02-.24.09-.36.57 0 1.47.08 2.55.08.45 0 2.24-.06 3.11-.06.05.09.13.24.13.36 0 .09-.06.28-.11.38zm-292.755-.43c0-.086-.02-.236-.063-.3h-.496c-1.073 0-1.76.042-3.69.042-.666 0-1.653-.043-1.89-.043h-.557c-.07.04-.09.27-.09.36 0 .1.02.28.1.36.34.1 1.65.25 2.21.62.38.45.56 1.35.62 2.19.02.32.04.64.04 1.52v4.49c0 .51-.02.69-.04.92-.37-.41-.88-1.19-1.74-2.15l-7.17-7.94c-.07-.09-.19-.2-.32-.28-.18 0-.48-.02-.65-.02-1.37 0-3.87-.07-4.23-.07-.05.08-.09.21-.09.3 0 .04.04.34.06.41.32.08 1.03.19 1.61.81.34.38.94.92 1.14 1.35.06.15.08.38.08.68 0 1.12-.07 2.69-.07 4.19v4.36c0 .71-.06 1.26-.13 1.63-.45.47-1.14.81-2.26 1.09-.04.11-.08.28-.08.39 0 .06.02.28.06.3h.41c.42 0 1.42-.06 2.06-.06.94 0 1.59.06 2.47.06h1.29c.09-.02.11-.28.11-.36 0-.09-.02-.26-.06-.34-.76-.2-1.85-.37-2.58-1.33-.15-.32-.28-1.91-.28-2.67 0-.69-.02-1.63-.02-2.9 0-1.7.02-3.18.04-3.93.13.15.28.34.38.47l9.92 11.14c.11.11.49.13.6.13.1 0 .17 0 .25-.04.04-.11.19-.45.19-.97 0-.62-.02-1.27-.02-1.59V8.93c0-2.686 1.26-3.436 2.75-3.5.06-.108.08-.3.08-.408m-24.61 6.83c0 3.243-.9 6.097-2.12 7.106-.63.516-1.4.773-2.28.773-1.2 0-2.26-.47-2.86-1.44-.81-1.24-1.27-3.56-1.27-5.58 0-2.98.78-5.32 2.15-6.46.73-.6 1.48-.83 2.23-.83 1.16 0 2.27.56 2.92 1.48.82 1.12 1.22 2.73 1.22 4.96m3.89.41c0-3.01-1.33-5.3-3.82-6.68-1.33-.73-2.67-1.09-4.08-1.09-3.14 0-5.97 1.87-7.24 4-.82 1.33-1.25 2.79-1.25 4.34 0 2.47 1.2 4.9 3.07 6.29 1.41 1.04 3.02 1.55 4.89 1.55 1.14 0 2.21-.21 3.27-.62 1.18-.45 2.19-1.16 2.98-2.04 1.39-1.52 2.17-3.48 2.17-5.73M154.6 9.56V5.17c0-.322-.13-.406-.456-.406-.65 0-4.04.084-7.476.084-2.668 0-4.88-.04-6.08-.04H139c-.275 0-.36.063-.36.362v4.104c.085.064.234.084.343.084.09 0 .39 0 .475-.043.96-1.95 1.86-3.004 3-3.582.64-.067 1.91-.09 2.25-.09.02.24.04.99.06 1.892.02 1.545.02 2.21.02 5.86 0 3.16-.02 4.575-.07 4.92-.09.6.02 1.054-2.557 1.16-.06.15-.06.323-.06.493 0 .086 0 .26.02.344h.84c.79 0 2.66-.085 3.44-.085.63 0 2.62.062 3.93.062h.61c.07-.11.07-.35.07-.46 0-.13-.02-.28-.09-.39-.23 0-1.61.04-2.21-.41-.06-.24-.19-.86-.19-1.62-.02-2.32-.04-3.2-.04-4.75 0-2 .02-3.35.02-7.07.3 0 .98-.02 1.63 0 1.33.36 1.98.86 2.56 1.63.36.49.75 1.33 1.13 2.34.13.04.24.04.37.04.09 0 .36-.05.41-.09m-18.51 6.98c0-.31 0-.43-.03-.63-.1-.07-.15-.07-.32-.07-.15 0-.32 0-.47.04-.73 1.65-1.78 2.94-2.36 3.28-.32.19-.81.24-1.61.24h-1.76c-.69 0-1.22-.07-1.42-.11-.32-.06-.67-.58-.82-.92-.15-.37-.23-.37-.23-1.36v-4.7h.8c.22 0 .73.04 1.31.3.54.23.76.56.97.9.2.3.32 1.48.37 1.78.11.06.39.09.56.09.18 0 .28-.03.44-.11 0-.58-.13-2.15-.13-3.01 0-1.07.15-2.56.22-3.33-.08-.05-.21-.09-.42-.09-.15 0-.43 0-.56.06-.06.3-.3 1.2-.34 1.27-.32.54-.88.94-1.46 1.11-.38.1-.94.17-1.24.17h-.45V9.48c0-2.062.04-2.73.06-3.115.03-.256.07-.533.09-.73.19-.02.3-.04 1.29-.04 1.24 0 1.82.02 2.02.02.6.044 1.05.175 1.37.43.81.626 1.44 1.61 2.06 2.667.13.04.34.04.45.04.13 0 .15-.04.32-.128 0-1.31-.09-3.01-.13-3.548-.02-.216-.06-.28-.49-.28-.17 0-.99-.043-1.85-.043-1.22 0-1.71.02-3.58.02-1.01 0-3.09.023-3.97.023-1.29 0-2.38-.043-2.94-.043h-.73c-.07.085-.11.26-.11.347 0 .104.04.343.1.427.26.085 1.27.065 1.57.237.3.26.58.366.77 1.397.04.45.07 1.7.07 2.69v4.43c0 .91-.02 2.21-.04 2.75-.05.84-.35 1.85-.47 2.04-.2.15-1.08.28-1.93.32-.07.13-.11.35-.11.47s.04.28.1.39h.71c.69 0 3.22-.06 3.8-.06.54 0 1.57.04 2.816.04.68 0 2.7.13 7.04.13.17 0 .36.02.58-.04.06-.1.06-.15.08-.34.048-.43.048-1.7.048-3.43m-18.17.75c-.07-.19-.24-.51-.73-.51-.04 0-.11.02-.15.02-1.29 1.83-2.71 2.52-4.32 2.52-2.23 0-3.82-1.5-4.34-2.83-.27-.71-.66-2.25-.66-3.91 0-1.56.235-2.83.64-3.76.95-2.49 2.32-3.26 4-3.26 1.4 0 2.56.8 3.44 1.94.365.49.75 1.46 1.095 2.6.09.02.28.06.48.06.13 0 .43-.1.516-.19-.02-.24-.24-1.89-.24-2.4 0-.64.17-1.69.17-2.1-.13-.12-.56-.21-.83-.23-.32.24-.43.52-.73.88-1.2-.86-2.32-1.52-4.77-1.52-2.26 0-4.04.78-5.39 2.13-1.48 1.46-2.3 3.48-2.3 6.05 0 2.75 1.16 5.01 3.03 6.42 1.18.86 2.92 1.44 5 1.44 2.62 0 4.54-.98 5.5-2.3.39-.51.43-.64.6-1.01m-16.7-12.27c0-.08-.02-.23-.06-.3h-.5c-1.074 0-1.76.04-3.69.04-.67 0-1.655-.04-1.89-.04h-.56c-.06.04-.085.27-.085.36 0 .11.03.28.11.37.35.1 1.66.25 2.22.62.39.45.56 1.35.63 2.19.02.32.04.64.04 1.52v4.49c0 .51-.02.69-.04.92-.363-.41-.88-1.18-1.74-2.15l-7.2-7.95c-.06-.09-.19-.2-.32-.28-.17 0-.473-.02-.643-.02-1.38 0-3.867-.07-4.23-.07-.04.09-.08.21-.08.3 0 .04.05.35.07.41.33.09 1.03.19 1.61.82.35.39.95.92 1.14 1.36.06.15.09.39.09.69 0 1.11-.06 2.68-.06 4.18v4.36c0 .71-.06 1.27-.13 1.63-.45.47-1.14.82-2.25 1.1-.05.11-.09.28-.09.39 0 .07.026.28.07.3h.41c.43 0 1.41-.06 2.06-.06.943 0 1.583.07 2.47.07h1.28c.08-.02.11-.28.11-.36 0-.09-.03-.26-.07-.34-.76-.19-1.85-.36-2.58-1.33-.16-.32-.28-1.91-.28-2.66 0-.69-.03-1.63-.03-2.9 0-1.7.023-3.18.04-3.93.13.15.28.34.39.47l9.91 11.14c.1.11.49.13.6.13.1 0 .17 0 .25-.04.05-.1.2-.45.2-.96 0-.62-.02-1.27-.02-1.59v-9c0-2.68 1.27-3.43 2.75-3.5.07-.1.09-.3.09-.4M80.03 19.92c0-.108-.02-.345-.064-.433-.32-.02-1.2-.103-1.586-.19-.35-.41-.58-.884-.73-1.653-.03-1.03-.05-3.16-.05-5.16v-5.3c0-.575.23-1.03.38-1.155.4-.39 1.22-.48 1.91-.56.04-.09.06-.32.06-.41 0-.13-.06-.3-.11-.35h-.62c-.91 0-3.01.11-3.74.11-.45 0-2.56-.06-3.5-.08h-.48c-.07.09-.11.17-.11.37 0 .09.02.3.04.41 1.05.09 1.52.19 1.67.3.25.2.62.67.71 1.83.02.41.04 1.29.06 3.26.02 1.08.04 2.58.04 3.83 0 .63-.04 2.02-.06 2.78-.05.52-.16 1.01-.31 1.29-.26.22-.51.61-2.08.71-.05.09-.06.37-.06.46 0 .17.04.26.04.37h.36c.85 0 3-.1 4.12-.1.32 0 2.55.06 3.26.06h.71c.06-.11.08-.28.08-.36M62.8 8.7c0 1.33-.9 2.86-1.953 3.114-.43.11-.97.18-1.77.18-.21 0-.534 0-.792-.05l-.023-1.83V6.15c0-.26.07-.408.13-.473.07-.066.458-.13.9-.13 1.68 0 2.41.15 3.01 1.16.35.58.498 1.246.498 1.98m6.23 11.23c0-.11-.04-.365-.106-.45-.212 0-1.09-.045-1.414-.28-.11-.13-.28-.39-.365-.536-.28-.99-.6-1.65-.926-2.47-.45-1.07-1.08-2.08-1.59-2.55-.2-.17-.86-.45-1.61-.71-.35-.12-.63-.23-.89-.34.32-.06.47-.08.88-.12 1.58-.19 1.95-.47 2.36-.79.86-.64 1.33-1.63 1.33-2.79 0-1.74-1.12-3.41-2.69-3.91-.52-.15-1.44-.23-2.58-.23-1.62 0-3.87.15-4.94.15-.33 0-2.19-.04-2.95-.04-.33 0-1.14-.04-1.27-.04-.07.15-.11.33-.11.41s.02.3.04.39c.37.04 1.03.13 1.37.19.51.39.69.69.9 1.16.1.69.12 2.45.12 5.48 0 2.19.02 4.73-.09 5.54-.07.54-.26 1.19-.89 1.44-.28.04-.79.13-1.23.15-.06.11-.11.32-.11.43 0 .07.04.24.08.35.3 0 3.58-.06 4.27-.06 1.37 0 2.53.07 3.76.07.04-.09.08-.24.08-.32 0-.15-.04-.37-.09-.45-.43-.05-.97-.17-1.21-.21-.54-.26-.93-.77-.93-1.52l-.02-4.96c.17-.02.39-.02.56-.02.28 0 .6.05 1.14.35.79.45 1.18.77 1.7 1.57.68 1.08 1.13 3.06 1.35 4.62.06.46.23.84.64.89.17.02 1.31.06 2.13.06h3.07c.09-.09.13-.26.13-.37M45.7 8.8c0 1.093-.383 2.06-1.094 2.68-.44.37-1.15.583-2.23.583-.45 0-.79-.02-.92-.043-.17-.02-.28-.04-.28-.15l.02-6.29c.26-.024.62-.108 1.25-.108 1.46 0 2.36.365 2.79 1.27.3.574.47 1.305.47 2.057m3.84.08c0-1.61-.92-3.12-2.3-3.74-.71-.31-1.95-.5-3.84-.5-1.66 0-4.23.13-5.37.13-.79 0-2-.09-2.66-.09-.07.1-.11.26-.11.35 0 .08 0 .32.06.42.41.13 1.07.23 1.5.34.36.32.45.6.58 1.22.06.75.11 1.69.11 3.33 0 4.53-.02 6.91-.09 7.43-.08.64-.51 1.31-1.22 1.52-.32.06-.8.17-1.25.22-.02.1-.046.25-.046.45 0 .17.023.19.064.3.69 0 2.706-.09 3.48-.09 1.91 0 3.866.08 4.66.08h.54c.06-.09.06-.24.06-.34 0-.13 0-.31-.04-.39-.648-.09-1.61-.22-2.02-.69-.22-.26-.43-.62-.43-1.27l-.068-4.72c1.29.08 2.66.12 3.412.12.99 0 1.83-.17 2.49-.39 1.527-.58 2.47-2.09 2.47-3.74m311.68-4.04c0-.13-.09-.17-.13-.26-.88 0-2.04.06-2.49.06-1.093 0-2.43-.09-3.01-.09-.06.13-.08.15-.08.26 0 .11.02.19.04.26.62.13 1.524.28 1.696.58.16.28.2.5.2.84 0 .26-.02.52-.13.79-.19.53-.6 1.37-1.18 2.55-.99 2-1.61 3.24-1.957 3.73-.56-.94-1.8-3.44-2.1-4.08l-1.2-2.62c-.04-.09-.09-.39-.09-.58 0-.28.044-.48.09-.56.2-.39.86-.43 1.76-.54.05-.11.07-.24.07-.33 0-.15-.067-.11-.13-.22h-.39c-1.44 0-1.01.06-3.48.06-1.05 0-2.32-.07-2.49-.07-.085.15-.13.17-.13.32 0 .08.02.15.09.26 1.44.34 1.87.6 2.02.88l3.76 7.36c.36.68.572 1.22.682 1.61.15.6.17 1.48.17 2.58 0 .92-.33 1.41-.69 1.65-.15.08-1.23.24-1.72.28-.09.15-.11.19-.11.3 0 .1.04.17.06.26 1.1 0 2.23-.02 2.88-.02.45 0 1.13.02 2.4.04.73.02 1.28.04 1.67.04.04-.09.1-.17.1-.28s-.02-.17-.09-.28c-.69-.08-1.65-.21-1.87-.43-.35-.36-.52-.53-.56-1.37l-.17-3.22c-.03-.234.06-.45.08-.514.07-.23.15-.43.24-.6l3.3-6.55c.3-.56.95-1.18 1.37-1.44.3-.19.97-.32 1.39-.43.05-.103.09-.19.09-.28m-17.36 4.42V5.1c0-.325-.13-.41-.46-.41-.64 0-3.61.085-7.04.085-2.66 0-4.45-.043-5.65-.043h-1.59c-.28 0-.36.066-.36.37V8.99c.08.062.15.082.26.082.08 0 .17 0 .26-.04.83-1.87 1.26-2.86 2.7-3.586.64-.066 2.9-.09 3.24-.09.02.236.04.99.06 1.89.02 1.546.02 2.382.02 6.032 0 3.158-.02 4.79-.06 5.133-.09.6.02 1.06-2.56 1.16-.06.15-.06.19-.06.37 0 .09 0 .17.02.26h.84c.8 0 1.85-.08 2.62-.08.63 0 1.81.07 3.12.07h.6c.06-.11.06-.21.06-.32 0-.13-.02-.19-.08-.3-.23 0-1.61.04-2.21-.41-.07-.24-.19-.86-.19-1.61-.02-2.32-.05-3.41-.05-4.96 0-2 .02-3.52.02-7.23.3 0 1.89-.02 2.53 0 1.33.36 1.85.86 2.43 1.63.51.69.64 1.31.96 2.34.13.05.2.05.33.05.08 0 .19-.04.23-.08M326 19.91c0-.11-.02-.21-.06-.3-.32-.02-1.2-.11-1.59-.19-.34-.41-.58-.88-.73-1.66-.02-1.03-.04-3.37-.04-5.36V6.9c0-.58.238-1.03.39-1.15.408-.39 1.22-.47 1.91-.56.04-.08.06-.19.06-.27 0-.13-.06-.218-.102-.26h-.62c-.9 0-2.19.106-2.92.106-.45 0-1.74-.06-2.69-.083h-.47c-.07.08-.11.08-.11.28 0 .08.02.17.04.27 1.05.08 1.525.19 1.674.3.255.19.62.66.71 1.82.02.4.04 1.5.06 3.48.02 1.07.04 2.53.04 3.78 0 .62-.043 2.23-.066 2.98-.04.51-.15 1.01-.3 1.29-.26.21-.52.6-2.087.71-.05.08-.07.23-.07.32 0 .17.04.17.04.27h.36c.86 0 2.19-.11 3.31-.11.32 0 1.74.06 2.45.06h.71c.06-.11.08-.19.08-.28m-10.6-3.96c0-1.72-.78-2.9-2.43-3.78-.45-.26-1.24-.54-2.38-.86-1.31-.37-2.41-.8-3.12-1.18-.47-.26-1.27-.97-1.27-2.34 0-1.38 1.4-2.51 3.03-2.51 1.29 0 2.32.64 2.94 1.5.54.75.73 1.093 1.33 2.45.06.02.15.04.21.04.19 0 .37-.11.47-.218-.07-.534-.17-1.286-.17-1.93 0-.56.13-1.29.19-1.68-.17-.255-.36-.3-.64-.3-.3.195-.58.494-.84.773-1.42-1.14-2.58-1.33-3.65-1.33-2.64 0-4.53 1.76-4.53 4.1 0 .796.27 1.57.79 2.364.47.664 1.16 1.18 2.08 1.564.63.26 3.42 1.1 3.8 1.25 1.72.665 2.37 1.247 2.37 2.77 0 .75-.32 1.42-.94 2.17-.56.687-1.44 1.01-2.38 1.01-1.01 0-2.75-.432-3.61-1.59-.52-.67-1.25-2.06-1.46-2.9-.15-.043-.15-.043-.3-.043-.13 0-.28.046-.41.134 0 .28.08 1.69.08 2.12 0 1.054-.19 1.57-.23 1.91.06.215.43.43.69.43.45-.387.93-.686 1.08-.686.13 0 .33.07.52.19 1.4.91 2.56 1.08 3.59 1.08 3.02 0 5.19-1.52 5.19-4.51m-19-7.41c0 1.38-1.09 2.92-2.36 3.2-.52.11-1.27.17-2.23.17-.26 0-.99 0-1.31-.04l-.02-1.89V5.89c0-.28.06-.43.15-.493.09-.06.96-.13 1.5-.13 2.02 0 2.94.195 3.68 1.246.4.583.6 1.247.6 2m4.51 11.38c0-.106-.04-.235-.11-.32-.22 0-1.1-.044-1.42-.28-.11-.13-.28-.39-.37-.537-.28-.988-.58-1.87-.91-2.688-.45-1.074-1.07-2.082-1.59-2.555-.19-.17-.8-.45-1.55-.71-.35-.13-.63-.23-.89-.34.32-.067.47-.087.88-.13 1.4-.17 1.87-.47 2.28-.79.86-.65 1.42-1.61 1.42-2.77 0-1.74-1.11-3.395-2.68-3.89-.51-.15-1.44-.237-2.57-.237-1.61 0-2.81.15-3.89.15-.32 0-1.37-.04-2.12-.04-.32 0-1.13-.04-1.26-.04-.07.15-.11.196-.11.28 0 .086.02.215.04.3.37.046 1.03.13 1.37.194.514.39.684.685.9 1.16.11.683.13 2.62.13 5.643 0 2.19.02 4.94-.09 5.756-.06.53-.25 1.18-.88 1.43-.28.04-.79.13-1.22.15-.06.11-.107.19-.107.3 0 .06.04.15.09.25.3 0 2.77-.06 3.45-.06 1.374 0 1.72.06 2.94.06.045-.09.09-.15.09-.24 0-.15-.045-.24-.09-.32-.428-.04-.965-.17-1.2-.22-.538-.26-.92-.77-.92-1.53l-.025-5.37c.17-.02.797-.02.97-.02.58 0 1.16.04 1.72.3.81.37 1.584.95 2.1 1.74.68 1.07 1.134 3.11 1.35 4.68.064.45.234.83.64.88.17.02.43.06 1.25.06h2.23c.09-.09.13-.17.13-.28m-18-3.26c0-.3 0-.43-.02-.62-.11-.07-.15-.07-.33-.07-.15 0-.13 0-.28.05-.47 1.57-1.29 2.73-2.21 3.29-.32.19-.9.23-1.83.23h-2.41c-.75-.03-1.23-.07-1.42-.11-.32-.07-.665-.58-.815-.93-.15-.37-.23-.5-.23-1.48v-4.9h.69c.69 0 1.25.04 1.83.3.54.24.95.58 1.16.92.2.3.26 1.48.3 1.78.11.07.17.09.35.09.17 0 .19-.02.34-.11 0-.58-.13-2.15-.13-3.01 0-1.07.15-2.39.21-3.16-.08-.05-.13-.09-.34-.09-.15 0-.22 0-.34.07-.06.3-.23 1.2-.28 1.27-.32.54-1.07.96-1.65 1.14-.39.11-.95.17-1.76.17h-.35V9.4c0-2.066.04-2.904.06-3.29.02-.257.06-.538.09-.73.2-.02.82-.043 1.81-.043 1.25 0 2.17.023 2.36.023.6.04 1.05.17 1.37.424 1.06.816 1.34 1.354 1.92 2.662.13.04.15.04.26.04.13 0 .15-.043.33-.13 0-1.31-.09-2.792-.13-3.327-.02-.22-.07-.28-.5-.28-.17 0-.99-.05-1.84-.05-1.226 0-1.72.02-3.59.02-1.01 0-2.79.02-3.67.02-1.29 0-1.56-.05-2.12-.05h-.7c-.068.09-.11.17-.11.26 0 .11.042.21.11.3.26.09 1.264.06 1.562.24.3.26.58.32.77 1.35.045.45.066 1.91.066 2.89v4.42c0 .9-.02 2.39-.04 2.92-.04.83-.34 1.89-.47 2.08-.19.15-1.07.27-1.93.32-.06.13-.1.21-.1.34 0 .13.04.19.11.3h.71c.69 0 2.41-.07 2.99-.07.54 0 1.27.04 2.52.04.69 0 2.71.13 7.05.13.17 0 .37.02.58-.05.07-.1.07-.15.09-.34.04-.43.04-1.49.04-3.23M267.03 4.91c0-.086-.025-.217-.11-.238h-.73c-.515 0-1.33.043-1.696.043-1.738 0-2.36-.108-2.62-.108h-.386c-.04.105-.107.17-.107.275 0 .087.05.15.05.237.54.06 1.01.17 1.48.32.26.25.54.77.54 1.35 0 .21-.21 1.22-.51 1.95l-3.45 8.5-4.27-10.74c.07-.52.35-1.01.71-1.2.37-.05.82-.18 1.4-.18.05-.09.09-.22.09-.3s-.02-.22-.1-.24h-.54c-.66 0-1.67.08-2.81.08-.49 0-1.45-.05-2.4-.05h-.84c-.04.08-.08.13-.08.25 0 .13.02.17.06.26.61.15 1.19.38 1.81.73.41.6 1.29 2.76 1.77 3.9l1.78 4.29c1.48 3.56 2.36 5.95 2.47 6.35.11.06 0 .13.2.13s.18-.05.22-.15l5.54-13.32c.19-.48.5-.93.78-1.23.34-.39 1.05-.53 1.72-.69.03-.08.09-.17.09-.27m-18.82 14.97c0-.11-.02-.21-.06-.3-.32-.02-1.2-.11-1.59-.2-.34-.41-.58-.88-.73-1.66-.02-1.03-.04-3.37-.04-5.37V6.9c0-.58.24-1.03.39-1.16.41-.385 1.23-.473 1.91-.56.05-.08.07-.19.07-.274 0-.13-.07-.217-.11-.26h-.62c-.9 0-2.18.107-2.92.107-.45 0-1.73-.063-2.68-.085h-.47c-.06.08-.11.08-.11.28 0 .08.03.17.05.27 1.05.08 1.53.19 1.68.3.26.19.63.66.71 1.82.02.4.04 1.5.06 3.48.02 1.07.04 2.53.04 3.78 0 .62-.04 2.23-.06 2.98-.05.51-.15 1.01-.31 1.29-.26.21-.51.6-2.08.71-.04.08-.06.23-.06.32 0 .17.04.17.04.27h.36c.86 0 2.19-.11 3.31-.11.32 0 1.74.06 2.44.06h.71c.06-.11.08-.19.08-.28m-9.71-15c0-.09-.02-.15-.06-.22h-.5c-1.07 0-1.55.04-3.48.04-.67 0-1.65-.05-1.89-.05h-.56c-.06.04-.08.19-.08.28 0 .1.02.15.1.23.34.1 1.65.25 2.21.62.39.45.56 1.35.62 2.19.02.32.05.64.05 1.52v6.38c0 .51-.02.68-.05.92-.36-.41-.98-1.21-1.82-2.19L224.87 5c-.06-.09-.19-.2-.32-.28-.17 0-.39-.02-.56-.02-1.37 0-2.57-.07-2.94-.07-.04.083-.06.13-.06.21 0 .04.02.212.04.28.32.08 1.27.19 1.65.6.35.383.86.84 1.06 1.262.06.15.08.385.08.686 0 1.12-.064 3.16-.064 4.66v4.58c0 .705-.066 1.266-.13 1.63-.45.472-1.14.815-2.255 1.095-.04.11-.08.145-.08.26 0 .06.02.19.07.21h.41c.43 0 1.42-.067 2.06-.067.95 0 1.38.064 2.26.064h1.29c.09-.02.11-.194.11-.28 0-.084-.02-.13-.06-.21-.76-.196-1.85-.368-2.58-1.33-.15-.326-.28-1.96-.28-2.71 0-.69-.02-1.805-.02-3.07 0-1.697.02-4.037.04-4.79.13.15.33.39.48.56l10.18 11.92c.11.103.15.123.26.123.11 0 .04 0 .13-.04.05-.107.11-.455.11-.97 0-.62-.02-1.27-.02-1.59v-9.1c0-2.68 1.27-3.433 2.75-3.497.06-.107.08-.17.08-.28m-19.88.11c0-.09-.04-.216-.11-.28h-.62c-.67 0-1.57.043-2.34.043-.86 0-1.82-.04-2.44-.04h-.77c-.06.13-.09.17-.09.28 0 .08.02.17.06.27.09 0 1.66.02 1.94.4.23.32.75 1.11.83 1.59.05.21.18 1.09.18 2.36 0 1.82 0 3.05-.02 3.69-.05 1.2-.18 2.14-.39 2.85-.61 1.87-2 2.79-4.21 2.79-.95 0-1.76-.19-2.52-.54-1.4-.69-2.06-2-2.08-2.71l-.11-6.44-.02-2.62c0-.49.62-.95.84-1.2.17-.09 1.12-.18 1.65-.22.07-.13.11-.19.11-.3 0-.11-.06-.22-.15-.28l-.81.02c-.79.02-1.85.04-2.51.04-1.02 0-1.82-.02-2.46-.02h-.9c-.08.06-.1.19-.1.3s.02.19.08.26c.69.08 1.14.15 1.44.21.37.22.62.58.76.95.02.28.07.96.07 2.32v5.15c0 1.33.06 2.28.21 2.88.28 1.12.88 2 1.87 2.64 1.05.69 2.36 1.03 3.93 1.03 1.44 0 2.67-.3 3.7-.88 1.08-.57 1.74-1.52 2.13-2.85.22-.79.35-1.65.35-2.55V10c0-.77.05-1.738.05-2.123.02-1.157.32-1.847.64-2.362.35-.11.65-.17 1.78-.3.04-.086.09-.15.09-.257"/>
</svg>
