<svg xmlns="http://www.w3.org/2000/svg" width="250.353" height="52.835" viewBox="0 0 250.353 52.835">
  <g fill="#FFF">
    <path d="M49.74 10.073v-.23h-.057c-.422-1.554-1.907-2.705-3.68-2.705v2.704h-.007l.093 39.097s-5.51-1.78-10.49-3.95c-5.75-2.51-10.35.22-10.77.48v.02l-.02-.02-.03.01v-.03c-.42-.27-5.02-2.99-10.77-.49-4.98 2.17-10.49 3.95-10.49 3.95l.1-39.1H3.6v-2.9C1.85 6.93.393 8.18.07 9.84H.004v.624c0 .024-.004.047-.004.07s.004.047.004.072V52.68H49.74V11.407c.042-.217.068-.44.068-.667s-.026-.45-.068-.667z"/>
    <path d="M12.514 31.942c1.148 2.055 2.473 4.02 3.943 5.88l8.436-8.205 8.46 8.225c1.46-1.84 2.776-3.798 3.94-5.865l-12.4-11.933-12.38 11.898zM42.78 6.72c-1.452.442-2.998.683-4.6.683-5.66 0-10.608-2.977-13.272-7.403-2.672 4.426-7.617 7.403-13.276 7.403-1.6 0-3.146-.24-4.596-.68-.378 4.318-.105 8.583.755 12.685H42c.892-4.278 1.14-8.54.78-12.688"/>
  </g>
  <path d="M85.082 51.397c-.076 1.09-.153 1.205-.84 1.205-.803 0-5.808.117-11.004.117-2.98 0-5.31-.04-7.717-.04-1.64 0-3.2.11-4.54.11h-.76c-.07-.16-.11-.31-.11-.47 0-.2.08-.35.12-.51.92-.27 2.56-.66 3.52-1.13.31-.55.5-1.71.54-3.11 0-.66.04-2.53.04-5.6 0-1.25-.07-4.9-.19-10.07-.04-1.98-.11-3.81-.23-4.2-.19-.59-.49-1.25-1.26-1.6-.61-.16-1.49-.12-2.41-.35-.07-.16-.11-.39-.11-.58 0-.27.08-.27.19-.43l12.08-.04c.12.08.15.27.15.46s-.03.39-.15.5c-1.76.07-3.93.04-3.93 2.95v4.74l.26 14.93c0 .73.69 1.82 1.23 2.29.77.66 1.99.97 3.63.97 2.22 0 4.17-.43 5.89-1.32 2.14-1.13 3.44-3.58 4.55-6.3.19-.08.38-.12.57-.12.31 0 .39.04.61.19.04 1.48.04 3.34.04 3.81 0 1.12-.03 2.33-.11 3.53zm16.16 1.283h-1.26c-1.26 0-4.09-.117-4.66-.117-1.986 0-4.66.195-6.188.195h-.65c0-.195-.075-.195-.075-.506 0-.155.03-.428.11-.582 2.79-.195 3.24-.895 3.7-1.283.27-.505.46-1.398.53-2.33.04-1.36.11-4.275.11-5.402 0-2.254-.04-4.896-.08-6.84-.04-3.574-.08-5.556-.12-6.294-.15-2.09-.81-2.95-1.26-3.3-.27-.19-1.11-.39-2.98-.54-.04-.19-.08-.35-.08-.5 0-.35.07-.35.19-.5h.84c1.68.04 4.28.16 5.08.16 1.3 0 3.9-.19 5.5-.19h1.1c.08.08.19.24.19.47 0 .16-.04.35-.11.51-1.22.16-2.68.31-3.4 1.01-.27.23-.69 1.05-.69 2.1v9.87c0 3.61.04 7.85.08 9.71.26 1.4.68 2.26 1.3 3 .68.16 2.25.31 2.82.35.08.16.11.35.11.55 0 .16-.04.31-.15.51zm28.005-1.787c-1.604 1.632-3.477 1.904-6.036 1.865l-10.85-.156c-1.03 0-3.2.078-4.27.078-.72 0-1.41 0-1.56-.04-.07-.154-.11-.35-.11-.505 0-.154.04-.31.19-.582 2.22 0 3.9-.428 4.05-1.01.23-.816.46-2.177.58-3.42.04-1.05.12-4.586.12-8.2 0-3.263-.19-9.014-.23-9.403-.03-.583-.11-1.244-.22-1.75-.19-.737-.72-1.592-1.79-1.748-.92-.117-2.14-.272-2.71-.35-.07-.233-.11-.35-.11-.505 0-.233.04-.233.15-.428.19-.04.61-.04.92-.04h7.91c2.33 0 4.51-.12 5.96-.12 1.99 0 3.48.27 4.55.81 2.37 1.2 3.48 3.3 3.48 6.29 0 2.45-.88 4.23-2.37 4.97-.49.23-1.72.62-2.37.81-.19.04-.65.15-.65.31 0 .23.62.27 1.04.35.58.12 2.26.47 2.68.66.65.27 2.14 1.32 2.83 2.72.61 1.16.92 2.48.92 3.96 0 2.21-.69 4.04-2.02 5.4zm-3.323-8.937c-1.375-2.138-2.79-2.604-5.578-3.148-.688-.116-1.758-.27-3.21-.27-.992 0-1.603.038-1.72.193-.037.08-.075.59-.075 1.4v7.15c0 1.17.08 1.48.16 1.94.46.9 1.26 1.68 2.26 2.26.38.08 1.38.12 1.91.12 2.83 0 3.78-.46 5.2-1.63 1.23-1.12 1.87-2.79 1.87-5.17 0-1.08-.26-2.05-.8-2.83zM123.86 28.2c-.764-1.245-1.91-1.905-3.477-2.216-.688-.155-1.604-.233-2.75-.233-.65 0-1.338.04-2.062.04-.07 1.29-.15 6.3-.15 6.3-.04 1.44-.04 2.49-.04 3.23 0 1.17.08 1.95.16 2.02.08.08.54.08 1.26.08 2.07 0 5.31-.47 5.89-.85.23-.15.5-.43.81-.85.92-1.24 1.41-2.6 1.41-4 0-1.28-.38-2.49-1.03-3.5zm36.945 24.52h-4.28c-1.45 0-2.215-.08-2.52-.118-.726-.077-1.03-.777-1.146-1.593-.39-2.84-1.19-6.57-2.41-8.52-.92-1.44-2.22-2.49-3.67-3.15-1-.47-2.03-.55-3.06-.55-.31 0-.69 0-1 .04l.04 9.75c0 1.36.68 2.29 1.64 2.76.42.07 1.37.31 2.14.38.07.15.15.31.15.58 0 .15-.08.27-.15.43-2.18 0-3.1-.12-5.54-.12-1.23 0-5.92.11-6.46.11-.08-.2-.16-.35-.16-.47 0-.19.07-.35.19-.54.76-.04 1.68-.2 2.18-.28 1.1-.47 1.45-1.63 1.56-2.6.19-1.48.15-6.45.15-10.42 0-5.48-.04-8.98-.23-10.22-.38-.86-.69-1.4-1.61-2.1-.61-.12-1.8-.27-2.45-.35-.04-.16-.08-.39-.08-.55 0-.15.07-.23.19-.5.23 0 1.68.08 2.25.08 1.34 0 3.52.08 4.09.08 1.91 0 4.24-.28 7.11-.28 2.02 0 3.66.16 4.58.43 2.79.89 4.77 3.89 4.77 7.03 0 2.1-.84 3.85-2.37 5.01-.73.58-1.38 1.05-4.21 1.4-.73.07-.99.11-1.57.23.46.19.95.39 1.57.62 1.34.46 2.33.97 2.67 1.28.91.85 2.02 2.72 2.82 4.66.58 1.47 1.11 3.07 1.61 4.85.15.27.46.73.65.97.57.43 2.14.5 2.52.5.11.15.19.39.19.58 0 .19-.08.35-.23.5zm-9.4-24.715c-1.298-1.904-2.94-2.253-6.532-2.253-.954 0-1.795.117-1.947.233-.153.117-.27.39-.27.894v7.34l.04 3.38c.572.08 1.145.08 1.603.08 1.72 0 3.05-.12 3.97-.31 2.25-.51 4.2-3.27 4.2-5.75 0-1.36-.35-2.57-1.07-3.62zM192.4 52.72c-2.483 0-4.28-.118-6.647-.118-1.452 0-3.133.078-3.782.078h-1.72c-.19-.155-.26-.35-.26-.506 0-.154.04-.27.23-.504 1.49-.078 2.41-.234 2.94-.506.35-.39.58-1.127.58-1.904-.15-.582-.57-1.865-1.1-3.458-.3-.933-.69-1.943-.95-2.604-.15-.272-.45-.894-.76-1.127-3.51 0-6.49 0-9.17.12-.23.43-.27.66-.53 1.44l-1.56 5.13c.15 1.28.76 2.14 1.3 2.64.34.16 1.33.31 2.29.39.11.2.19.31.19.47 0 .16-.04.27-.15.51h-1.04c-1.37 0-2.83-.15-4.28-.15-1.33 0-3.28.08-4.08.08-.12-.19-.15-.23-.15-.42 0-.15.08-.35.12-.54 1.64-.46 3.25-.89 3.82-2.29 1.11-2.84.99-2.49 2.75-7.42 1.8-5.05 3.1-8.51 3.9-10.53l1.72-4.16c.46-1.28.84-2.1 1.19-2.41.23-.27.61-.39.91-.39.38 0 .69.16.92.47.08.12.23.58.34.89l1.68 4.23 5.54 14.46c.69 1.79 1.23 2.99 1.84 4.55.31.78.73 1.67.96 1.86.19.15 2.03.7 3.02.85.08.15.19.31.19.46 0 .16-.07.31-.19.43zm-12.493-14.106c-.61-1.71-1.87-5.13-2.56-6.88-.267-.66-.61-1.437-.917-2.058-.65 1.438-1.185 2.682-2.14 5.247-1.03 2.758-1.947 5.48-2.1 6.022h5.31c1.07 0 2.33-.04 3.094-.155-.228-.817-.38-1.322-.687-2.176zm41.72 14.106h-4.278c-1.46 0-2.22-.08-2.53-.118-.73-.077-1.03-.777-1.15-1.593-.38-2.84-1.19-6.57-2.41-8.52-.92-1.44-2.22-2.49-3.67-3.15-1-.47-2.03-.55-3.06-.55-.31 0-.69 0-1 .04l.04 9.75c0 1.36.69 2.29 1.64 2.76.42.07 1.37.31 2.14.38.07.15.15.31.15.58 0 .15-.08.27-.16.43-2.18 0-3.1-.12-5.54-.12-1.22 0-5.92.11-6.46.11-.08-.2-.15-.35-.15-.47 0-.19.07-.35.19-.54.76-.04 1.68-.2 2.18-.28 1.1-.47 1.45-1.63 1.56-2.6.19-1.48.15-6.45.15-10.42 0-5.48-.04-8.98-.23-10.22-.38-.86-.69-1.4-1.6-2.1-.61-.12-1.8-.27-2.45-.35-.04-.16-.07-.39-.07-.55 0-.15.07-.23.19-.5.23 0 1.68.08 2.25.08 1.34 0 3.51.08 4.09.08 1.91 0 4.24-.28 7.1-.28 2.02 0 3.66.16 4.58.43 2.79.89 4.77 3.89 4.77 7.03 0 2.1-.84 3.85-2.37 5.01-.72.58-1.37 1.05-4.2 1.4-.73.07-.99.11-1.57.23.45.19.95.39 1.56.62 1.34.46 2.33.97 2.67 1.28.91.85 2.02 2.72 2.82 4.66.57 1.47 1.11 3.07 1.6 4.85.15.27.46.73.65.97.57.43 2.14.5 2.52.5.12.15.19.39.19.58 0 .19-.07.35-.23.5zm-9.398-24.715c-1.3-1.904-2.95-2.253-6.54-2.253-.96 0-1.8.117-1.95.233-.16.117-.27.39-.27.894v7.34l.03 3.38c.57.08 1.14.08 1.6.08 1.72 0 3.05-.12 3.97-.31 2.25-.51 4.2-3.27 4.2-5.75 0-1.36-.34-2.57-1.07-3.62zm37.2-2.525c-.77.194-1.95.427-2.49.776-.77.466-1.91 1.593-2.45 2.604l-5.85 11.852c-.16.31-.27.66-.27 1.05 0 .038-.04.505 0 .972l.34 5.828c.07 1.516.38 1.826.99 2.487.38.38 2.1.62 3.32.77.11.19.15.31.15.5s-.12.35-.19.5c-.69 0-1.68-.04-2.98-.08-2.25-.04-3.78-.08-4.59-.08-1.15 0-3.48.04-5.43.04-.04-.16-.12-.28-.12-.47s.04-.27.19-.55c.88-.08 2.79-.35 3.06-.51.65-.43 1.22-1.32 1.22-2.99 0-1.98-.08-3.58-.34-4.67-.19-.7-.58-1.67-1.23-2.92l-6.66-13.31c-.27-.5-1.03-.97-3.59-1.59-.12-.2-.15-.31-.15-.47 0-.27.07-.31.23-.58.3 0 2.86.12 4.73.12 4.39 0 3.97-.12 6.53-.12h.69c.11.19.23.12.23.39 0 .15-.04.39-.12.58-1.61.19-2.79.27-3.14.97-.07.15-.15.5-.15 1.01 0 .35.08.89.15 1.05l2.14 4.74c.54 1.16 2.56 5.36 3.56 7.07.61-.86 1.53-2.84 3.28-6.45 1.03-2.14 1.76-3.65 2.1-4.63.19-.51.23-.97.23-1.44 0-.63-.08-1.01-.34-1.52-.3-.55-1.91-.82-3.01-1.05-.04-.12-.08-.27-.08-.47s.04-.23.15-.47c1.03 0 3.4.16 5.35.16.8 0 2.86-.12 4.43-.12.08.15.23.23.23.46 0 .15-.08.31-.15.5zM153.15 7.906c0-.05-.014-.136-.038-.174h-.288c-.625 0-1.025.024-2.147.024-.39 0-.963-.024-1.1-.024h-.325c-.038.024-.05.163-.05.213 0 .062.012.162.06.213.2.06.963.148 1.287.362.22.263.32.788.36 1.274.01.19.02.375.02.888v2.612c0 .3-.01.4-.03.538-.21-.237-.51-.688-1.01-1.25l-4.18-4.625c-.04-.05-.11-.112-.19-.163-.1 0-.28-.013-.38-.013-.8 0-2.25-.03-2.47-.03-.03.05-.05.13-.05.18 0 .03.02.2.04.24.19.05.6.11.94.48.2.23.55.54.66.79.04.09.05.23.05.4 0 .65-.04 1.57-.04 2.44v2.54c0 .41-.04.74-.08.95-.26.28-.66.48-1.31.64-.03.07-.05.17-.05.23 0 .04.01.17.03.18h.24c.24 0 .82-.03 1.19-.03.55 0 .93.04 1.44.04h.75c.05-.01.06-.16.06-.21 0-.05-.01-.15-.03-.2-.44-.11-1.07-.21-1.5-.77-.09-.18-.16-1.11-.16-1.55 0-.4-.02-.95-.02-1.68 0-.99.01-1.85.03-2.29l.22.28 5.77 6.49c.06.06.29.08.35.08s.1 0 .15-.02c.02-.06.11-.26.11-.56 0-.36-.02-.73-.02-.92V10.2c0-1.56.73-2 1.6-2.036.04-.065.05-.178.05-.24M138.8 11.9c0 1.886-.52 3.55-1.233 4.136-.368.3-.82.45-1.33.45-.7 0-1.314-.275-1.664-.837-.478-.73-.74-2.08-.74-3.25 0-1.74.45-3.1 1.25-3.77.426-.35.86-.49 1.3-.49.675 0 1.324.32 1.7.86.473.64.71 1.58.71 2.88m2.265.24c0-1.75-.78-3.09-2.23-3.89-.78-.43-1.55-.64-2.38-.64-1.82 0-3.47 1.09-4.21 2.32-.48.77-.73 1.62-.73 2.52 0 1.44.7 2.85 1.79 3.66.82.6 1.76.9 2.85.9.66 0 1.28-.13 1.9-.37.68-.26 1.27-.67 1.73-1.19.81-.89 1.26-2.03 1.26-3.34m-10.987-1.58V8c0-.188-.07-.24-.26-.24-.38 0-2.35.05-4.35.05-1.55 0-2.84-.024-3.54-.024h-.9c-.16 0-.21.038-.21.212v2.39c.05.036.14.048.2.048.05 0 .23 0 .28-.025.56-1.13 1.08-1.75 1.75-2.08.37-.03 1.11-.05 1.31-.05.01.14.02.58.04 1.1.01.9.01 1.29.01 3.42 0 1.84-.01 2.67-.04 2.87-.05.35.01.62-1.49.68-.04.09-.04.19-.04.29 0 .05 0 .15.02.2h.49c.47 0 1.55-.05 2-.05.36 0 1.53.04 2.29.04h.35c.04-.06.04-.2.04-.26 0-.07-.01-.16-.05-.22-.13 0-.94.02-1.28-.24-.04-.14-.11-.5-.11-.94-.01-1.35-.02-1.86-.02-2.76 0-1.16.02-1.95.02-4.11.18 0 .58-.01.95 0 .78.22 1.15.5 1.49.95.22.29.44.78.67 1.37.08.02.14.02.22.02.05 0 .21-.02.24-.05m-10.78 4.06c0-.17 0-.25-.01-.36-.06-.04-.09-.04-.19-.04-.09 0-.19 0-.27.02-.42.97-1.04 1.72-1.37 1.92-.18.12-.47.14-.93.14h-1.03c-.39 0-.71-.03-.82-.06-.19-.04-.38-.34-.47-.54-.09-.21-.14-.21-.14-.79V12.2h.46c.12 0 .43.022.76.173.31.14.44.327.56.526.11.17.19.86.21 1.04.07.03.23.04.33.04s.16-.01.25-.06c0-.34-.08-1.25-.08-1.75 0-.63.09-1.49.13-1.94-.05-.03-.12-.05-.25-.05-.09 0-.25 0-.32.04-.04.17-.17.69-.2.73-.19.31-.51.55-.85.65-.22.06-.55.1-.72.1h-.27v-1.16c0-1.2.03-1.59.04-1.81.01-.15.04-.31.05-.43.11-.01.17-.03.75-.03.72 0 1.06.01 1.17.01.36.02.61.1.8.25.48.36.84.93 1.2 1.55.08.02.2.02.26.02.08 0 .09-.02.19-.08 0-.77-.05-1.75-.07-2.07-.01-.13-.03-.17-.28-.17-.11 0-.58-.03-1.08-.03-.71 0-1 .01-2.09.01-.59 0-1.8.01-2.31.01-.75 0-1.39-.02-1.71-.02h-.43c-.04.05-.06.15-.06.2 0 .06.03.2.067.25.15.05.73.04.91.14.17.15.33.21.45.81.02.26.03.99.03 1.56v2.57c0 .52-.014 1.29-.027 1.6-.025.48-.2 1.07-.274 1.19-.116.08-.63.16-1.127.18-.04.07-.065.2-.065.27s.02.16.06.22h.41c.4 0 1.877-.04 2.216-.04.31 0 .91.02 1.636.02.4 0 1.578.07 4.1.07.1 0 .21.01.34-.03.038-.06.038-.09.05-.2.02-.26.02-.99.02-2.01m-10.59.45c-.032-.11-.132-.3-.42-.3-.023 0-.06.01-.09.01-.75 1.06-1.57 1.46-2.51 1.46-1.3 0-2.224-.88-2.52-1.65-.16-.41-.38-1.31-.38-2.28 0-.91.14-1.65.377-2.18.55-1.45 1.35-1.9 2.327-1.9.81 0 1.49.46 2 1.12.21.29.44.85.64 1.51.05.01.16.033.27.033.074 0 .25-.06.3-.11-.014-.14-.14-1.1-.14-1.4 0-.38.1-.99.1-1.23-.07-.08-.32-.13-.484-.14-.19.13-.25.3-.43.51-.7-.5-1.35-.89-2.78-.89-1.31 0-2.35.45-3.13 1.24-.86.85-1.34 2.02-1.34 3.52 0 1.6.68 2.91 1.76 3.74.69.5 1.7.84 2.91.84 1.52 0 2.64-.58 3.2-1.34.22-.3.25-.37.35-.58m-9.74-7.1c0-.05-.01-.14-.04-.18h-.27c-.62 0-1.02.02-2.15.02-.38 0-.96-.024-1.1-.024h-.32c-.03.025-.05.164-.05.214 0 .06.02.16.07.215.2.06.96.145 1.28.36.22.262.32.79.36 1.273.01.19.02.378.02.89v2.61c0 .3-.02.4-.03.54-.22-.236-.52-.69-1.02-1.25L91.6 7.94c-.04-.05-.11-.112-.19-.163-.1 0-.28-.01-.38-.01-.81 0-2.25-.04-2.47-.04-.03.05-.05.12-.05.17 0 .02.02.2.03.23.19.05.6.11.94.47.2.22.55.53.66.79.04.08.05.22.05.4 0 .65-.04 1.56-.04 2.43v2.53c0 .41-.04.73-.08.95-.26.27-.66.47-1.31.63-.03.06-.05.16-.05.22 0 .04.01.16.03.17H89c.25 0 .826-.04 1.2-.04.55 0 .924.03 1.44.03h.75c.05-.02.06-.17.06-.21 0-.05-.012-.15-.036-.2-.437-.11-1.075-.21-1.5-.78-.09-.19-.162-1.11-.162-1.55 0-.4-.015-.95-.015-1.69 0-.99.015-1.85.026-2.29.076.09.164.2.227.27l5.775 6.48c.06.06.286.07.35.07s.1 0 .15-.03c.024-.06.11-.265.11-.56 0-.36-.01-.74-.01-.926v-5.2c0-1.56.736-2 1.6-2.04.04-.06.05-.17.05-.24m-12.365 8.7c0-.06-.01-.2-.037-.25-.188-.01-.7-.06-.925-.11-.2-.24-.336-.52-.423-.96-.017-.6-.03-1.84-.03-3V9.17c0-.338.138-.6.225-.675.237-.226.712-.276 1.113-.325.026-.05.037-.188.037-.238 0-.075-.037-.176-.063-.2h-.36c-.528 0-1.75.062-2.177.062-.264 0-1.49-.04-2.04-.05h-.27c-.035.05-.06.1-.06.213 0 .05.012.174.024.237.612.05.886.11.975.174.15.113.36.388.41 1.063.01.24.02.75.03 1.9.01.63.02 1.5.02 2.23 0 .37-.03 1.18-.04 1.62-.02.3-.09.59-.18.75-.15.13-.3.35-1.21.41-.03.05-.04.22-.04.27 0 .1.02.15.02.21h.21c.5 0 1.75-.06 2.4-.06.18 0 1.48.04 1.9.04h.41c.03-.06.05-.16.05-.21M76.6 10.06c0 .78-.524 1.67-1.14 1.82-.25.07-.56.1-1.023.1-.12 0-.31 0-.46-.02V8.57c0-.15.04-.24.075-.278.04-.037.264-.075.525-.075.98 0 1.4.086 1.75.675.2.337.29.725.29 1.15m3.63 6.537c0-.07-.02-.22-.06-.27-.12 0-.63-.03-.82-.17-.06-.08-.16-.23-.21-.32-.163-.58-.35-.96-.54-1.44-.26-.63-.624-1.21-.922-1.49-.11-.1-.5-.27-.936-.42-.2-.08-.37-.14-.52-.2.19-.04.27-.05.51-.08.92-.11 1.13-.28 1.37-.46.5-.38.77-.95.77-1.63 0-1.01-.65-1.99-1.57-2.27-.3-.09-.84-.14-1.5-.14-.94 0-2.25.09-2.88.09-.19 0-1.27-.03-1.71-.03-.19 0-.67-.03-.74-.03-.04.08-.06.18-.06.23s.01.17.02.22c.21.02.6.07.8.11.3.22.4.4.52.67.06.4.07 1.42.07 3.18 0 1.28.02 2.75-.05 3.23-.04.31-.15.69-.51.84-.16.02-.46.07-.71.09-.03.06-.06.19-.06.25 0 .04.03.14.05.2.18 0 2.09-.04 2.49-.04.8 0 1.47.04 2.19.04.02-.05.05-.14.05-.19 0-.09-.03-.21-.05-.26-.25-.03-.57-.1-.7-.13-.31-.15-.54-.45-.54-.89l-.01-2.89c.1-.02.22-.02.32-.02.16 0 .35.02.66.2.46.26.69.45.99.91.4.62.66 1.77.79 2.68.03.27.14.49.37.52.1.01.76.04 1.24.04h1.8c.05-.05.08-.15.08-.22m-13.55-6.4c0 .63-.23 1.2-.64 1.56-.26.21-.68.33-1.3.33-.26 0-.46-.01-.54-.03-.1-.01-.17-.02-.17-.08l.02-3.66c.15-.01.36-.06.73-.06.85 0 1.37.21 1.62.74.17.34.27.77.27 1.2m2.23.05c0-.93-.54-1.81-1.34-2.17-.42-.17-1.14-.29-2.24-.29-.96 0-2.46.08-3.13.08-.46 0-1.16-.05-1.55-.05-.04.06-.06.15-.06.2 0 .05 0 .19.04.25.23.08.62.14.87.2.21.19.26.35.34.71.04.44.07.99.07 1.94 0 2.64-.01 4.03-.05 4.33-.05.38-.3.77-.71.89-.19.04-.46.1-.72.13-.01.07-.02.15-.02.27 0 .1.01.11.04.17.4 0 1.58-.05 2.03-.05 1.11 0 2.25.05 2.71.05h.31c.03-.05.03-.14.03-.2 0-.07 0-.17-.03-.22-.37-.05-.94-.12-1.17-.4-.13-.15-.25-.36-.25-.73l-.04-2.75c.75.05 1.55.08 1.99.08.57 0 1.06-.1 1.45-.22.89-.33 1.43-1.21 1.43-2.17M250.35 7.8c0-.075-.05-.1-.078-.15-.513 0-1.187.038-1.448.038-.64 0-1.414-.05-1.753-.05-.03.076-.05.088-.05.15 0 .063.02.11.03.15.36.075.89.16.99.337.09.164.12.29.12.49 0 .15-.01.3-.07.462-.11.313-.35.8-.69 1.487-.57 1.164-.93 1.888-1.13 2.175-.32-.55-1.05-2-1.22-2.38l-.7-1.53c-.02-.05-.05-.23-.05-.34 0-.17.03-.28.05-.33.12-.23.5-.25 1.03-.31.02-.06.04-.14.04-.19 0-.09-.04-.06-.07-.12h-.22c-.84 0-.59.03-2.02.03-.61 0-1.35-.04-1.45-.04-.05.09-.07.1-.07.19 0 .05.02.08.05.15.84.2 1.09.35 1.18.51l2.19 4.28c.21.4.34.71.4.94.09.35.1.86.1 1.5 0 .54-.19.83-.4.96-.09.05-.71.13-1 .16-.05.08-.06.11-.06.17 0 .06.02.1.04.15.64 0 1.3-.01 1.68-.01.26 0 .66.01 1.4.02.43.01.75.02.98.02.02-.05.06-.1.06-.17s-.01-.1-.05-.17c-.4-.05-.96-.13-1.09-.25-.2-.21-.3-.31-.33-.8l-.1-1.88c-.01-.14.04-.26.05-.3.04-.14.09-.25.14-.35l1.92-3.81c.18-.33.55-.69.8-.84.18-.12.56-.19.81-.25.03-.06.05-.11.05-.16m-10.1 2.57v-2.4c0-.19-.07-.24-.26-.24-.37 0-2.1.05-4.1.05-1.55 0-2.59-.03-3.28-.03h-.93c-.16 0-.21.04-.21.22v2.26c.05.04.09.05.15.05.05 0 .1 0 .15-.02.49-1.08.74-1.66 1.58-2.08.37-.04 1.68-.05 1.88-.05.02.14.03.58.04 1.1.01.9.01 1.39.01 3.51 0 1.84-.01 2.79-.03 2.99-.05.35.02.61-1.48.68-.04.09-.04.11-.04.21 0 .05 0 .1.02.15h.48c.46 0 1.07-.05 1.52-.05.36 0 1.05.04 1.81.04h.35c.04-.06.04-.13.04-.19 0-.08-.01-.12-.05-.18-.14 0-.94.02-1.29-.24-.033-.14-.11-.5-.11-.94-.01-1.35-.024-1.99-.024-2.89 0-1.17.015-2.05.015-4.22.175 0 1.1-.02 1.47 0 .78.21 1.08.5 1.42.95.3.4.37.76.56 1.36.073.02.11.02.19.02.05 0 .11-.03.14-.05m-10.39 6.18c0-.06-.02-.13-.04-.18-.19-.01-.7-.06-.93-.11-.2-.24-.33-.51-.42-.96-.01-.6-.02-1.96-.02-3.13V9.01c0-.338.14-.6.23-.676.24-.226.71-.275 1.11-.325.028-.05.04-.12.04-.17 0-.08-.035-.13-.06-.15h-.364c-.52 0-1.27.06-1.7.06-.26 0-1.01-.04-1.56-.05h-.27c-.04.05-.06.05-.06.16 0 .05.01.1.02.16.61.05.89.11.975.17.15.11.36.39.41 1.06.01.24.02.88.03 2.03.02.62.03 1.47.03 2.2 0 .36-.022 1.3-.04 1.73-.02.3-.083.59-.17.75-.15.13-.3.35-1.22.41-.02.05-.04.13-.04.18 0 .1.03.1.03.16h.21c.5 0 1.273-.07 1.93-.07.19 0 1.01.04 1.42.04h.41c.036-.06.05-.11.05-.16m-6.177-2.3c0-1-.446-1.69-1.41-2.2-.26-.15-.72-.32-1.386-.5-.76-.22-1.4-.47-1.81-.69-.274-.15-.74-.56-.74-1.36S219.2 8 220.15 8c.75 0 1.35.37 1.71.87.31.44.43.64.78 1.42.03.01.08.02.12.02.11 0 .21-.06.27-.13-.04-.316-.1-.75-.1-1.13 0-.32.07-.75.11-.97-.1-.15-.216-.17-.378-.17-.176.11-.34.29-.488.45-.83-.66-1.5-.77-2.13-.77-1.53 0-2.64 1.02-2.64 2.38 0 .464.17.914.47 1.38.28.38.68.68 1.21.91.36.15 1.99.64 2.21.72 1 .39 1.38.73 1.38 1.61 0 .44-.18.83-.55 1.26-.32.4-.83.59-1.39.59-.58 0-1.59-.25-2.09-.92-.3-.39-.724-1.2-.85-1.69-.09-.02-.09-.02-.174-.02-.073 0-.16.03-.24.08 0 .16.05.99.05 1.24 0 .61-.11.91-.133 1.11.04.12.25.25.4.25.26-.23.53-.4.62-.4.07 0 .185.033.3.11.81.523 1.48.623 2.09.623 1.76 0 3.02-.89 3.02-2.63m-11.05-4.3c0 .8-.64 1.7-1.38 1.86-.3.06-.734.1-1.3.1-.15 0-.57 0-.76-.02l-.013-1.1V8.42c0-.163.035-.25.086-.288.05-.04.56-.077.876-.077 1.177 0 1.71.113 2.14.725.24.337.35.724.35 1.16m2.63 6.626c0-.063-.03-.137-.065-.188-.12 0-.63-.03-.82-.17-.06-.08-.16-.23-.21-.318-.16-.575-.34-1.088-.52-1.563-.26-.626-.63-1.213-.93-1.49-.11-.1-.46-.26-.9-.41-.2-.077-.36-.14-.51-.2.19-.04.28-.05.52-.077.82-.1 1.09-.276 1.33-.464.5-.374.82-.936.82-1.61 0-1.014-.65-1.976-1.56-2.265-.3-.08-.83-.13-1.5-.13-.93 0-1.63.09-2.26.09-.19 0-.8-.02-1.23-.02-.19 0-.66-.02-.74-.02-.04.09-.06.11-.06.16s.01.13.02.18c.22.03.6.08.8.11.31.23.4.4.53.68.07.4.08 1.52.08 3.29 0 1.28.02 2.88-.05 3.35-.04.31-.15.69-.51.84-.16.03-.46.08-.71.09-.04.06-.06.11-.06.17 0 .04.02.09.05.15.17 0 1.61-.03 2.01-.03.8 0 1 .03 1.71.03.02-.05.05-.08.05-.13 0-.09-.03-.14-.05-.19-.25-.03-.56-.1-.7-.13-.31-.15-.54-.45-.54-.89l-.01-3.12c.1-.01.46-.01.56-.01.34 0 .68.02 1 .17.48.21.93.55 1.23 1.01.4.63.66 1.81.78 2.73.04.26.14.49.38.51.1.01.25.04.728.04h1.3c.05-.05.07-.1.07-.16m-10.49-1.9c0-.18 0-.25-.01-.36-.06-.04-.09-.04-.19-.04-.09 0-.08 0-.167.02-.27.92-.75 1.59-1.285 1.92-.19.11-.53.14-1.06.14h-1.4c-.435-.02-.71-.04-.822-.07-.18-.03-.38-.33-.47-.53-.09-.22-.14-.29-.14-.87V12h.4c.4 0 .72.025 1.06.175.31.14.55.34.67.54.11.176.15.86.18 1.04.06.04.1.05.2.05s.11-.01.2-.06c0-.336-.07-1.25-.07-1.75 0-.623.09-1.386.127-1.835-.05-.026-.08-.05-.2-.05-.09 0-.13 0-.2.037-.04.175-.14.7-.16.737-.19.31-.63.56-.966.66-.22.063-.55.1-1.02.1h-.2v-1.21c0-1.204.02-1.69.034-1.916.013-.15.04-.313.05-.425.112-.01.475-.02 1.05-.02.723 0 1.26.01 1.37.01.35.025.614.1.8.25.615.475.78.787 1.115 1.55.073.025.09.025.15.025.073 0 .09-.024.19-.075 0-.765-.05-1.628-.077-1.94-.01-.126-.037-.16-.286-.16-.1 0-.578-.027-1.07-.027-.71 0-1 .01-2.09.01-.59 0-1.627.014-2.14.014-.75 0-.91-.025-1.237-.025h-.42c-.04.05-.07.1-.07.15 0 .06.02.124.06.174.15.05.74.03.91.13.18.15.34.18.45.79.02.26.03 1.11.03 1.69v2.57c0 .52-.02 1.39-.03 1.7-.02.48-.2 1.1-.27 1.21-.12.08-.63.16-1.13.18-.04.07-.06.12-.06.2s.02.11.06.17h.41c.4 0 1.4-.04 1.74-.04.31 0 .74.02 1.46.02.4 0 1.58.07 4.1.07.1 0 .21.01.34-.03.04-.07.04-.09.05-.2.02-.26.02-.87.02-1.88m-9.26-6.82c0-.05-.012-.13-.06-.14h-.428c-.3 0-.77.02-.99.02-1.01 0-1.37-.06-1.52-.06h-.23c-.022.06-.06.1-.06.16 0 .05.02.09.02.14.318.04.59.1.868.19.15.15.316.45.316.79 0 .12-.13.71-.3 1.13L191.11 15l-2.47-6.262c.04-.3.2-.585.41-.7.218-.022.48-.1.816-.1.03-.05.05-.122.05-.17 0-.05-.01-.125-.06-.14h-.31c-.39 0-.97.05-1.64.05-.28 0-.85-.023-1.4-.023h-.48c-.02.05-.05.073-.05.15 0 .072.01.1.04.15.35.085.69.223 1.05.424.24.35.75 1.61 1.028 2.27l1.037 2.5c.87 2.07 1.38 3.46 1.44 3.7.06.03 0 .07.11.07.12 0 .11-.03.13-.09l3.23-7.75c.11-.28.29-.54.45-.71.2-.23.61-.31 1-.4.01-.05.05-.1.05-.16m-10.95 8.71c0-.06-.01-.13-.04-.18-.19-.01-.7-.06-.92-.11-.2-.24-.34-.52-.43-.97-.01-.6-.03-1.96-.03-3.12V9.02c0-.337.14-.6.23-.675.24-.227.71-.276 1.11-.326.03-.05.04-.12.04-.17 0-.08-.04-.13-.06-.15h-.36c-.52 0-1.27.06-1.7.06-.26 0-1.01-.04-1.56-.05h-.27c-.04.05-.06.05-.06.16 0 .05.01.1.02.16.61.05.89.11.98.17.15.11.36.39.41 1.06.01.24.03.87.04 2.02.02.62.03 1.47.03 2.2 0 .36-.03 1.3-.04 1.73-.03.3-.09.59-.18.75-.15.13-.3.35-1.21.41-.02.05-.04.13-.04.18 0 .1.03.1.03.16h.22c.5 0 1.27-.07 1.92-.07.19 0 1.02.04 1.43.04h.41c.04-.07.05-.12.05-.17m-5.65-8.74c0-.05-.01-.09-.04-.13h-.29c-.62 0-.9.02-2.02.02-.39 0-.96-.03-1.1-.03h-.33c-.03.02-.05.11-.05.16 0 .06.02.09.06.14.2.06.97.15 1.29.37.23.26.33.79.36 1.27.02.19.03.38.03.89v3.72c0 .3-.01.4-.02.54-.21-.24-.57-.7-1.06-1.28L171 7.87c-.037-.05-.11-.11-.19-.16-.11 0-.23-.01-.33-.01-.8 0-1.5-.04-1.713-.04-.02.05-.032.07-.032.12 0 .03.01.13.02.168.19.05.74.11.96.35.2.22.5.48.62.73.034.09.05.23.05.4 0 .65-.04 1.84-.04 2.717v2.66c0 .41-.04.735-.077.95-.26.273-.66.473-1.31.635-.02.06-.05.09-.05.15 0 .04.01.11.04.13h.24c.25 0 .826-.04 1.2-.04.55 0 .8.03 1.31.03h.75c.05-.01.064-.11.064-.16s-.016-.07-.04-.12c-.44-.11-1.078-.21-1.5-.77-.09-.19-.166-1.14-.166-1.57 0-.4-.01-1.05-.01-1.79 0-.982.02-2.35.03-2.782.08.09.19.23.28.33l5.91 6.95c.06.06.086.074.15.074.06 0 .023 0 .073-.02.02-.065.06-.266.06-.566 0-.36-.01-.74-.01-.93V10c0-1.563.74-2 1.6-2.038.04-.065.05-.1.05-.165m-11.57.06c0-.05-.02-.12-.06-.16h-.36c-.39 0-.91.02-1.36.02-.5 0-1.07-.02-1.43-.02h-.45c-.04.076-.05.1-.05.16 0 .05.01.1.04.166.05 0 .97.013 1.13.24.13.19.43.65.48.923.03.122.1.635.1 1.373 0 1.06 0 1.77-.01 2.15-.02.7-.1 1.25-.22 1.66-.35 1.08-1.16 1.62-2.45 1.62-.55 0-1.02-.12-1.46-.32-.81-.4-1.2-1.16-1.21-1.58l-.06-3.75-.01-1.53c0-.29.37-.55.49-.7.1-.05.65-.1.96-.12.04-.08.06-.11.06-.18s-.04-.13-.09-.17l-.47.01c-.47.01-1.08.02-1.47.02-.6 0-1.06-.01-1.44-.01h-.52c-.05.03-.06.11-.06.17 0 .06.01.11.05.15.4.05.66.09.83.12.21.12.36.33.44.55.01.16.03.56.03 1.35v3c0 .77.04 1.32.12 1.67.17.65.52 1.16 1.09 1.54.61.4 1.38.6 2.29.6.84 0 1.55-.18 2.15-.51.63-.34 1.02-.89 1.24-1.67.13-.46.2-.96.2-1.49v-2.4c0-.45.03-1.01.03-1.24.02-.68.19-1.08.38-1.38.2-.06.38-.1 1.04-.17.03-.05.05-.09.05-.15" fill="#FFF"/>
</svg>
