<svg xmlns="http://www.w3.org/2000/svg" width="49.809" height="52.681" viewBox="0 0 49.809 52.681">
  <g fill="#FFF">
    <path d="M49.74 10.073v-.23h-.057c-.422-1.554-1.907-2.705-3.68-2.705v2.704h-.007l.093 39.097s-5.51-1.78-10.49-3.948c-5.75-2.503-10.35.222-10.77.484v.024l-.02-.012-.024.012v-.024c-.42-.263-5.02-2.987-10.77-.484-4.98 2.167-10.49 3.945-10.49 3.945L3.622 9.84H3.6V6.935c-1.75 0-3.207 1.25-3.53 2.907H.004v.623c0 .024-.004.047-.004.07s.004.047.004.072V52.68H49.74V11.407c.042-.217.068-.44.068-.667s-.026-.45-.068-.667z"/>
    <path d="M12.514 31.942c1.148 2.055 2.473 4.02 3.943 5.88l8.436-8.205 8.46 8.225c1.46-1.84 2.776-3.798 3.94-5.865l-12.4-11.933-12.38 11.898zM42.78 6.72c-1.452.442-2.998.683-4.6.683-5.66 0-10.608-2.977-13.272-7.403-2.672 4.426-7.617 7.403-13.276 7.403-1.6 0-3.146-.24-4.596-.68-.378 4.318-.105 8.583.755 12.685H42c.892-4.278 1.14-8.54.78-12.688"/>
  </g>
</svg>
