<?xml version="1.0" encoding="utf-8"?>
<!-- Generator: Adobe Illustrator 15.1.0, SVG Export Plug-In . SVG Version: 6.00 Build 0)  -->
<!DOCTYPE svg PUBLIC "-//W3C//DTD SVG 1.1//EN" "http://www.w3.org/Graphics/SVG/1.1/DTD/svg11.dtd">
<svg version="1.1" id="Layer_1" xmlns="http://www.w3.org/2000/svg" xmlns:xlink="http://www.w3.org/1999/xlink" x="0px" y="0px"
	 width="49.8px" height="52.7px" viewBox="0 0 49.8 52.7" enable-background="new 0 0 49.8 52.7" xml:space="preserve">
<g>
	<path fill="#F58025" d="M49.7,10.1V9.8h-0.1c-0.4-1.6-1.9-2.7-3.7-2.7v2.7h0l0.1,39.1c0,0-5.5-1.8-10.5-3.9
		c-5.8-2.5-10.4,0.2-10.8,0.5v0c0,0,0,0,0,0c0,0,0,0,0,0v0c-0.4-0.3-5-3-10.8-0.5c-5,2.2-10.5,3.9-10.5,3.9L3.6,9.8h0V6.9
		c-1.8,0-3.2,1.2-3.5,2.9H0v0.6c0,0,0,0,0,0.1s0,0,0,0.1v42.1h49.7V11.4c0-0.2,0.1-0.4,0.1-0.7C49.8,10.5,49.8,10.3,49.7,10.1z"/>
	<g>
		<path fill="#F58025" d="M12.5,31.9c1.1,2.1,2.5,4,3.9,5.9l8.4-8.2l8.5,8.2c1.5-1.8,2.8-3.8,3.9-5.9L24.9,20L12.5,31.9z"/>
		<path fill="#F58025" d="M42.8,6.7c-1.5,0.4-3,0.7-4.6,0.7c-5.7,0-10.6-3-13.3-7.4c-2.7,4.4-7.6,7.4-13.3,7.4C10,7.4,8.5,7.2,7,6.7
			C6.7,11,6.9,15.3,7.8,19.4H42C42.9,15.1,43.1,10.9,42.8,6.7"/>
	</g>
</g>
</svg>
